<ttFont>
    <TTGlyph name="A" xMin="-10" yMin="0" xMax="1587" yMax="1434">
      <contour>
        <pt x="469" y="264" on="1"/>
        <pt x="365" y="0" on="1"/>
        <pt x="-10" y="0" on="1"/>
        <pt x="608" y="1434" on="1"/>
        <pt x="983" y="1434" on="1"/>
        <pt x="1587" y="0" on="1"/>
        <pt x="1198" y="0" on="1"/>
        <pt x="1096" y="264" on="1"/>
      </contour>
      <contour>
        <pt x="784" y="1071" on="1"/>
        <pt x="575" y="541" on="1"/>
        <pt x="989" y="541" on="1"/>
      </contour>
    </TTGlyph>
    <TTGlyph name="AE" xMin="-10" yMin="0" xMax="2165" yMax="1436">
      <contour>
        <pt x="2165" y="0" on="1"/>
        <pt x="1020" y="0" on="1"/>
        <pt x="1020" y="303" on="1"/>
        <pt x="528" y="303" on="1"/>
        <pt x="369" y="0" on="1"/>
        <pt x="-10" y="0" on="1"/>
        <pt x="805" y="1434" on="1"/>
        <pt x="1020" y="1434" on="1"/>
        <pt x="1020" y="1436" on="1"/>
        <pt x="2142" y="1436" on="1"/>
        <pt x="2142" y="1147" on="1"/>
        <pt x="1382" y="1147" on="1"/>
        <pt x="1382" y="862" on="1"/>
        <pt x="2068" y="862" on="1"/>
        <pt x="2068" y="578" on="1"/>
        <pt x="1382" y="578" on="1"/>
        <pt x="1382" y="287" on="1"/>
        <pt x="2165" y="287" on="1"/>
      </contour>
      <contour>
        <pt x="1020" y="1155" on="1"/>
        <pt x="979" y="1155" on="1"/>
        <pt x="668" y="565" on="1"/>
        <pt x="1020" y="565" on="1"/>
      </contour>
    </TTGlyph>
    <TTGlyph name="Aacute" xMin="-10" yMin="0" xMax="1587" yMax="1903">
      <component glyphName="A" x="0" y="0" flags="0x1000"/>
      <component glyphName="acute" x="522" y="330" flags="0x1000"/>
    </TTGlyph>
    <TTGlyph name="Abreve" xMin="-10" yMin="0" xMax="1587" yMax="1884">
      <component glyphName="A" x="0" y="0" flags="0x1000"/>
      <component glyphName="breve" x="430" y="330" flags="0x1000"/>
    </TTGlyph>
    <TTGlyph name="Acircumflex" xMin="-10" yMin="0" xMax="1587" yMax="1889">
      <component glyphName="A" x="0" y="0" flags="0x1000"/>
      <component glyphName="circumflex" x="430" y="328" flags="0x1000"/>
    </TTGlyph>
    <TTGlyph name="Adieresis" xMin="-10" yMin="0" xMax="1587" yMax="1905">
      <contour>
        <pt x="522" y="1587" on="0"/>
        <pt x="432" y="1675" on="0"/>
        <pt x="432" y="1745" on="1"/>
        <pt x="432" y="1815" on="0"/>
        <pt x="522" y="1905" on="0"/>
        <pt x="592" y="1905" on="1"/>
        <pt x="662" y="1905" on="0"/>
        <pt x="752" y="1815" on="0"/>
        <pt x="752" y="1745" on="1"/>
        <pt x="752" y="1675" on="0"/>
        <pt x="662" y="1587" on="0"/>
        <pt x="592" y="1587" on="1"/>
      </contour>
      <contour>
        <pt x="918" y="1587" on="0"/>
        <pt x="827" y="1675" on="0"/>
        <pt x="827" y="1745" on="1"/>
        <pt x="827" y="1815" on="0"/>
        <pt x="918" y="1905" on="0"/>
        <pt x="987" y="1905" on="1"/>
        <pt x="1057" y="1905" on="0"/>
        <pt x="1147" y="1815" on="0"/>
        <pt x="1147" y="1745" on="1"/>
        <pt x="1147" y="1675" on="0"/>
        <pt x="1057" y="1587" on="0"/>
        <pt x="987" y="1587" on="1"/>
      </contour>
      <contour>
        <pt x="469" y="264" on="1"/>
        <pt x="365" y="0" on="1"/>
        <pt x="-10" y="0" on="1"/>
        <pt x="608" y="1434" on="1"/>
        <pt x="983" y="1434" on="1"/>
        <pt x="1587" y="0" on="1"/>
        <pt x="1198" y="0" on="1"/>
        <pt x="1096" y="264" on="1"/>
      </contour>
      <contour>
        <pt x="784" y="1071" on="1"/>
        <pt x="575" y="541" on="1"/>
        <pt x="989" y="541" on="1"/>
      </contour>
    </TTGlyph>
    <TTGlyph name="Agrave" xMin="-10" yMin="0" xMax="1587" yMax="1903">
      <component glyphName="A" x="0" y="0" flags="0x1000"/>
      <component glyphName="grave" x="348" y="330" flags="0x1000"/>
    </TTGlyph>
    <TTGlyph name="Amacron" xMin="-10" yMin="0" xMax="1587" yMax="1862">
      <component glyphName="A" x="0" y="0" flags="0x1000"/>
      <component glyphName="macron" x="430" y="330" flags="0x1000"/>
    </TTGlyph>
    <TTGlyph name="Aogonek" xMin="-10" yMin="-416" xMax="1616" yMax="1436">
      <contour>
        <pt x="1483" y="0" on="1"/>
        <pt x="1395" y="-129" on="0"/>
        <pt x="1395" y="-188" on="1"/>
        <pt x="1395" y="-237" on="0"/>
        <pt x="1438" y="-238" on="1"/>
        <pt x="1483" y="-238" on="0"/>
        <pt x="1526" y="-174" on="1"/>
        <pt x="1616" y="-279" on="1"/>
        <pt x="1577" y="-345" on="0"/>
        <pt x="1462" y="-416" on="0"/>
        <pt x="1395" y="-416" on="1"/>
        <pt x="1323" y="-416" on="0"/>
        <pt x="1214" y="-334" on="0"/>
        <pt x="1214" y="-246" on="1"/>
        <pt x="1214" y="-191" on="0"/>
        <pt x="1266" y="-72" on="0"/>
        <pt x="1313" y="0" on="1"/>
        <pt x="1200" y="0" on="1"/>
        <pt x="1096" y="264" on="1"/>
        <pt x="471" y="264" on="1"/>
        <pt x="365" y="0" on="1"/>
        <pt x="-10" y="0" on="1"/>
        <pt x="608" y="1436" on="1"/>
        <pt x="983" y="1436" on="1"/>
        <pt x="1587" y="0" on="1"/>
      </contour>
      <contour>
        <pt x="993" y="541" on="1"/>
        <pt x="786" y="1071" on="1"/>
        <pt x="575" y="541" on="1"/>
      </contour>
    </TTGlyph>
    <TTGlyph name="Aring" xMin="-10" yMin="0" xMax="1587" yMax="1833">
      <contour>
        <pt x="469" y="264" on="1"/>
        <pt x="365" y="0" on="1"/>
        <pt x="-10" y="0" on="1"/>
        <pt x="594" y="1403" on="1"/>
        <pt x="533" y="1475" on="0"/>
        <pt x="532" y="1573" on="1"/>
        <pt x="532" y="1643" on="0"/>
        <pt x="602" y="1763" on="0"/>
        <pt x="723" y="1833" on="0"/>
        <pt x="795" y="1833" on="1"/>
        <pt x="867" y="1833" on="0"/>
        <pt x="989" y="1763" on="0"/>
        <pt x="1059" y="1642" on="0"/>
        <pt x="1059" y="1573" on="1"/>
        <pt x="1059" y="1473" on="0"/>
        <pt x="995" y="1403" on="1"/>
        <pt x="1587" y="0" on="1"/>
        <pt x="1198" y="0" on="1"/>
        <pt x="1096" y="264" on="1"/>
      </contour>
      <contour>
        <pt x="750" y="1683" on="0"/>
        <pt x="684" y="1618" on="0"/>
        <pt x="684" y="1573" on="1"/>
        <pt x="684" y="1526" on="0"/>
        <pt x="750" y="1462" on="0"/>
        <pt x="795" y="1462" on="1"/>
        <pt x="842" y="1462" on="0"/>
        <pt x="907" y="1526" on="0"/>
        <pt x="907" y="1573" on="1"/>
        <pt x="907" y="1620" on="0"/>
        <pt x="842" y="1683" on="0"/>
        <pt x="795" y="1683" on="1"/>
      </contour>
      <contour>
        <pt x="784" y="1071" on="1"/>
        <pt x="575" y="541" on="1"/>
        <pt x="989" y="541" on="1"/>
      </contour>
    </TTGlyph>
    <TTGlyph name="Atilde" xMin="-10" yMin="0" xMax="1587" yMax="1921">
      <component glyphName="A" x="0" y="0" flags="0x1000"/>
      <component glyphName="tilde" x="430" y="330" flags="0x1000"/>
    </TTGlyph>
    <TTGlyph name="B" xMin="143" yMin="0" xMax="1397" yMax="1434">
      <contour>
        <pt x="981" y="1434" on="0"/>
        <pt x="1219" y="1346" on="0"/>
        <pt x="1348" y="1184" on="0"/>
        <pt x="1348" y="1075" on="1"/>
        <pt x="1348" y="962" on="0"/>
        <pt x="1217" y="793" on="0"/>
        <pt x="1102" y="760" on="1"/>
        <pt x="1237" y="733" on="0"/>
        <pt x="1397" y="537" on="0"/>
        <pt x="1397" y="397" on="1"/>
        <pt x="1397" y="276" on="0"/>
        <pt x="1262" y="96" on="0"/>
        <pt x="1014" y="0" on="0"/>
        <pt x="846" y="0" on="1"/>
        <pt x="143" y="0" on="1"/>
        <pt x="143" y="1434" on="1"/>
        <pt x="821" y="1434" on="1"/>
      </contour>
      <contour>
        <pt x="506" y="860" on="1"/>
        <pt x="801" y="860" on="1"/>
        <pt x="881" y="860" on="0"/>
        <pt x="975" y="940" on="0"/>
        <pt x="975" y="1010" on="1"/>
        <pt x="975" y="1078" on="0"/>
        <pt x="881" y="1155" on="0"/>
        <pt x="801" y="1155" on="1"/>
        <pt x="506" y="1155" on="1"/>
      </contour>
      <contour>
        <pt x="506" y="281" on="1"/>
        <pt x="801" y="281" on="1"/>
        <pt x="903" y="281" on="0"/>
        <pt x="1020" y="367" on="0"/>
        <pt x="1020" y="442" on="1"/>
        <pt x="1020" y="514" on="0"/>
        <pt x="903" y="598" on="0"/>
        <pt x="801" y="598" on="1"/>
        <pt x="506" y="598" on="1"/>
      </contour>
    </TTGlyph>
    <TTGlyph name="C" xMin="49" yMin="-16" xMax="1395" yMax="1446">
      <contour>
        <pt x="975" y="1446" on="0"/>
        <pt x="1284" y="1315" on="0"/>
        <pt x="1393" y="1204" on="1"/>
        <pt x="1182" y="954" on="1"/>
        <pt x="1112" y="1040" on="0"/>
        <pt x="918" y="1141" on="0"/>
        <pt x="821" y="1141" on="1"/>
        <pt x="708" y="1141" on="0"/>
        <pt x="526" y="1032" on="0"/>
        <pt x="422" y="842" on="0"/>
        <pt x="422" y="725" on="1"/>
        <pt x="422" y="606" on="0"/>
        <pt x="526" y="414" on="0"/>
        <pt x="709" y="303" on="0"/>
        <pt x="821" y="303" on="1"/>
        <pt x="911" y="303" on="0"/>
        <pt x="1106" y="393" on="0"/>
        <pt x="1182" y="471" on="1"/>
        <pt x="1395" y="246" on="1"/>
        <pt x="1278" y="127" on="0"/>
        <pt x="961" y="-16" on="0"/>
        <pt x="803" y="-16" on="1"/>
        <pt x="590" y="-16" on="0"/>
        <pt x="246" y="176" on="0"/>
        <pt x="49" y="514" on="0"/>
        <pt x="49" y="721" on="1"/>
        <pt x="49" y="926" on="0"/>
        <pt x="250" y="1255" on="0"/>
        <pt x="600" y="1446" on="0"/>
        <pt x="815" y="1446" on="1"/>
      </contour>
    </TTGlyph>
    <TTGlyph name="Cacute" xMin="49" yMin="-16" xMax="1395" yMax="1903">
      <component glyphName="C" x="0" y="0" flags="0x1000"/>
      <component glyphName="acute" x="518" y="330" flags="0x1000"/>
    </TTGlyph>
    <TTGlyph name="Ccaron" xMin="49" yMin="-16" xMax="1395" yMax="1889">
      <component glyphName="C" x="0" y="0" flags="0x1000"/>
      <component glyphName="caron" x="418" y="328" flags="0x1000"/>
    </TTGlyph>
    <TTGlyph name="Ccedilla" xMin="49" yMin="-481" xMax="1395" yMax="1446">
      <contour>
        <pt x="1298" y="145" on="0"/>
        <pt x="1038" y="12" on="0"/>
        <pt x="903" y="-8" on="1"/>
        <pt x="854" y="-104" on="1"/>
        <pt x="917" y="-120" on="0"/>
        <pt x="993" y="-209" on="0"/>
        <pt x="993" y="-270" on="1"/>
        <pt x="993" y="-366" on="0"/>
        <pt x="850" y="-481" on="0"/>
        <pt x="737" y="-481" on="1"/>
        <pt x="690" y="-481" on="0"/>
        <pt x="586" y="-446" on="0"/>
        <pt x="543" y="-418" on="1"/>
        <pt x="608" y="-272" on="1"/>
        <pt x="628" y="-290" on="0"/>
        <pt x="682" y="-313" on="0"/>
        <pt x="709" y="-313" on="1"/>
        <pt x="748" y="-313" on="0"/>
        <pt x="795" y="-270" on="0"/>
        <pt x="795" y="-238" on="1"/>
        <pt x="795" y="-205" on="0"/>
        <pt x="745" y="-164" on="0"/>
        <pt x="700" y="-164" on="1"/>
        <pt x="675" y="-164" on="0"/>
        <pt x="627" y="-172" on="1"/>
        <pt x="705" y="-10" on="1"/>
        <pt x="517" y="10" on="0"/>
        <pt x="217" y="211" on="0"/>
        <pt x="49" y="530" on="0"/>
        <pt x="49" y="721" on="1"/>
        <pt x="49" y="926" on="0"/>
        <pt x="250" y="1255" on="0"/>
        <pt x="600" y="1446" on="0"/>
        <pt x="815" y="1446" on="1"/>
        <pt x="975" y="1446" on="0"/>
        <pt x="1284" y="1315" on="0"/>
        <pt x="1393" y="1204" on="1"/>
        <pt x="1182" y="954" on="1"/>
        <pt x="1112" y="1040" on="0"/>
        <pt x="918" y="1141" on="0"/>
        <pt x="821" y="1141" on="1"/>
        <pt x="708" y="1141" on="0"/>
        <pt x="526" y="1032" on="0"/>
        <pt x="422" y="842" on="0"/>
        <pt x="422" y="725" on="1"/>
        <pt x="422" y="606" on="0"/>
        <pt x="526" y="414" on="0"/>
        <pt x="709" y="303" on="0"/>
        <pt x="821" y="303" on="1"/>
        <pt x="911" y="303" on="0"/>
        <pt x="1106" y="393" on="0"/>
        <pt x="1182" y="471" on="1"/>
        <pt x="1395" y="246" on="1"/>
      </contour>
    </TTGlyph>
    <TTGlyph name="D" xMin="143" yMin="0" xMax="1522" yMax="1434">
      <contour>
        <pt x="983" y="1434" on="0"/>
        <pt x="1329" y="1253" on="0"/>
        <pt x="1522" y="928" on="0"/>
        <pt x="1522" y="717" on="1"/>
        <pt x="1522" y="508" on="0"/>
        <pt x="1325" y="182" on="0"/>
        <pt x="973" y="0" on="0"/>
        <pt x="745" y="0" on="1"/>
        <pt x="143" y="0" on="1"/>
        <pt x="143" y="1434" on="1"/>
        <pt x="760" y="1434" on="1"/>
      </contour>
      <contour>
        <pt x="508" y="291" on="1"/>
        <pt x="768" y="291" on="1"/>
        <pt x="879" y="291" on="0"/>
        <pt x="1053" y="397" on="0"/>
        <pt x="1151" y="590" on="0"/>
        <pt x="1151" y="715" on="1"/>
        <pt x="1151" y="840" on="0"/>
        <pt x="1049" y="1034" on="0"/>
        <pt x="866" y="1143" on="0"/>
        <pt x="752" y="1143" on="1"/>
        <pt x="508" y="1143" on="1"/>
      </contour>
    </TTGlyph>
    <TTGlyph name="Dcaron" xMin="143" yMin="0" xMax="1522" yMax="1889">
      <component glyphName="D" x="0" y="0" flags="0x1000"/>
      <component glyphName="caron" x="367" y="328" flags="0x1000"/>
    </TTGlyph>
    <TTGlyph name="Dcroat" xMin="143" yMin="0" xMax="1522" yMax="1862">
      <component glyphName="D" x="0" y="0" flags="0x1000"/>
      <component glyphName="macron" x="375" y="330" flags="0x1000"/>
    </TTGlyph>
    <TTGlyph name="Delta" xMin="-10" yMin="0" xMax="1587" yMax="1434">
      <contour>
        <pt x="-10" y="0" on="1"/>
        <pt x="608" y="1434" on="1"/>
        <pt x="983" y="1434" on="1"/>
        <pt x="1587" y="0" on="1"/>
      </contour>
      <contour>
        <pt x="784" y="1071" on="1"/>
        <pt x="469" y="264" on="1"/>
        <pt x="1098" y="264" on="1"/>
      </contour>
    </TTGlyph>
    <TTGlyph name="E" xMin="143" yMin="0" xMax="1288" yMax="1434">
      <contour>
        <pt x="508" y="1147" on="1"/>
        <pt x="508" y="862" on="1"/>
        <pt x="1192" y="862" on="1"/>
        <pt x="1192" y="575" on="1"/>
        <pt x="508" y="575" on="1"/>
        <pt x="508" y="287" on="1"/>
        <pt x="1288" y="287" on="1"/>
        <pt x="1288" y="0" on="1"/>
        <pt x="143" y="0" on="1"/>
        <pt x="143" y="1434" on="1"/>
        <pt x="1266" y="1434" on="1"/>
        <pt x="1266" y="1147" on="1"/>
      </contour>
    </TTGlyph>
    <TTGlyph name="Eacute" xMin="143" yMin="0" xMax="1288" yMax="1903">
      <component glyphName="E" x="0" y="0" flags="0x1000"/>
      <component glyphName="acute" x="442" y="330" flags="0x1000"/>
    </TTGlyph>
    <TTGlyph name="Ecaron" xMin="143" yMin="0" xMax="1288" yMax="1889">
      <component glyphName="E" x="0" y="0" flags="0x1000"/>
      <component glyphName="caron" x="342" y="328" flags="0x1000"/>
    </TTGlyph>
    <TTGlyph name="Ecircumflex" xMin="143" yMin="0" xMax="1288" yMax="1889">
      <component glyphName="E" x="0" y="0" flags="0x1000"/>
      <component glyphName="circumflex" x="350" y="328" flags="0x1000"/>
    </TTGlyph>
    <TTGlyph name="Edieresis" xMin="143" yMin="0" xMax="1288" yMax="1905">
      <contour>
        <pt x="582" y="1905" on="0"/>
        <pt x="672" y="1815" on="0"/>
        <pt x="672" y="1745" on="1"/>
        <pt x="672" y="1675" on="0"/>
        <pt x="582" y="1587" on="0"/>
        <pt x="512" y="1587" on="1"/>
        <pt x="442" y="1587" on="0"/>
        <pt x="352" y="1675" on="0"/>
        <pt x="352" y="1745" on="1"/>
        <pt x="352" y="1815" on="0"/>
        <pt x="442" y="1905" on="0"/>
        <pt x="512" y="1905" on="1"/>
      </contour>
      <contour>
        <pt x="977" y="1905" on="0"/>
        <pt x="1067" y="1815" on="0"/>
        <pt x="1067" y="1745" on="1"/>
        <pt x="1067" y="1675" on="0"/>
        <pt x="977" y="1587" on="0"/>
        <pt x="907" y="1587" on="1"/>
        <pt x="837" y="1587" on="0"/>
        <pt x="748" y="1675" on="0"/>
        <pt x="748" y="1745" on="1"/>
        <pt x="748" y="1815" on="0"/>
        <pt x="838" y="1905" on="0"/>
        <pt x="907" y="1905" on="1"/>
      </contour>
      <contour>
        <pt x="508" y="1147" on="1"/>
        <pt x="508" y="862" on="1"/>
        <pt x="1192" y="862" on="1"/>
        <pt x="1192" y="575" on="1"/>
        <pt x="508" y="575" on="1"/>
        <pt x="508" y="287" on="1"/>
        <pt x="1288" y="287" on="1"/>
        <pt x="1288" y="0" on="1"/>
        <pt x="143" y="0" on="1"/>
        <pt x="143" y="1434" on="1"/>
        <pt x="1266" y="1434" on="1"/>
        <pt x="1266" y="1147" on="1"/>
      </contour>
    </TTGlyph>
    <TTGlyph name="Edotaccent" xMin="143" yMin="0" xMax="1288" yMax="1938">
      <component glyphName="E" x="0" y="0" flags="0x1000"/>
      <component glyphName="dotaccent" x="350" y="330" flags="0x1000"/>
    </TTGlyph>
    <TTGlyph name="Egrave" xMin="143" yMin="0" xMax="1288" yMax="1903">
      <component glyphName="E" x="0" y="0" flags="0x1000"/>
      <component glyphName="grave" x="268" y="330" flags="0x1000"/>
    </TTGlyph>
    <TTGlyph name="Emacron" xMin="143" yMin="0" xMax="1288" yMax="1862">
      <component glyphName="E" x="0" y="0" flags="0x1000"/>
      <component glyphName="macron" x="350" y="330" flags="0x1000"/>
    </TTGlyph>
    <TTGlyph name="Eogonek" xMin="143" yMin="-416" xMax="1296" yMax="1434">
      <contour>
        <pt x="508" y="1155" on="1"/>
        <pt x="508" y="862" on="1"/>
        <pt x="1202" y="862" on="1"/>
        <pt x="1202" y="584" on="1"/>
        <pt x="508" y="584" on="1"/>
        <pt x="508" y="279" on="1"/>
        <pt x="1296" y="279" on="1"/>
        <pt x="1296" y="0" on="1"/>
        <pt x="1151" y="0" on="1"/>
        <pt x="1063" y="-127" on="0"/>
        <pt x="1063" y="-188" on="1"/>
        <pt x="1063" y="-213" on="0"/>
        <pt x="1087" y="-238" on="0"/>
        <pt x="1106" y="-238" on="1"/>
        <pt x="1151" y="-238" on="0"/>
        <pt x="1194" y="-174" on="1"/>
        <pt x="1286" y="-279" on="1"/>
        <pt x="1245" y="-345" on="0"/>
        <pt x="1130" y="-416" on="0"/>
        <pt x="1063" y="-416" on="1"/>
        <pt x="991" y="-416" on="0"/>
        <pt x="885" y="-334" on="0"/>
        <pt x="885" y="-246" on="1"/>
        <pt x="885" y="-189" on="0"/>
        <pt x="934" y="-70" on="0"/>
        <pt x="981" y="0" on="1"/>
        <pt x="143" y="0" on="1"/>
        <pt x="143" y="1434" on="1"/>
        <pt x="1276" y="1434" on="1"/>
        <pt x="1276" y="1155" on="1"/>
      </contour>
    </TTGlyph>
    <TTGlyph name="Eth" xMin="0" yMin="0" xMax="1587" yMax="1434">
      <contour>
        <pt x="1049" y="1434" on="0"/>
        <pt x="1395" y="1253" on="0"/>
        <pt x="1587" y="928" on="0"/>
        <pt x="1587" y="717" on="1"/>
        <pt x="1587" y="508" on="0"/>
        <pt x="1391" y="182" on="0"/>
        <pt x="1038" y="0" on="0"/>
        <pt x="811" y="0" on="1"/>
        <pt x="209" y="0" on="1"/>
        <pt x="209" y="623" on="1"/>
        <pt x="0" y="623" on="1"/>
        <pt x="0" y="815" on="1"/>
        <pt x="209" y="815" on="1"/>
        <pt x="209" y="1434" on="1"/>
        <pt x="825" y="1434" on="1"/>
      </contour>
      <contour>
        <pt x="944" y="291" on="0"/>
        <pt x="1118" y="397" on="0"/>
        <pt x="1217" y="590" on="0"/>
        <pt x="1217" y="715" on="1"/>
        <pt x="1217" y="840" on="0"/>
        <pt x="1114" y="1034" on="0"/>
        <pt x="932" y="1143" on="0"/>
        <pt x="817" y="1143" on="1"/>
        <pt x="571" y="1143" on="1"/>
        <pt x="571" y="815" on="1"/>
        <pt x="897" y="815" on="1"/>
        <pt x="897" y="623" on="1"/>
        <pt x="571" y="623" on="1"/>
        <pt x="571" y="291" on="1"/>
        <pt x="834" y="291" on="1"/>
      </contour>
    </TTGlyph>
    <TTGlyph name="Euro" xMin="57" yMin="-16" xMax="1577" yMax="1446">
      <contour>
        <pt x="1462" y="127" on="0"/>
        <pt x="1143" y="-16" on="0"/>
        <pt x="985" y="-16" on="1"/>
        <pt x="815" y="-16" on="0"/>
        <pt x="522" y="111" on="0"/>
        <pt x="313" y="340" on="0"/>
        <pt x="266" y="489" on="1"/>
        <pt x="57" y="489" on="1"/>
        <pt x="57" y="643" on="1"/>
        <pt x="236" y="643" on="1"/>
        <pt x="232" y="692" on="0"/>
        <pt x="231" y="721" on="1"/>
        <pt x="231" y="748" on="0"/>
        <pt x="236" y="793" on="1"/>
        <pt x="57" y="793" on="1"/>
        <pt x="57" y="946" on="1"/>
        <pt x="266" y="946" on="1"/>
        <pt x="313" y="1093" on="0"/>
        <pt x="526" y="1321" on="0"/>
        <pt x="825" y="1446" on="0"/>
        <pt x="999" y="1446" on="1"/>
        <pt x="1157" y="1446" on="0"/>
        <pt x="1468" y="1315" on="0"/>
        <pt x="1575" y="1204" on="1"/>
        <pt x="1366" y="954" on="1"/>
        <pt x="1294" y="1040" on="0"/>
        <pt x="1100" y="1141" on="0"/>
        <pt x="1004" y="1141" on="1"/>
        <pt x="895" y="1141" on="0"/>
        <pt x="715" y="1036" on="0"/>
        <pt x="664" y="946" on="1"/>
        <pt x="1126" y="946" on="1"/>
        <pt x="1126" y="793" on="1"/>
        <pt x="608" y="793" on="1"/>
        <pt x="604" y="748" on="0"/>
        <pt x="604" y="725" on="1"/>
        <pt x="604" y="684" on="0"/>
        <pt x="610" y="643" on="1"/>
        <pt x="1126" y="643" on="1"/>
        <pt x="1126" y="489" on="1"/>
        <pt x="670" y="489" on="1"/>
        <pt x="723" y="403" on="0"/>
        <pt x="899" y="303" on="0"/>
        <pt x="1004" y="303" on="1"/>
        <pt x="1096" y="303" on="0"/>
        <pt x="1288" y="393" on="0"/>
        <pt x="1366" y="471" on="1"/>
        <pt x="1577" y="246" on="1"/>
      </contour>
    </TTGlyph>
    <TTGlyph name="F" xMin="143" yMin="0" xMax="1206" yMax="1434">
      <contour>
        <pt x="508" y="1147" on="1"/>
        <pt x="508" y="815" on="1"/>
        <pt x="1151" y="815" on="1"/>
        <pt x="1151" y="528" on="1"/>
        <pt x="508" y="528" on="1"/>
        <pt x="508" y="0" on="1"/>
        <pt x="143" y="0" on="1"/>
        <pt x="143" y="1434" on="1"/>
        <pt x="1206" y="1434" on="1"/>
        <pt x="1206" y="1147" on="1"/>
      </contour>
    </TTGlyph>
    <TTGlyph name="G" xMin="49" yMin="-16" xMax="1425" yMax="1446">
      <contour>
        <pt x="1411" y="729" on="1"/>
        <pt x="1411" y="170" on="1"/>
        <pt x="1294" y="88" on="0"/>
        <pt x="965" y="-16" on="0"/>
        <pt x="815" y="-16" on="1"/>
        <pt x="600" y="-16" on="0"/>
        <pt x="250" y="176" on="0"/>
        <pt x="49" y="510" on="0"/>
        <pt x="49" y="717" on="1"/>
        <pt x="49" y="922" on="0"/>
        <pt x="256" y="1255" on="0"/>
        <pt x="616" y="1446" on="0"/>
        <pt x="840" y="1446" on="1"/>
        <pt x="1000" y="1446" on="0"/>
        <pt x="1315" y="1331" on="0"/>
        <pt x="1425" y="1233" on="1"/>
        <pt x="1221" y="985" on="1"/>
        <pt x="1143" y="1057" on="0"/>
        <pt x="938" y="1141" on="0"/>
        <pt x="838" y="1141" on="1"/>
        <pt x="721" y="1141" on="0"/>
        <pt x="530" y="1028" on="0"/>
        <pt x="422" y="836" on="0"/>
        <pt x="422" y="717" on="1"/>
        <pt x="422" y="596" on="0"/>
        <pt x="532" y="401" on="0"/>
        <pt x="725" y="289" on="0"/>
        <pt x="842" y="289" on="1"/>
        <pt x="897" y="289" on="0"/>
        <pt x="1030" y="326" on="0"/>
        <pt x="1096" y="358" on="1"/>
        <pt x="1096" y="729" on="1"/>
      </contour>
    </TTGlyph>
    <TTGlyph name="Gbreve" xMin="49" yMin="-16" xMax="1425" yMax="1884">
      <component glyphName="G" x="0" y="0" flags="0x1000"/>
      <component glyphName="breve" x="444" y="330" flags="0x1000"/>
    </TTGlyph>
    <TTGlyph name="Gcommaaccent" xMin="49" yMin="-604" xMax="1425" yMax="1446">
      <component glyphName="G" x="0" y="0" flags="0x1000"/>
      <component glyphName="uni0326" x="565" y="0" flags="0x1000"/>
    </TTGlyph>
    <TTGlyph name="H" xMin="143" yMin="0" xMax="1466" yMax="1434">
      <contour>
        <pt x="1102" y="0" on="1"/>
        <pt x="1102" y="557" on="1"/>
        <pt x="508" y="557" on="1"/>
        <pt x="508" y="0" on="1"/>
        <pt x="143" y="0" on="1"/>
        <pt x="143" y="1434" on="1"/>
        <pt x="508" y="1434" on="1"/>
        <pt x="508" y="844" on="1"/>
        <pt x="1102" y="844" on="1"/>
        <pt x="1102" y="1434" on="1"/>
        <pt x="1466" y="1434" on="1"/>
        <pt x="1466" y="0" on="1"/>
      </contour>
    </TTGlyph>
    <TTGlyph name="I" xMin="143" yMin="0" xMax="508" yMax="1434">
      <contour>
        <pt x="143" y="0" on="1"/>
        <pt x="143" y="1434" on="1"/>
        <pt x="508" y="1434" on="1"/>
        <pt x="508" y="0" on="1"/>
      </contour>
    </TTGlyph>
    <TTGlyph name="IJ" xMin="143" yMin="-16" xMax="1630" yMax="1436">
      <component glyphName="I" x="0" y="0" flags="0x1000"/>
      <component glyphName="J" x="651" y="0" flags="0x1000"/>
    </TTGlyph>
    <TTGlyph name="Iacute" xMin="143" yMin="0" xMax="684" yMax="1903">
      <component glyphName="I" x="0" y="0" flags="0x1000"/>
      <component glyphName="acute" x="57" y="330" flags="0x1000"/>
    </TTGlyph>
    <TTGlyph name="Icircumflex" xMin="-47" yMin="0" xMax="698" yMax="1889">
      <component glyphName="I" x="0" y="0" flags="0x1000"/>
      <component glyphName="circumflex" x="-33" y="328" flags="0x1000"/>
    </TTGlyph>
    <TTGlyph name="Idieresis" xMin="-31" yMin="0" xMax="684" yMax="1905">
      <contour>
        <pt x="199" y="1905" on="0"/>
        <pt x="289" y="1815" on="0"/>
        <pt x="289" y="1745" on="1"/>
        <pt x="289" y="1675" on="0"/>
        <pt x="199" y="1587" on="0"/>
        <pt x="129" y="1587" on="1"/>
        <pt x="59" y="1587" on="0"/>
        <pt x="-31" y="1675" on="0"/>
        <pt x="-31" y="1745" on="1"/>
        <pt x="-31" y="1815" on="0"/>
        <pt x="59" y="1905" on="0"/>
        <pt x="129" y="1905" on="1"/>
      </contour>
      <contour>
        <pt x="594" y="1905" on="0"/>
        <pt x="684" y="1815" on="0"/>
        <pt x="684" y="1745" on="1"/>
        <pt x="684" y="1675" on="0"/>
        <pt x="594" y="1587" on="0"/>
        <pt x="524" y="1587" on="1"/>
        <pt x="454" y="1587" on="0"/>
        <pt x="365" y="1675" on="0"/>
        <pt x="365" y="1745" on="1"/>
        <pt x="365" y="1815" on="0"/>
        <pt x="455" y="1905" on="0"/>
        <pt x="524" y="1905" on="1"/>
      </contour>
      <contour>
        <pt x="143" y="0" on="1"/>
        <pt x="143" y="1434" on="1"/>
        <pt x="508" y="1434" on="1"/>
        <pt x="508" y="0" on="1"/>
      </contour>
    </TTGlyph>
    <TTGlyph name="Idotaccent" xMin="139" yMin="0" xMax="512" yMax="1938">
      <component glyphName="I" x="0" y="0" flags="0x1000"/>
      <component glyphName="dotaccent" x="-33" y="330" flags="0x1000"/>
    </TTGlyph>
    <TTGlyph name="Igrave" xMin="-31" yMin="0" xMax="508" yMax="1903">
      <component glyphName="I" x="0" y="0" flags="0x1000"/>
      <component glyphName="grave" x="-115" y="330" flags="0x1000"/>
    </TTGlyph>
    <TTGlyph name="Imacron" xMin="41" yMin="0" xMax="610" yMax="1862">
      <component glyphName="I" x="0" y="0" flags="0x1000"/>
      <component glyphName="macron" x="-33" y="330" flags="0x1000"/>
    </TTGlyph>
    <TTGlyph name="Iogonek" xMin="143" yMin="-416" xMax="563" yMax="1436">
      <contour>
        <pt x="524" y="-344" on="0"/>
        <pt x="408" y="-416" on="0"/>
        <pt x="342" y="-416" on="1"/>
        <pt x="270" y="-416" on="0"/>
        <pt x="162" y="-334" on="0"/>
        <pt x="162" y="-246" on="1"/>
        <pt x="162" y="-189" on="0"/>
        <pt x="211" y="-70" on="0"/>
        <pt x="258" y="0" on="1"/>
        <pt x="143" y="0" on="1"/>
        <pt x="143" y="1436" on="1"/>
        <pt x="508" y="1436" on="1"/>
        <pt x="508" y="0" on="1"/>
        <pt x="430" y="0" on="1"/>
        <pt x="340" y="-131" on="0"/>
        <pt x="340" y="-188" on="1"/>
        <pt x="340" y="-213" on="0"/>
        <pt x="365" y="-238" on="0"/>
        <pt x="383" y="-238" on="1"/>
        <pt x="430" y="-238" on="0"/>
        <pt x="473" y="-174" on="1"/>
        <pt x="563" y="-279" on="1"/>
      </contour>
    </TTGlyph>
    <TTGlyph name="Itilde" xMin="-39" yMin="0" xMax="690" yMax="1921">
      <component glyphName="I" x="0" y="0" flags="0x1000"/>
      <component glyphName="tilde" x="-33" y="330" flags="0x1000"/>
    </TTGlyph>
    <TTGlyph name="J" xMin="-10" yMin="-16" xMax="979" yMax="1436">
      <contour>
        <pt x="979" y="238" on="0"/>
        <pt x="715" y="-16" on="0"/>
        <pt x="483" y="-16" on="1"/>
        <pt x="190" y="-16" on="0"/>
        <pt x="-10" y="213" on="1"/>
        <pt x="158" y="457" on="1"/>
        <pt x="232" y="379" on="0"/>
        <pt x="393" y="297" on="0"/>
        <pt x="459" y="297" on="1"/>
        <pt x="533" y="297" on="0"/>
        <pt x="612" y="387" on="0"/>
        <pt x="612" y="473" on="1"/>
        <pt x="612" y="1141" on="1"/>
        <pt x="121" y="1141" on="1"/>
        <pt x="121" y="1436" on="1"/>
        <pt x="979" y="1436" on="1"/>
        <pt x="979" y="465" on="1"/>
      </contour>
    </TTGlyph>
    <TTGlyph name="Jcircumflex" xMin="-10" yMin="-16" xMax="979" yMax="1889">
      <component glyphName="J" x="0" y="0" flags="0x1000"/>
      <component glyphName="circumflex" x="186" y="328" flags="0x1000"/>
    </TTGlyph>
    <TTGlyph name="K" xMin="143" yMin="0" xMax="1513" yMax="1434">
      <contour>
        <pt x="698" y="563" on="1"/>
        <pt x="508" y="352" on="1"/>
        <pt x="508" y="0" on="1"/>
        <pt x="143" y="0" on="1"/>
        <pt x="143" y="1434" on="1"/>
        <pt x="508" y="1434" on="1"/>
        <pt x="508" y="813" on="1"/>
        <pt x="1057" y="1434" on="1"/>
        <pt x="1479" y="1434" on="1"/>
        <pt x="946" y="840" on="1"/>
        <pt x="1513" y="0" on="1"/>
        <pt x="1077" y="0" on="1"/>
      </contour>
    </TTGlyph>
    <TTGlyph name="Kcommaaccent" xMin="143" yMin="-604" xMax="1513" yMax="1434">
      <component glyphName="K" x="0" y="0" flags="0x1000"/>
      <component glyphName="uni0326" x="508" y="0" flags="0x1000"/>
    </TTGlyph>
    <TTGlyph name="L" xMin="143" yMin="0" xMax="1116" yMax="1434">
      <contour>
        <pt x="1116" y="305" on="1"/>
        <pt x="1116" y="0" on="1"/>
        <pt x="143" y="0" on="1"/>
        <pt x="143" y="1434" on="1"/>
        <pt x="508" y="1434" on="1"/>
        <pt x="508" y="305" on="1"/>
      </contour>
    </TTGlyph>
    <TTGlyph name="Lacute" xMin="141" yMin="0" xMax="1116" yMax="1903">
      <component glyphName="L" x="0" y="0" flags="0x1000"/>
      <component glyphName="acute" x="51" y="330" flags="0x1000"/>
    </TTGlyph>
    <TTGlyph name="Lcaron" xMin="143" yMin="0" xMax="1116" yMax="1434">
      <component glyphName="L" x="0" y="0" flags="0x1000"/>
      <component glyphName="quoteright" x="674" y="-66" flags="0x1000"/>
    </TTGlyph>
    <TTGlyph name="Lcommaaccent" xMin="143" yMin="-604" xMax="1116" yMax="1434">
      <component glyphName="L" x="0" y="0" flags="0x1000"/>
      <component glyphName="uni0326" x="358" y="0" flags="0x1000"/>
    </TTGlyph>
    <TTGlyph name="Ldot" xMin="143" yMin="0" xMax="1116" yMax="1434">
      <component glyphName="L" x="0" y="0" flags="0x1000"/>
      <component glyphName="periodcentered" x="602" y="391" flags="0x1000"/>
    </TTGlyph>
    <TTGlyph name="Lslash" xMin="-27" yMin="0" xMax="1155" yMax="1434">
      <contour>
        <pt x="1155" y="0" on="1"/>
        <pt x="182" y="0" on="1"/>
        <pt x="182" y="682" on="1"/>
        <pt x="33" y="639" on="1"/>
        <pt x="-27" y="852" on="1"/>
        <pt x="182" y="913" on="1"/>
        <pt x="182" y="1434" on="1"/>
        <pt x="547" y="1434" on="1"/>
        <pt x="547" y="1018" on="1"/>
        <pt x="842" y="1104" on="1"/>
        <pt x="901" y="889" on="1"/>
        <pt x="547" y="786" on="1"/>
        <pt x="547" y="305" on="1"/>
        <pt x="1155" y="305" on="1"/>
      </contour>
    </TTGlyph>
    <TTGlyph name="M" xMin="143" yMin="0" xMax="1718" yMax="1436">
      <contour>
        <pt x="1397" y="0" on="1"/>
        <pt x="1395" y="932" on="1"/>
        <pt x="1051" y="143" on="1"/>
        <pt x="813" y="143" on="1"/>
        <pt x="469" y="932" on="1"/>
        <pt x="469" y="0" on="1"/>
        <pt x="143" y="0" on="1"/>
        <pt x="143" y="1436" on="1"/>
        <pt x="543" y="1436" on="1"/>
        <pt x="932" y="582" on="1"/>
        <pt x="1321" y="1436" on="1"/>
        <pt x="1718" y="1436" on="1"/>
        <pt x="1718" y="0" on="1"/>
      </contour>
    </TTGlyph>
    <TTGlyph name="N" xMin="143" yMin="0" xMax="1466" yMax="1434">
      <contour>
        <pt x="1145" y="0" on="1"/>
        <pt x="485" y="883" on="1"/>
        <pt x="485" y="0" on="1"/>
        <pt x="143" y="0" on="1"/>
        <pt x="143" y="1434" on="1"/>
        <pt x="465" y="1434" on="1"/>
        <pt x="1126" y="549" on="1"/>
        <pt x="1126" y="1434" on="1"/>
        <pt x="1466" y="1434" on="1"/>
        <pt x="1466" y="0" on="1"/>
      </contour>
    </TTGlyph>
    <TTGlyph name="Nacute" xMin="143" yMin="0" xMax="1466" yMax="1903">
      <component glyphName="N" x="0" y="0" flags="0x1000"/>
      <component glyphName="acute" x="539" y="330" flags="0x1000"/>
    </TTGlyph>
    <TTGlyph name="Ncaron" xMin="143" yMin="0" xMax="1466" yMax="1889">
      <component glyphName="N" x="0" y="0" flags="0x1000"/>
      <component glyphName="caron" x="438" y="328" flags="0x1000"/>
    </TTGlyph>
    <TTGlyph name="Ncommaaccent" xMin="143" yMin="-604" xMax="1466" yMax="1434">
      <component glyphName="N" x="0" y="0" flags="0x1000"/>
      <component glyphName="uni0326" x="569" y="0" flags="0x1000"/>
    </TTGlyph>
    <TTGlyph name="Ntilde" xMin="143" yMin="0" xMax="1466" yMax="1921">
      <component glyphName="N" x="0" y="0" flags="0x1000"/>
      <component glyphName="tilde" x="446" y="330" flags="0x1000"/>
    </TTGlyph>
    <TTGlyph name="O" xMin="49" yMin="-16" xMax="1599" yMax="1446">
      <contour>
        <pt x="1042" y="1446" on="0"/>
        <pt x="1397" y="1255" on="0"/>
        <pt x="1599" y="924" on="0"/>
        <pt x="1599" y="719" on="1"/>
        <pt x="1599" y="512" on="0"/>
        <pt x="1397" y="176" on="0"/>
        <pt x="1042" y="-16" on="0"/>
        <pt x="823" y="-16" on="1"/>
        <pt x="606" y="-16" on="0"/>
        <pt x="252" y="176" on="0"/>
        <pt x="49" y="512" on="0"/>
        <pt x="49" y="719" on="1"/>
        <pt x="49" y="926" on="0"/>
        <pt x="252" y="1257" on="0"/>
        <pt x="604" y="1446" on="0"/>
        <pt x="823" y="1446" on="1"/>
      </contour>
      <contour>
        <pt x="719" y="1141" on="0"/>
        <pt x="532" y="1030" on="0"/>
        <pt x="422" y="836" on="0"/>
        <pt x="422" y="717" on="1"/>
        <pt x="422" y="598" on="0"/>
        <pt x="532" y="401" on="0"/>
        <pt x="719" y="289" on="0"/>
        <pt x="827" y="289" on="1"/>
        <pt x="936" y="289" on="0"/>
        <pt x="1118" y="401" on="0"/>
        <pt x="1225" y="598" on="0"/>
        <pt x="1225" y="717" on="1"/>
        <pt x="1225" y="836" on="0"/>
        <pt x="1118" y="1030" on="0"/>
        <pt x="936" y="1141" on="0"/>
        <pt x="827" y="1141" on="1"/>
      </contour>
    </TTGlyph>
    <TTGlyph name="OE" xMin="49" yMin="0" xMax="2187" yMax="1436">
      <contour>
        <pt x="2187" y="0" on="1"/>
        <pt x="821" y="0" on="1"/>
        <pt x="604" y="0" on="0"/>
        <pt x="252" y="186" on="0"/>
        <pt x="49" y="514" on="0"/>
        <pt x="49" y="715" on="1"/>
        <pt x="49" y="918" on="0"/>
        <pt x="250" y="1247" on="0"/>
        <pt x="604" y="1436" on="0"/>
        <pt x="821" y="1436" on="1"/>
        <pt x="2167" y="1436" on="1"/>
        <pt x="2167" y="1147" on="1"/>
        <pt x="1407" y="1147" on="1"/>
        <pt x="1407" y="862" on="1"/>
        <pt x="2091" y="862" on="1"/>
        <pt x="2091" y="578" on="1"/>
        <pt x="1407" y="578" on="1"/>
        <pt x="1407" y="287" on="1"/>
        <pt x="2187" y="287" on="1"/>
      </contour>
      <contour>
        <pt x="1042" y="1135" on="1"/>
        <pt x="823" y="1135" on="1"/>
        <pt x="710" y="1135" on="0"/>
        <pt x="526" y="1024" on="0"/>
        <pt x="422" y="831" on="0"/>
        <pt x="422" y="713" on="1"/>
        <pt x="422" y="594" on="0"/>
        <pt x="526" y="403" on="0"/>
        <pt x="711" y="293" on="0"/>
        <pt x="823" y="293" on="1"/>
        <pt x="1042" y="295" on="1"/>
      </contour>
    </TTGlyph>
    <TTGlyph name="Oacute" xMin="49" yMin="-16" xMax="1599" yMax="1903">
      <component glyphName="O" x="0" y="0" flags="0x1000"/>
      <component glyphName="acute" x="541" y="330" flags="0x1000"/>
    </TTGlyph>
    <TTGlyph name="Ocircumflex" xMin="49" yMin="-16" xMax="1599" yMax="1889">
      <component glyphName="O" x="0" y="0" flags="0x1000"/>
      <component glyphName="circumflex" x="451" y="328" flags="0x1000"/>
    </TTGlyph>
    <TTGlyph name="Odieresis" xMin="49" yMin="-16" xMax="1599" yMax="1905">
      <contour>
        <pt x="682" y="1905" on="0"/>
        <pt x="772" y="1815" on="0"/>
        <pt x="772" y="1745" on="1"/>
        <pt x="772" y="1675" on="0"/>
        <pt x="682" y="1587" on="0"/>
        <pt x="612" y="1587" on="1"/>
        <pt x="542" y="1587" on="0"/>
        <pt x="453" y="1675" on="0"/>
        <pt x="453" y="1745" on="1"/>
        <pt x="453" y="1815" on="0"/>
        <pt x="543" y="1905" on="0"/>
        <pt x="612" y="1905" on="1"/>
      </contour>
      <contour>
        <pt x="1077" y="1905" on="0"/>
        <pt x="1167" y="1815" on="0"/>
        <pt x="1167" y="1745" on="1"/>
        <pt x="1167" y="1675" on="0"/>
        <pt x="1077" y="1587" on="0"/>
        <pt x="1008" y="1587" on="1"/>
        <pt x="938" y="1587" on="0"/>
        <pt x="848" y="1675" on="0"/>
        <pt x="848" y="1745" on="1"/>
        <pt x="848" y="1815" on="0"/>
        <pt x="938" y="1905" on="0"/>
        <pt x="1008" y="1905" on="1"/>
      </contour>
      <contour>
        <pt x="1042" y="1446" on="0"/>
        <pt x="1397" y="1255" on="0"/>
        <pt x="1599" y="924" on="0"/>
        <pt x="1599" y="719" on="1"/>
        <pt x="1599" y="512" on="0"/>
        <pt x="1397" y="176" on="0"/>
        <pt x="1042" y="-16" on="0"/>
        <pt x="823" y="-16" on="1"/>
        <pt x="606" y="-16" on="0"/>
        <pt x="252" y="176" on="0"/>
        <pt x="49" y="512" on="0"/>
        <pt x="49" y="719" on="1"/>
        <pt x="49" y="926" on="0"/>
        <pt x="252" y="1257" on="0"/>
        <pt x="604" y="1446" on="0"/>
        <pt x="823" y="1446" on="1"/>
      </contour>
      <contour>
        <pt x="719" y="1141" on="0"/>
        <pt x="532" y="1030" on="0"/>
        <pt x="422" y="836" on="0"/>
        <pt x="422" y="717" on="1"/>
        <pt x="422" y="598" on="0"/>
        <pt x="532" y="401" on="0"/>
        <pt x="719" y="289" on="0"/>
        <pt x="827" y="289" on="1"/>
        <pt x="936" y="289" on="0"/>
        <pt x="1118" y="401" on="0"/>
        <pt x="1225" y="598" on="0"/>
        <pt x="1225" y="717" on="1"/>
        <pt x="1225" y="836" on="0"/>
        <pt x="1118" y="1030" on="0"/>
        <pt x="936" y="1141" on="0"/>
        <pt x="827" y="1141" on="1"/>
      </contour>
    </TTGlyph>
    <TTGlyph name="Ograve" xMin="49" yMin="-16" xMax="1599" yMax="1903">
      <component glyphName="O" x="0" y="0" flags="0x1000"/>
      <component glyphName="grave" x="369" y="330" flags="0x1000"/>
    </TTGlyph>
    <TTGlyph name="Ohungarumlaut" xMin="49" yMin="-16" xMax="1599" yMax="1907">
      <component glyphName="O" x="0" y="0" flags="0x1000"/>
      <component glyphName="hungarumlaut" x="514" y="328" flags="0x1000"/>
    </TTGlyph>
    <TTGlyph name="Omacron" xMin="49" yMin="-16" xMax="1599" yMax="1862">
      <component glyphName="O" x="0" y="0" flags="0x1000"/>
      <component glyphName="macron" x="451" y="330" flags="0x1000"/>
    </TTGlyph>
    <TTGlyph name="Omega" xMin="14" yMin="0" xMax="1739" yMax="1452">
      <contour>
        <pt x="1087" y="1452" on="0"/>
        <pt x="1423" y="1278" on="0"/>
        <pt x="1614" y="971" on="0"/>
        <pt x="1614" y="780" on="1"/>
        <pt x="1614" y="649" on="0"/>
        <pt x="1483" y="371" on="0"/>
        <pt x="1380" y="285" on="1"/>
        <pt x="1739" y="285" on="1"/>
        <pt x="1739" y="0" on="1"/>
        <pt x="1024" y="0" on="1"/>
        <pt x="1024" y="264" on="1"/>
        <pt x="1141" y="340" on="0"/>
        <pt x="1292" y="616" on="0"/>
        <pt x="1292" y="750" on="1"/>
        <pt x="1292" y="867" on="0"/>
        <pt x="1184" y="1051" on="0"/>
        <pt x="995" y="1155" on="0"/>
        <pt x="877" y="1155" on="1"/>
        <pt x="758" y="1155" on="0"/>
        <pt x="569" y="1051" on="0"/>
        <pt x="463" y="866" on="0"/>
        <pt x="463" y="750" on="1"/>
        <pt x="463" y="617" on="0"/>
        <pt x="614" y="340" on="0"/>
        <pt x="731" y="262" on="1"/>
        <pt x="731" y="0" on="1"/>
        <pt x="14" y="0" on="1"/>
        <pt x="14" y="285" on="1"/>
        <pt x="375" y="285" on="1"/>
        <pt x="273" y="371" on="0"/>
        <pt x="139" y="649" on="0"/>
        <pt x="139" y="780" on="1"/>
        <pt x="139" y="970" on="0"/>
        <pt x="330" y="1278" on="0"/>
        <pt x="666" y="1452" on="0"/>
        <pt x="877" y="1452" on="1"/>
      </contour>
    </TTGlyph>
    <TTGlyph name="Oslash" xMin="49" yMin="-231" xMax="1599" yMax="1657">
      <contour>
        <pt x="1343" y="1313" on="0"/>
        <pt x="1599" y="950" on="0"/>
        <pt x="1599" y="719" on="1"/>
        <pt x="1599" y="512" on="0"/>
        <pt x="1397" y="176" on="0"/>
        <pt x="1042" y="-16" on="0"/>
        <pt x="823" y="-16" on="1"/>
        <pt x="727" y="-16" on="0"/>
        <pt x="641" y="2" on="1"/>
        <pt x="559" y="-231" on="1"/>
        <pt x="354" y="-231" on="1"/>
        <pt x="459" y="66" on="1"/>
        <pt x="271" y="156" on="0"/>
        <pt x="49" y="502" on="0"/>
        <pt x="49" y="719" on="1"/>
        <pt x="49" y="926" on="0"/>
        <pt x="252" y="1257" on="0"/>
        <pt x="604" y="1446" on="0"/>
        <pt x="823" y="1446" on="1"/>
        <pt x="889" y="1446" on="0"/>
        <pt x="940" y="1438" on="1"/>
        <pt x="1016" y="1657" on="1"/>
        <pt x="1221" y="1657" on="1"/>
        <pt x="1128" y="1393" on="1"/>
      </contour>
      <contour>
        <pt x="422" y="618" on="0"/>
        <pt x="502" y="444" on="0"/>
        <pt x="571" y="385" on="1"/>
        <pt x="836" y="1141" on="1"/>
        <pt x="827" y="1141" on="1"/>
        <pt x="718" y="1141" on="0"/>
        <pt x="532" y="1030" on="0"/>
        <pt x="422" y="836" on="0"/>
        <pt x="422" y="717" on="1"/>
      </contour>
      <contour>
        <pt x="936" y="289" on="0"/>
        <pt x="1118" y="401" on="0"/>
        <pt x="1225" y="598" on="0"/>
        <pt x="1225" y="717" on="1"/>
        <pt x="1225" y="838" on="0"/>
        <pt x="1116" y="1034" on="0"/>
        <pt x="1022" y="1090" on="1"/>
        <pt x="745" y="297" on="1"/>
        <pt x="798" y="289" on="0"/>
        <pt x="827" y="289" on="1"/>
      </contour>
    </TTGlyph>
    <TTGlyph name="Otilde" xMin="49" yMin="-16" xMax="1599" yMax="1921">
      <component glyphName="O" x="0" y="0" flags="0x1000"/>
      <component glyphName="tilde" x="451" y="330" flags="0x1000"/>
    </TTGlyph>
    <TTGlyph name="P" xMin="143" yMin="0" xMax="1346" yMax="1434">
      <contour>
        <pt x="1042" y="1434" on="0"/>
        <pt x="1346" y="1174" on="0"/>
        <pt x="1346" y="934" on="1"/>
        <pt x="1346" y="682" on="0"/>
        <pt x="1042" y="403" on="0"/>
        <pt x="768" y="403" on="1"/>
        <pt x="508" y="403" on="1"/>
        <pt x="508" y="0" on="1"/>
        <pt x="143" y="0" on="1"/>
        <pt x="143" y="1434" on="1"/>
        <pt x="768" y="1434" on="1"/>
      </contour>
      <contour>
        <pt x="508" y="690" on="1"/>
        <pt x="750" y="690" on="1"/>
        <pt x="871" y="690" on="0"/>
        <pt x="1001" y="809" on="0"/>
        <pt x="1001" y="922" on="1"/>
        <pt x="1001" y="1033" on="0"/>
        <pt x="870" y="1147" on="0"/>
        <pt x="750" y="1147" on="1"/>
        <pt x="508" y="1147" on="1"/>
      </contour>
    </TTGlyph>
    <TTGlyph name="Q" xMin="49" yMin="-338" xMax="1671" yMax="1446">
      <contour>
        <pt x="1589" y="-254" on="0"/>
        <pt x="1364" y="-338" on="0"/>
        <pt x="1255" y="-338" on="1"/>
        <pt x="1108" y="-338" on="0"/>
        <pt x="866" y="-168" on="0"/>
        <pt x="795" y="-16" on="1"/>
        <pt x="584" y="-10" on="0"/>
        <pt x="244" y="186" on="0"/>
        <pt x="49" y="516" on="0"/>
        <pt x="49" y="719" on="1"/>
        <pt x="49" y="926" on="0"/>
        <pt x="252" y="1257" on="0"/>
        <pt x="604" y="1446" on="0"/>
        <pt x="823" y="1446" on="1"/>
        <pt x="1042" y="1446" on="0"/>
        <pt x="1397" y="1255" on="0"/>
        <pt x="1599" y="924" on="0"/>
        <pt x="1599" y="719" on="1"/>
        <pt x="1599" y="483" on="0"/>
        <pt x="1339" y="115" on="0"/>
        <pt x="1122" y="35" on="1"/>
        <pt x="1200" y="-63" on="0"/>
        <pt x="1296" y="-63" on="1"/>
        <pt x="1345" y="-63" on="0"/>
        <pt x="1477" y="-6" on="0"/>
        <pt x="1542" y="45" on="1"/>
        <pt x="1671" y="-180" on="1"/>
      </contour>
      <contour>
        <pt x="422" y="598" on="0"/>
        <pt x="532" y="401" on="0"/>
        <pt x="719" y="289" on="0"/>
        <pt x="827" y="289" on="1"/>
        <pt x="936" y="289" on="0"/>
        <pt x="1118" y="401" on="0"/>
        <pt x="1225" y="598" on="0"/>
        <pt x="1225" y="717" on="1"/>
        <pt x="1225" y="836" on="0"/>
        <pt x="1118" y="1030" on="0"/>
        <pt x="936" y="1141" on="0"/>
        <pt x="827" y="1141" on="1"/>
        <pt x="718" y="1141" on="0"/>
        <pt x="532" y="1030" on="0"/>
        <pt x="422" y="836" on="0"/>
        <pt x="422" y="717" on="1"/>
      </contour>
    </TTGlyph>
    <TTGlyph name="R" xMin="143" yMin="0" xMax="1421" yMax="1434">
      <contour>
        <pt x="795" y="403" on="1"/>
        <pt x="784" y="403" on="1"/>
        <pt x="508" y="403" on="1"/>
        <pt x="508" y="0" on="1"/>
        <pt x="143" y="0" on="1"/>
        <pt x="143" y="1434" on="1"/>
        <pt x="784" y="1434" on="1"/>
        <pt x="1069" y="1434" on="0"/>
        <pt x="1380" y="1174" on="0"/>
        <pt x="1380" y="934" on="1"/>
        <pt x="1380" y="770" on="0"/>
        <pt x="1247" y="537" on="0"/>
        <pt x="1120" y="473" on="1"/>
        <pt x="1421" y="0" on="1"/>
        <pt x="1008" y="0" on="1"/>
      </contour>
      <contour>
        <pt x="784" y="690" on="1"/>
        <pt x="903" y="690" on="0"/>
        <pt x="1034" y="809" on="0"/>
        <pt x="1034" y="922" on="1"/>
        <pt x="1034" y="1033" on="0"/>
        <pt x="903" y="1147" on="0"/>
        <pt x="784" y="1147" on="1"/>
        <pt x="508" y="1147" on="1"/>
        <pt x="508" y="690" on="1"/>
      </contour>
    </TTGlyph>
    <TTGlyph name="Racute" xMin="143" yMin="0" xMax="1421" yMax="1903">
      <component glyphName="R" x="0" y="0" flags="0x1000"/>
      <component glyphName="acute" x="477" y="330" flags="0x1000"/>
    </TTGlyph>
    <TTGlyph name="Rcaron" xMin="143" yMin="0" xMax="1421" yMax="1889">
      <component glyphName="R" x="0" y="0" flags="0x1000"/>
      <component glyphName="caron" x="377" y="328" flags="0x1000"/>
    </TTGlyph>
    <TTGlyph name="Rcommaaccent" xMin="143" yMin="-604" xMax="1421" yMax="1434">
      <component glyphName="R" x="0" y="0" flags="0x1000"/>
      <component glyphName="uni0326" x="500" y="0" flags="0x1000"/>
    </TTGlyph>
    <TTGlyph name="S" xMin="35" yMin="-12" xMax="1264" yMax="1450">
      <contour>
        <pt x="848" y="1450" on="0"/>
        <pt x="1147" y="1364" on="0"/>
        <pt x="1260" y="1290" on="1"/>
        <pt x="1122" y="1006" on="1"/>
        <pt x="1009" y="1072" on="0"/>
        <pt x="752" y="1155" on="0"/>
        <pt x="664" y="1155" on="1"/>
        <pt x="592" y="1155" on="0"/>
        <pt x="506" y="1102" on="0"/>
        <pt x="506" y="1051" on="1"/>
        <pt x="506" y="983" on="0"/>
        <pt x="639" y="911" on="0"/>
        <pt x="782" y="870" on="1"/>
        <pt x="932" y="827" on="0"/>
        <pt x="1124" y="741" on="0"/>
        <pt x="1264" y="569" on="0"/>
        <pt x="1264" y="426" on="1"/>
        <pt x="1264" y="287" on="0"/>
        <pt x="1112" y="88" on="0"/>
        <pt x="852" y="-12" on="0"/>
        <pt x="690" y="-12" on="1"/>
        <pt x="512" y="-12" on="0"/>
        <pt x="164" y="111" on="0"/>
        <pt x="35" y="217" on="1"/>
        <pt x="176" y="498" on="1"/>
        <pt x="285" y="404" on="0"/>
        <pt x="580" y="283" on="0"/>
        <pt x="694" y="283" on="1"/>
        <pt x="782" y="283" on="0"/>
        <pt x="881" y="346" on="0"/>
        <pt x="881" y="408" on="1"/>
        <pt x="881" y="478" on="0"/>
        <pt x="743" y="551" on="0"/>
        <pt x="598" y="590" on="1"/>
        <pt x="451" y="631" on="0"/>
        <pt x="260" y="713" on="0"/>
        <pt x="123" y="881" on="0"/>
        <pt x="123" y="1018" on="1"/>
        <pt x="123" y="1149" on="0"/>
        <pt x="264" y="1343" on="0"/>
        <pt x="524" y="1450" on="0"/>
        <pt x="694" y="1450" on="1"/>
      </contour>
    </TTGlyph>
    <TTGlyph name="Sacute" xMin="35" yMin="-12" xMax="1264" yMax="1903">
      <component glyphName="S" x="0" y="0" flags="0x1000"/>
      <component glyphName="acute" x="428" y="330" flags="0x1000"/>
    </TTGlyph>
    <TTGlyph name="Scaron" xMin="35" yMin="-12" xMax="1264" yMax="1889">
      <component glyphName="S" x="0" y="0" flags="0x1000"/>
      <component glyphName="caron" x="328" y="328" flags="0x1000"/>
    </TTGlyph>
    <TTGlyph name="Scedilla" xMin="35" yMin="-481" xMax="1264" yMax="1450">
      <contour>
        <pt x="1264" y="246" on="0"/>
        <pt x="1016" y="23" on="0"/>
        <pt x="815" y="-4" on="1"/>
        <pt x="764" y="-104" on="1"/>
        <pt x="827" y="-120" on="0"/>
        <pt x="903" y="-209" on="0"/>
        <pt x="903" y="-270" on="1"/>
        <pt x="903" y="-366" on="0"/>
        <pt x="760" y="-481" on="0"/>
        <pt x="647" y="-481" on="1"/>
        <pt x="600" y="-481" on="0"/>
        <pt x="496" y="-446" on="0"/>
        <pt x="453" y="-418" on="1"/>
        <pt x="518" y="-272" on="1"/>
        <pt x="538" y="-290" on="0"/>
        <pt x="592" y="-313" on="0"/>
        <pt x="618" y="-313" on="1"/>
        <pt x="657" y="-313" on="0"/>
        <pt x="705" y="-270" on="0"/>
        <pt x="705" y="-238" on="1"/>
        <pt x="705" y="-205" on="0"/>
        <pt x="655" y="-164" on="0"/>
        <pt x="610" y="-164" on="1"/>
        <pt x="585" y="-164" on="0"/>
        <pt x="537" y="-172" on="1"/>
        <pt x="614" y="-10" on="1"/>
        <pt x="452" y="4" on="0"/>
        <pt x="150" y="123" on="0"/>
        <pt x="35" y="217" on="1"/>
        <pt x="176" y="498" on="1"/>
        <pt x="285" y="404" on="0"/>
        <pt x="580" y="283" on="0"/>
        <pt x="694" y="283" on="1"/>
        <pt x="782" y="283" on="0"/>
        <pt x="881" y="346" on="0"/>
        <pt x="881" y="408" on="1"/>
        <pt x="881" y="478" on="0"/>
        <pt x="743" y="551" on="0"/>
        <pt x="598" y="590" on="1"/>
        <pt x="451" y="631" on="0"/>
        <pt x="260" y="713" on="0"/>
        <pt x="123" y="881" on="0"/>
        <pt x="123" y="1018" on="1"/>
        <pt x="123" y="1149" on="0"/>
        <pt x="264" y="1343" on="0"/>
        <pt x="524" y="1450" on="0"/>
        <pt x="694" y="1450" on="1"/>
        <pt x="848" y="1450" on="0"/>
        <pt x="1147" y="1364" on="0"/>
        <pt x="1260" y="1290" on="1"/>
        <pt x="1122" y="1006" on="1"/>
        <pt x="1009" y="1072" on="0"/>
        <pt x="752" y="1155" on="0"/>
        <pt x="664" y="1155" on="1"/>
        <pt x="592" y="1155" on="0"/>
        <pt x="506" y="1102" on="0"/>
        <pt x="506" y="1051" on="1"/>
        <pt x="506" y="983" on="0"/>
        <pt x="639" y="911" on="0"/>
        <pt x="782" y="870" on="1"/>
        <pt x="932" y="827" on="0"/>
        <pt x="1124" y="741" on="0"/>
        <pt x="1264" y="569" on="0"/>
        <pt x="1264" y="426" on="1"/>
      </contour>
    </TTGlyph>
    <TTGlyph name="Scommaaccent" xMin="35" yMin="-604" xMax="1264" yMax="1450">
      <component glyphName="S" x="0" y="0" flags="0x1000"/>
      <component glyphName="uni0326" x="442" y="0" flags="0x1000"/>
    </TTGlyph>
    <TTGlyph name="T" xMin="14" yMin="0" xMax="1239" yMax="1436">
      <contour>
        <pt x="807" y="1141" on="1"/>
        <pt x="807" y="0" on="1"/>
        <pt x="442" y="0" on="1"/>
        <pt x="442" y="1141" on="1"/>
        <pt x="14" y="1141" on="1"/>
        <pt x="14" y="1436" on="1"/>
        <pt x="1239" y="1436" on="1"/>
        <pt x="1239" y="1141" on="1"/>
      </contour>
    </TTGlyph>
    <TTGlyph name="Tcaron" xMin="14" yMin="0" xMax="1239" yMax="1889">
      <component glyphName="T" x="0" y="0" flags="0x1000"/>
      <component glyphName="caron" x="283" y="328" flags="0x1000"/>
    </TTGlyph>
    <TTGlyph name="Tcedilla" xMin="14" yMin="-481" xMax="1239" yMax="1436">
      <contour>
        <pt x="686" y="-104" on="1"/>
        <pt x="749" y="-120" on="0"/>
        <pt x="825" y="-209" on="0"/>
        <pt x="825" y="-270" on="1"/>
        <pt x="825" y="-366" on="0"/>
        <pt x="682" y="-481" on="0"/>
        <pt x="569" y="-481" on="1"/>
        <pt x="522" y="-481" on="0"/>
        <pt x="418" y="-446" on="0"/>
        <pt x="375" y="-418" on="1"/>
        <pt x="440" y="-272" on="1"/>
        <pt x="460" y="-290" on="0"/>
        <pt x="514" y="-313" on="0"/>
        <pt x="541" y="-313" on="1"/>
        <pt x="580" y="-313" on="0"/>
        <pt x="627" y="-270" on="0"/>
        <pt x="627" y="-238" on="1"/>
        <pt x="627" y="-205" on="0"/>
        <pt x="578" y="-164" on="0"/>
        <pt x="532" y="-164" on="1"/>
        <pt x="507" y="-164" on="0"/>
        <pt x="459" y="-172" on="1"/>
        <pt x="541" y="0" on="1"/>
        <pt x="442" y="0" on="1"/>
        <pt x="442" y="1141" on="1"/>
        <pt x="14" y="1141" on="1"/>
        <pt x="14" y="1436" on="1"/>
        <pt x="1239" y="1436" on="1"/>
        <pt x="1239" y="1141" on="1"/>
        <pt x="807" y="1141" on="1"/>
        <pt x="807" y="0" on="1"/>
        <pt x="739" y="0" on="1"/>
      </contour>
    </TTGlyph>
    <TTGlyph name="Thorn" xMin="143" yMin="0" xMax="1364" yMax="1434">
      <contour>
        <pt x="1042" y="1245" on="0"/>
        <pt x="1364" y="983" on="0"/>
        <pt x="1364" y="752" on="1"/>
        <pt x="1364" y="508" on="0"/>
        <pt x="1040" y="229" on="0"/>
        <pt x="758" y="229" on="1"/>
        <pt x="508" y="229" on="1"/>
        <pt x="508" y="0" on="1"/>
        <pt x="143" y="0" on="1"/>
        <pt x="143" y="1434" on="1"/>
        <pt x="508" y="1434" on="1"/>
        <pt x="508" y="1245" on="1"/>
        <pt x="758" y="1245" on="1"/>
      </contour>
      <contour>
        <pt x="862" y="508" on="0"/>
        <pt x="991" y="629" on="0"/>
        <pt x="991" y="741" on="1"/>
        <pt x="991" y="850" on="0"/>
        <pt x="862" y="967" on="0"/>
        <pt x="743" y="967" on="1"/>
        <pt x="508" y="967" on="1"/>
        <pt x="508" y="508" on="1"/>
        <pt x="743" y="508" on="1"/>
      </contour>
    </TTGlyph>
    <TTGlyph name="U" xMin="119" yMin="-16" xMax="1434" yMax="1434">
      <contour>
        <pt x="1434" y="414" on="0"/>
        <pt x="1274" y="135" on="0"/>
        <pt x="979" y="-16" on="0"/>
        <pt x="780" y="-16" on="1"/>
        <pt x="579" y="-16" on="0"/>
        <pt x="281" y="135" on="0"/>
        <pt x="119" y="414" on="0"/>
        <pt x="119" y="602" on="1"/>
        <pt x="119" y="1434" on="1"/>
        <pt x="483" y="1434" on="1"/>
        <pt x="483" y="602" on="1"/>
        <pt x="483" y="459" on="0"/>
        <pt x="649" y="289" on="0"/>
        <pt x="782" y="289" on="1"/>
        <pt x="913" y="289" on="0"/>
        <pt x="1071" y="457" on="0"/>
        <pt x="1071" y="602" on="1"/>
        <pt x="1071" y="1434" on="1"/>
        <pt x="1434" y="1434" on="1"/>
        <pt x="1434" y="602" on="1"/>
      </contour>
    </TTGlyph>
    <TTGlyph name="Uacute" xMin="119" yMin="-16" xMax="1434" yMax="1903">
      <component glyphName="U" x="0" y="0" flags="0x1000"/>
      <component glyphName="acute" x="510" y="330" flags="0x1000"/>
    </TTGlyph>
    <TTGlyph name="Ucircumflex" xMin="119" yMin="-16" xMax="1434" yMax="1889">
      <component glyphName="U" x="0" y="0" flags="0x1000"/>
      <component glyphName="circumflex" x="420" y="328" flags="0x1000"/>
    </TTGlyph>
    <TTGlyph name="Udieresis" xMin="119" yMin="-16" xMax="1434" yMax="1905">
      <contour>
        <pt x="651" y="1905" on="0"/>
        <pt x="741" y="1815" on="0"/>
        <pt x="741" y="1745" on="1"/>
        <pt x="741" y="1675" on="0"/>
        <pt x="651" y="1587" on="0"/>
        <pt x="582" y="1587" on="1"/>
        <pt x="512" y="1587" on="0"/>
        <pt x="422" y="1675" on="0"/>
        <pt x="422" y="1745" on="1"/>
        <pt x="422" y="1815" on="0"/>
        <pt x="512" y="1905" on="0"/>
        <pt x="582" y="1905" on="1"/>
      </contour>
      <contour>
        <pt x="1047" y="1905" on="0"/>
        <pt x="1137" y="1815" on="0"/>
        <pt x="1137" y="1745" on="1"/>
        <pt x="1137" y="1675" on="0"/>
        <pt x="1047" y="1587" on="0"/>
        <pt x="977" y="1587" on="1"/>
        <pt x="907" y="1587" on="0"/>
        <pt x="817" y="1675" on="0"/>
        <pt x="817" y="1745" on="1"/>
        <pt x="817" y="1815" on="0"/>
        <pt x="907" y="1905" on="0"/>
        <pt x="977" y="1905" on="1"/>
      </contour>
      <contour>
        <pt x="1434" y="414" on="0"/>
        <pt x="1274" y="135" on="0"/>
        <pt x="979" y="-16" on="0"/>
        <pt x="780" y="-16" on="1"/>
        <pt x="579" y="-16" on="0"/>
        <pt x="281" y="135" on="0"/>
        <pt x="119" y="414" on="0"/>
        <pt x="119" y="602" on="1"/>
        <pt x="119" y="1434" on="1"/>
        <pt x="483" y="1434" on="1"/>
        <pt x="483" y="602" on="1"/>
        <pt x="483" y="459" on="0"/>
        <pt x="649" y="289" on="0"/>
        <pt x="782" y="289" on="1"/>
        <pt x="913" y="289" on="0"/>
        <pt x="1071" y="457" on="0"/>
        <pt x="1071" y="602" on="1"/>
        <pt x="1071" y="1434" on="1"/>
        <pt x="1434" y="1434" on="1"/>
        <pt x="1434" y="602" on="1"/>
      </contour>
    </TTGlyph>
    <TTGlyph name="Ugrave" xMin="119" yMin="-16" xMax="1434" yMax="1903">
      <component glyphName="U" x="0" y="0" flags="0x1000"/>
      <component glyphName="grave" x="336" y="330" flags="0x1000"/>
    </TTGlyph>
    <TTGlyph name="Uhungarumlaut" xMin="119" yMin="-16" xMax="1434" yMax="1907">
      <component glyphName="U" x="0" y="0" flags="0x1000"/>
      <component glyphName="hungarumlaut" x="483" y="328" flags="0x1000"/>
    </TTGlyph>
    <TTGlyph name="Umacron" xMin="119" yMin="-16" xMax="1434" yMax="1862">
      <component glyphName="U" x="0" y="0" flags="0x1000"/>
      <component glyphName="macron" x="418" y="330" flags="0x1000"/>
    </TTGlyph>
    <TTGlyph name="Uogonek" xMin="119" yMin="-416" xMax="1436" yMax="1436">
      <contour>
        <pt x="1436" y="602" on="1"/>
        <pt x="1436" y="385" on="0"/>
        <pt x="1225" y="82" on="0"/>
        <pt x="1034" y="20" on="1"/>
        <pt x="932" y="-130" on="0"/>
        <pt x="932" y="-188" on="1"/>
        <pt x="932" y="-237" on="0"/>
        <pt x="975" y="-238" on="1"/>
        <pt x="1020" y="-238" on="0"/>
        <pt x="1063" y="-174" on="1"/>
        <pt x="1153" y="-279" on="1"/>
        <pt x="1114" y="-345" on="0"/>
        <pt x="999" y="-416" on="0"/>
        <pt x="932" y="-416" on="1"/>
        <pt x="860" y="-416" on="0"/>
        <pt x="752" y="-334" on="0"/>
        <pt x="752" y="-246" on="1"/>
        <pt x="752" y="-144" on="0"/>
        <pt x="840" y="-14" on="1"/>
        <pt x="780" y="-16" on="1"/>
        <pt x="579" y="-16" on="0"/>
        <pt x="281" y="135" on="0"/>
        <pt x="119" y="414" on="0"/>
        <pt x="119" y="602" on="1"/>
        <pt x="119" y="1436" on="1"/>
        <pt x="481" y="1436" on="1"/>
        <pt x="481" y="602" on="1"/>
        <pt x="481" y="459" on="0"/>
        <pt x="649" y="289" on="0"/>
        <pt x="782" y="289" on="1"/>
        <pt x="913" y="289" on="0"/>
        <pt x="1071" y="457" on="0"/>
        <pt x="1071" y="602" on="1"/>
        <pt x="1071" y="1436" on="1"/>
        <pt x="1436" y="1436" on="1"/>
      </contour>
    </TTGlyph>
    <TTGlyph name="Uring" xMin="119" yMin="-16" xMax="1434" yMax="1997">
      <component glyphName="U" x="0" y="0" flags="0x1000"/>
      <component glyphName="ring" x="418" y="330" flags="0x1000"/>
    </TTGlyph>
    <TTGlyph name="V" xMin="-2" yMin="0" xMax="1495" yMax="1434">
      <contour>
        <pt x="555" y="0" on="1"/>
        <pt x="-2" y="1434" on="1"/>
        <pt x="387" y="1434" on="1"/>
        <pt x="754" y="379" on="1"/>
        <pt x="1120" y="1434" on="1"/>
        <pt x="1495" y="1434" on="1"/>
        <pt x="932" y="0" on="1"/>
      </contour>
    </TTGlyph>
    <TTGlyph name="W" xMin="-2" yMin="0" xMax="2228" yMax="1434">
      <contour>
        <pt x="1380" y="0" on="1"/>
        <pt x="1114" y="991" on="1"/>
        <pt x="844" y="0" on="1"/>
        <pt x="467" y="0" on="1"/>
        <pt x="-2" y="1434" on="1"/>
        <pt x="387" y="1434" on="1"/>
        <pt x="668" y="379" on="1"/>
        <pt x="942" y="1434" on="1"/>
        <pt x="1298" y="1434" on="1"/>
        <pt x="1579" y="379" on="1"/>
        <pt x="1855" y="1434" on="1"/>
        <pt x="2228" y="1434" on="1"/>
        <pt x="1755" y="0" on="1"/>
      </contour>
    </TTGlyph>
    <TTGlyph name="Wacute" xMin="-2" yMin="0" xMax="2228" yMax="1903">
      <component glyphName="W" x="0" y="0" flags="0x1000"/>
      <component glyphName="acute" x="786" y="330" flags="0x1000"/>
    </TTGlyph>
    <TTGlyph name="Wcircumflex" xMin="-2" yMin="0" xMax="2228" yMax="1889">
      <component glyphName="W" x="0" y="0" flags="0x1000"/>
      <component glyphName="circumflex" x="694" y="328" flags="0x1000"/>
    </TTGlyph>
    <TTGlyph name="Wdieresis" xMin="-2" yMin="0" xMax="2228" yMax="1905">
      <contour>
        <pt x="926" y="1905" on="0"/>
        <pt x="1016" y="1815" on="0"/>
        <pt x="1016" y="1745" on="1"/>
        <pt x="1016" y="1675" on="0"/>
        <pt x="926" y="1587" on="0"/>
        <pt x="856" y="1587" on="1"/>
        <pt x="786" y="1587" on="0"/>
        <pt x="696" y="1675" on="0"/>
        <pt x="696" y="1745" on="1"/>
        <pt x="696" y="1815" on="0"/>
        <pt x="786" y="1905" on="0"/>
        <pt x="856" y="1905" on="1"/>
      </contour>
      <contour>
        <pt x="1321" y="1905" on="0"/>
        <pt x="1411" y="1815" on="0"/>
        <pt x="1411" y="1745" on="1"/>
        <pt x="1411" y="1675" on="0"/>
        <pt x="1321" y="1587" on="0"/>
        <pt x="1251" y="1587" on="1"/>
        <pt x="1181" y="1587" on="0"/>
        <pt x="1092" y="1675" on="0"/>
        <pt x="1092" y="1745" on="1"/>
        <pt x="1092" y="1815" on="0"/>
        <pt x="1182" y="1905" on="0"/>
        <pt x="1251" y="1905" on="1"/>
      </contour>
      <contour>
        <pt x="1380" y="0" on="1"/>
        <pt x="1114" y="991" on="1"/>
        <pt x="844" y="0" on="1"/>
        <pt x="467" y="0" on="1"/>
        <pt x="-2" y="1434" on="1"/>
        <pt x="387" y="1434" on="1"/>
        <pt x="668" y="379" on="1"/>
        <pt x="942" y="1434" on="1"/>
        <pt x="1298" y="1434" on="1"/>
        <pt x="1579" y="379" on="1"/>
        <pt x="1855" y="1434" on="1"/>
        <pt x="2228" y="1434" on="1"/>
        <pt x="1755" y="0" on="1"/>
      </contour>
    </TTGlyph>
    <TTGlyph name="Wgrave" xMin="-2" yMin="0" xMax="2228" yMax="1903">
      <component glyphName="W" x="0" y="0" flags="0x1000"/>
      <component glyphName="grave" x="612" y="330" flags="0x1000"/>
    </TTGlyph>
    <TTGlyph name="X" xMin="10" yMin="0" xMax="1489" yMax="1434">
      <contour>
        <pt x="1489" y="0" on="1"/>
        <pt x="1053" y="0" on="1"/>
        <pt x="743" y="457" on="1"/>
        <pt x="434" y="0" on="1"/>
        <pt x="10" y="0" on="1"/>
        <pt x="522" y="733" on="1"/>
        <pt x="43" y="1434" on="1"/>
        <pt x="467" y="1434" on="1"/>
        <pt x="743" y="1016" on="1"/>
        <pt x="1020" y="1434" on="1"/>
        <pt x="1448" y="1434" on="1"/>
        <pt x="975" y="750" on="1"/>
      </contour>
    </TTGlyph>
    <TTGlyph name="Y" xMin="-10" yMin="0" xMax="1403" yMax="1434">
      <contour>
        <pt x="883" y="0" on="1"/>
        <pt x="520" y="0" on="1"/>
        <pt x="520" y="453" on="1"/>
        <pt x="-10" y="1434" on="1"/>
        <pt x="354" y="1434" on="1"/>
        <pt x="700" y="809" on="1"/>
        <pt x="1038" y="1434" on="1"/>
        <pt x="1403" y="1434" on="1"/>
        <pt x="883" y="463" on="1"/>
      </contour>
    </TTGlyph>
    <TTGlyph name="Yacute" xMin="-10" yMin="0" xMax="1403" yMax="1903">
      <component glyphName="Y" x="0" y="0" flags="0x1000"/>
      <component glyphName="acute" x="428" y="330" flags="0x1000"/>
    </TTGlyph>
    <TTGlyph name="Ycircumflex" xMin="-10" yMin="0" xMax="1403" yMax="1889">
      <component glyphName="Y" x="0" y="0" flags="0x1000"/>
      <component glyphName="circumflex" x="338" y="328" flags="0x1000"/>
    </TTGlyph>
    <TTGlyph name="Ydieresis" xMin="-10" yMin="0" xMax="1403" yMax="1905">
      <contour>
        <pt x="430" y="1587" on="0"/>
        <pt x="340" y="1675" on="0"/>
        <pt x="340" y="1745" on="1"/>
        <pt x="340" y="1815" on="0"/>
        <pt x="430" y="1905" on="0"/>
        <pt x="500" y="1905" on="1"/>
        <pt x="570" y="1905" on="0"/>
        <pt x="659" y="1815" on="0"/>
        <pt x="659" y="1745" on="1"/>
        <pt x="659" y="1675" on="0"/>
        <pt x="569" y="1587" on="0"/>
        <pt x="500" y="1587" on="1"/>
      </contour>
      <contour>
        <pt x="825" y="1587" on="0"/>
        <pt x="735" y="1675" on="0"/>
        <pt x="735" y="1745" on="1"/>
        <pt x="735" y="1815" on="0"/>
        <pt x="825" y="1905" on="0"/>
        <pt x="895" y="1905" on="1"/>
        <pt x="965" y="1905" on="0"/>
        <pt x="1055" y="1815" on="0"/>
        <pt x="1055" y="1745" on="1"/>
        <pt x="1055" y="1675" on="0"/>
        <pt x="965" y="1587" on="0"/>
        <pt x="895" y="1587" on="1"/>
      </contour>
      <contour>
        <pt x="883" y="0" on="1"/>
        <pt x="520" y="0" on="1"/>
        <pt x="520" y="453" on="1"/>
        <pt x="-10" y="1434" on="1"/>
        <pt x="354" y="1434" on="1"/>
        <pt x="700" y="809" on="1"/>
        <pt x="1038" y="1434" on="1"/>
        <pt x="1403" y="1434" on="1"/>
        <pt x="883" y="463" on="1"/>
      </contour>
    </TTGlyph>
    <TTGlyph name="Ygrave" xMin="-10" yMin="0" xMax="1403" yMax="1903">
      <component glyphName="Y" x="0" y="0" flags="0x1000"/>
      <component glyphName="grave" x="256" y="330" flags="0x1000"/>
    </TTGlyph>
    <TTGlyph name="Z" xMin="57" yMin="0" xMax="1323" yMax="1434">
      <contour>
        <pt x="545" y="289" on="1"/>
        <pt x="1323" y="289" on="1"/>
        <pt x="1323" y="0" on="1"/>
        <pt x="57" y="0" on="1"/>
        <pt x="57" y="233" on="1"/>
        <pt x="825" y="1145" on="1"/>
        <pt x="84" y="1145" on="1"/>
        <pt x="84" y="1434" on="1"/>
        <pt x="1311" y="1434" on="1"/>
        <pt x="1311" y="1200" on="1"/>
      </contour>
    </TTGlyph>
    <TTGlyph name="Zacute" xMin="57" yMin="0" xMax="1323" yMax="1903">
      <component glyphName="Z" x="0" y="0" flags="0x1000"/>
      <component glyphName="acute" x="455" y="330" flags="0x1000"/>
    </TTGlyph>
    <TTGlyph name="Zcaron" xMin="57" yMin="0" xMax="1323" yMax="1889">
      <component glyphName="Z" x="0" y="0" flags="0x1000"/>
      <component glyphName="caron" x="354" y="328" flags="0x1000"/>
    </TTGlyph>
    <TTGlyph name="Zdotaccent" xMin="57" yMin="0" xMax="1323" yMax="1938">
      <component glyphName="Z" x="0" y="0" flags="0x1000"/>
      <component glyphName="dotaccent" x="365" y="330" flags="0x1000"/>
    </TTGlyph>
    <TTGlyph name="a" xMin="55" yMin="-16" xMax="1118" yMax="1120">
      <contour>
        <pt x="864" y="1120" on="0"/>
        <pt x="1116" y="909" on="0"/>
        <pt x="1118" y="721" on="1"/>
        <pt x="1118" y="0" on="1"/>
        <pt x="772" y="0" on="1"/>
        <pt x="772" y="127" on="1"/>
        <pt x="719" y="57" on="0"/>
        <pt x="547" y="-16" on="0"/>
        <pt x="434" y="-16" on="1"/>
        <pt x="260" y="-16" on="0"/>
        <pt x="55" y="176" on="0"/>
        <pt x="55" y="330" on="1"/>
        <pt x="55" y="488" on="0"/>
        <pt x="274" y="662" on="0"/>
        <pt x="479" y="664" on="1"/>
        <pt x="770" y="664" on="1"/>
        <pt x="770" y="680" on="1"/>
        <pt x="770" y="762" on="0"/>
        <pt x="662" y="854" on="0"/>
        <pt x="555" y="854" on="1"/>
        <pt x="485" y="854" on="0"/>
        <pt x="311" y="807" on="0"/>
        <pt x="225" y="762" on="1"/>
        <pt x="125" y="995" on="1"/>
        <pt x="260" y="1058" on="0"/>
        <pt x="504" y="1120" on="0"/>
        <pt x="637" y="1120" on="1"/>
      </contour>
      <contour>
        <pt x="627" y="223" on="0"/>
        <pt x="754" y="307" on="0"/>
        <pt x="770" y="375" on="1"/>
        <pt x="770" y="473" on="1"/>
        <pt x="547" y="473" on="1"/>
        <pt x="467" y="473" on="0"/>
        <pt x="387" y="416" on="0"/>
        <pt x="387" y="354" on="1"/>
        <pt x="387" y="293" on="0"/>
        <pt x="469" y="223" on="0"/>
        <pt x="543" y="223" on="1"/>
      </contour>
    </TTGlyph>
    <TTGlyph name="aacute" xMin="55" yMin="-16" xMax="1118" yMax="1573">
      <component glyphName="a" x="0" y="0" flags="0x1000"/>
      <component glyphName="acute" x="346" y="0" flags="0x1000"/>
    </TTGlyph>
    <TTGlyph name="abreve" xMin="55" yMin="-16" xMax="1118" yMax="1554">
      <component glyphName="a" x="0" y="0" flags="0x1000"/>
      <component glyphName="breve" x="254" y="0" flags="0x1000"/>
    </TTGlyph>
    <TTGlyph name="acircumflex" xMin="55" yMin="-16" xMax="1118" yMax="1559">
      <component glyphName="a" x="0" y="0" flags="0x1000"/>
      <component glyphName="circumflex" x="254" y="-2" flags="0x1000"/>
    </TTGlyph>
    <TTGlyph name="acute" xMin="90" yMin="1229" xMax="627" yMax="1573">
      <contour>
        <pt x="360" y="1229" on="1"/>
        <pt x="90" y="1229" on="1"/>
        <pt x="307" y="1573" on="1"/>
        <pt x="627" y="1460" on="1"/>
      </contour>
    </TTGlyph>
    <TTGlyph name="adieresis" xMin="55" yMin="-16" xMax="1118" yMax="1575">
      <contour>
        <pt x="346" y="1257" on="0"/>
        <pt x="256" y="1346" on="0"/>
        <pt x="256" y="1415" on="1"/>
        <pt x="256" y="1485" on="0"/>
        <pt x="346" y="1575" on="0"/>
        <pt x="416" y="1575" on="1"/>
        <pt x="486" y="1575" on="0"/>
        <pt x="575" y="1485" on="0"/>
        <pt x="575" y="1415" on="1"/>
        <pt x="575" y="1345" on="0"/>
        <pt x="485" y="1257" on="0"/>
        <pt x="416" y="1257" on="1"/>
      </contour>
      <contour>
        <pt x="741" y="1257" on="0"/>
        <pt x="651" y="1346" on="0"/>
        <pt x="651" y="1415" on="1"/>
        <pt x="651" y="1485" on="0"/>
        <pt x="741" y="1575" on="0"/>
        <pt x="811" y="1575" on="1"/>
        <pt x="881" y="1575" on="0"/>
        <pt x="971" y="1485" on="0"/>
        <pt x="971" y="1415" on="1"/>
        <pt x="971" y="1345" on="0"/>
        <pt x="881" y="1257" on="0"/>
        <pt x="811" y="1257" on="1"/>
      </contour>
      <contour>
        <pt x="864" y="1120" on="0"/>
        <pt x="1116" y="909" on="0"/>
        <pt x="1118" y="721" on="1"/>
        <pt x="1118" y="0" on="1"/>
        <pt x="772" y="0" on="1"/>
        <pt x="772" y="127" on="1"/>
        <pt x="719" y="57" on="0"/>
        <pt x="547" y="-16" on="0"/>
        <pt x="434" y="-16" on="1"/>
        <pt x="260" y="-16" on="0"/>
        <pt x="55" y="176" on="0"/>
        <pt x="55" y="330" on="1"/>
        <pt x="55" y="488" on="0"/>
        <pt x="274" y="662" on="0"/>
        <pt x="479" y="664" on="1"/>
        <pt x="770" y="664" on="1"/>
        <pt x="770" y="680" on="1"/>
        <pt x="770" y="762" on="0"/>
        <pt x="662" y="854" on="0"/>
        <pt x="555" y="854" on="1"/>
        <pt x="485" y="854" on="0"/>
        <pt x="311" y="807" on="0"/>
        <pt x="225" y="762" on="1"/>
        <pt x="125" y="995" on="1"/>
        <pt x="260" y="1058" on="0"/>
        <pt x="504" y="1120" on="0"/>
        <pt x="637" y="1120" on="1"/>
      </contour>
      <contour>
        <pt x="627" y="223" on="0"/>
        <pt x="754" y="307" on="0"/>
        <pt x="770" y="375" on="1"/>
        <pt x="770" y="473" on="1"/>
        <pt x="547" y="473" on="1"/>
        <pt x="467" y="473" on="0"/>
        <pt x="387" y="416" on="0"/>
        <pt x="387" y="354" on="1"/>
        <pt x="387" y="293" on="0"/>
        <pt x="469" y="223" on="0"/>
        <pt x="543" y="223" on="1"/>
      </contour>
    </TTGlyph>
    <TTGlyph name="ae" xMin="55" yMin="-16" xMax="1937" yMax="1120">
      <contour>
        <pt x="1540" y="1116" on="0"/>
        <pt x="1804" y="956" on="0"/>
        <pt x="1937" y="668" on="0"/>
        <pt x="1929" y="475" on="1"/>
        <pt x="1135" y="475" on="1"/>
        <pt x="1155" y="369" on="0"/>
        <pt x="1294" y="252" on="0"/>
        <pt x="1397" y="252" on="1"/>
        <pt x="1471" y="252" on="0"/>
        <pt x="1608" y="309" on="0"/>
        <pt x="1663" y="365" on="1"/>
        <pt x="1849" y="182" on="1"/>
        <pt x="1763" y="88" on="0"/>
        <pt x="1518" y="-12" on="0"/>
        <pt x="1366" y="-12" on="1"/>
        <pt x="1208" y="-12" on="0"/>
        <pt x="977" y="109" on="0"/>
        <pt x="909" y="219" on="1"/>
        <pt x="843" y="104" on="0"/>
        <pt x="614" y="-16" on="0"/>
        <pt x="457" y="-16" on="1"/>
        <pt x="271" y="-16" on="0"/>
        <pt x="55" y="170" on="0"/>
        <pt x="55" y="326" on="1"/>
        <pt x="55" y="482" on="0"/>
        <pt x="276" y="647" on="0"/>
        <pt x="481" y="649" on="1"/>
        <pt x="776" y="649" on="1"/>
        <pt x="776" y="680" on="1"/>
        <pt x="776" y="762" on="0"/>
        <pt x="664" y="854" on="0"/>
        <pt x="559" y="854" on="1"/>
        <pt x="483" y="854" on="0"/>
        <pt x="301" y="807" on="0"/>
        <pt x="207" y="762" on="1"/>
        <pt x="125" y="999" on="1"/>
        <pt x="404" y="1120" on="0"/>
        <pt x="639" y="1120" on="1"/>
        <pt x="881" y="1120" on="0"/>
        <pt x="1012" y="999" on="1"/>
        <pt x="1147" y="1116" on="0"/>
        <pt x="1358" y="1116" on="1"/>
      </contour>
      <contour>
        <pt x="1575" y="748" on="0"/>
        <pt x="1456" y="879" on="0"/>
        <pt x="1360" y="879" on="1"/>
        <pt x="1270" y="879" on="0"/>
        <pt x="1147" y="750" on="0"/>
        <pt x="1130" y="645" on="1"/>
        <pt x="1575" y="645" on="1"/>
      </contour>
      <contour>
        <pt x="700" y="213" on="0"/>
        <pt x="776" y="354" on="1"/>
        <pt x="776" y="481" on="1"/>
        <pt x="553" y="481" on="1"/>
        <pt x="475" y="481" on="0"/>
        <pt x="387" y="416" on="0"/>
        <pt x="387" y="354" on="1"/>
        <pt x="387" y="288" on="0"/>
        <pt x="473" y="213" on="0"/>
        <pt x="545" y="213" on="1"/>
      </contour>
      <contour>
        <pt x="860" y="330" on="1"/>
        <pt x="850" y="332" on="1"/>
        <pt x="860" y="324" on="1"/>
      </contour>
    </TTGlyph>
    <TTGlyph name="agrave" xMin="55" yMin="-16" xMax="1118" yMax="1573">
      <component glyphName="a" x="0" y="0" flags="0x1000"/>
      <component glyphName="grave" x="172" y="0" flags="0x1000"/>
    </TTGlyph>
    <TTGlyph name="amacron" xMin="55" yMin="-16" xMax="1118" yMax="1532">
      <component glyphName="a" x="0" y="0" flags="0x1000"/>
      <component glyphName="macron" x="254" y="0" flags="0x1000"/>
    </TTGlyph>
    <TTGlyph name="ampersand" xMin="113" yMin="-61" xMax="1389" yMax="1450">
      <contour>
        <pt x="1008" y="135" on="1"/>
        <pt x="918" y="61" on="0"/>
        <pt x="711" y="-16" on="0"/>
        <pt x="600" y="-16" on="1"/>
        <pt x="461" y="-16" on="0"/>
        <pt x="240" y="90" on="0"/>
        <pt x="113" y="281" on="0"/>
        <pt x="113" y="401" on="1"/>
        <pt x="113" y="532" on="0"/>
        <pt x="264" y="711" on="0"/>
        <pt x="397" y="784" on="1"/>
        <pt x="334" y="876" on="0"/>
        <pt x="276" y="1028" on="0"/>
        <pt x="276" y="1106" on="1"/>
        <pt x="276" y="1264" on="0"/>
        <pt x="500" y="1450" on="0"/>
        <pt x="686" y="1450" on="1"/>
        <pt x="805" y="1450" on="0"/>
        <pt x="991" y="1368" on="0"/>
        <pt x="1096" y="1223" on="0"/>
        <pt x="1096" y="1128" on="1"/>
        <pt x="1096" y="993" on="0"/>
        <pt x="918" y="817" on="0"/>
        <pt x="758" y="735" on="1"/>
        <pt x="867" y="616" on="0"/>
        <pt x="985" y="500" on="1"/>
        <pt x="1044" y="602" on="0"/>
        <pt x="1081" y="729" on="1"/>
        <pt x="1307" y="569" on="1"/>
        <pt x="1256" y="430" on="0"/>
        <pt x="1176" y="315" on="1"/>
        <pt x="1389" y="113" on="1"/>
        <pt x="1210" y="-61" on="1"/>
      </contour>
      <contour>
        <pt x="553" y="1016" on="0"/>
        <pt x="627" y="903" on="1"/>
        <pt x="719" y="954" on="0"/>
        <pt x="819" y="1059" on="0"/>
        <pt x="819" y="1126" on="1"/>
        <pt x="819" y="1181" on="0"/>
        <pt x="748" y="1251" on="0"/>
        <pt x="690" y="1251" on="1"/>
        <pt x="627" y="1251" on="0"/>
        <pt x="553" y="1169" on="0"/>
        <pt x="553" y="1106" on="1"/>
      </contour>
      <contour>
        <pt x="725" y="231" on="0"/>
        <pt x="827" y="311" on="1"/>
        <pt x="610" y="528" on="0"/>
        <pt x="535" y="614" on="1"/>
        <pt x="472" y="571" on="0"/>
        <pt x="401" y="481" on="0"/>
        <pt x="401" y="426" on="1"/>
        <pt x="401" y="340" on="0"/>
        <pt x="522" y="231" on="0"/>
        <pt x="614" y="231" on="1"/>
      </contour>
    </TTGlyph>
    <TTGlyph name="aogonek" xMin="55" yMin="-416" xMax="1174" yMax="1120">
      <contour>
        <pt x="868" y="1120" on="0"/>
        <pt x="1122" y="909" on="0"/>
        <pt x="1124" y="721" on="1"/>
        <pt x="1124" y="0" on="1"/>
        <pt x="1040" y="0" on="1"/>
        <pt x="950" y="-131" on="0"/>
        <pt x="950" y="-188" on="1"/>
        <pt x="950" y="-213" on="0"/>
        <pt x="975" y="-238" on="0"/>
        <pt x="995" y="-238" on="1"/>
        <pt x="1040" y="-238" on="0"/>
        <pt x="1083" y="-174" on="1"/>
        <pt x="1174" y="-279" on="1"/>
        <pt x="1135" y="-345" on="0"/>
        <pt x="1018" y="-416" on="0"/>
        <pt x="952" y="-416" on="1"/>
        <pt x="880" y="-416" on="0"/>
        <pt x="772" y="-334" on="0"/>
        <pt x="772" y="-246" on="1"/>
        <pt x="772" y="-140" on="0"/>
        <pt x="870" y="0" on="1"/>
        <pt x="776" y="0" on="1"/>
        <pt x="776" y="127" on="1"/>
        <pt x="667" y="-16" on="0"/>
        <pt x="436" y="-16" on="1"/>
        <pt x="260" y="-16" on="0"/>
        <pt x="55" y="176" on="0"/>
        <pt x="55" y="330" on="1"/>
        <pt x="55" y="488" on="0"/>
        <pt x="276" y="662" on="0"/>
        <pt x="481" y="664" on="1"/>
        <pt x="776" y="664" on="1"/>
        <pt x="776" y="682" on="1"/>
        <pt x="772" y="764" on="0"/>
        <pt x="664" y="854" on="0"/>
        <pt x="557" y="854" on="1"/>
        <pt x="487" y="854" on="0"/>
        <pt x="313" y="807" on="0"/>
        <pt x="225" y="762" on="1"/>
        <pt x="125" y="995" on="1"/>
        <pt x="260" y="1058" on="0"/>
        <pt x="506" y="1120" on="0"/>
        <pt x="641" y="1120" on="1"/>
      </contour>
      <contour>
        <pt x="467" y="473" on="0"/>
        <pt x="387" y="416" on="0"/>
        <pt x="387" y="354" on="1"/>
        <pt x="387" y="295" on="0"/>
        <pt x="471" y="223" on="0"/>
        <pt x="545" y="223" on="1"/>
        <pt x="627" y="223" on="0"/>
        <pt x="760" y="309" on="0"/>
        <pt x="776" y="371" on="1"/>
        <pt x="776" y="473" on="1"/>
        <pt x="549" y="473" on="1"/>
      </contour>
    </TTGlyph>
    <TTGlyph name="approxequal" xMin="115" yMin="254" xMax="930" yMax="1081">
      <contour>
        <pt x="401" y="1081" on="0"/>
        <pt x="487" y="1047" on="0"/>
        <pt x="537" y="1016" on="1"/>
        <pt x="570" y="998" on="0"/>
        <pt x="608" y="979" on="0"/>
        <pt x="627" y="979" on="1"/>
        <pt x="695" y="979" on="0"/>
        <pt x="694" y="1073" on="1"/>
        <pt x="930" y="1073" on="1"/>
        <pt x="930" y="897" on="0"/>
        <pt x="815" y="725" on="0"/>
        <pt x="698" y="725" on="1"/>
        <pt x="643" y="725" on="0"/>
        <pt x="557" y="760" on="0"/>
        <pt x="508" y="791" on="1"/>
        <pt x="449" y="828" on="0"/>
        <pt x="418" y="827" on="1"/>
        <pt x="352" y="827" on="0"/>
        <pt x="352" y="733" on="1"/>
        <pt x="115" y="733" on="1"/>
        <pt x="115" y="909" on="0"/>
        <pt x="229" y="1081" on="0"/>
        <pt x="346" y="1081" on="1"/>
      </contour>
      <contour>
        <pt x="401" y="610" on="0"/>
        <pt x="487" y="575" on="0"/>
        <pt x="537" y="545" on="1"/>
        <pt x="570" y="527" on="0"/>
        <pt x="608" y="508" on="0"/>
        <pt x="627" y="508" on="1"/>
        <pt x="695" y="508" on="0"/>
        <pt x="694" y="602" on="1"/>
        <pt x="930" y="602" on="1"/>
        <pt x="930" y="426" on="0"/>
        <pt x="815" y="254" on="0"/>
        <pt x="698" y="254" on="1"/>
        <pt x="643" y="254" on="0"/>
        <pt x="557" y="289" on="0"/>
        <pt x="508" y="319" on="1"/>
        <pt x="449" y="356" on="0"/>
        <pt x="418" y="356" on="1"/>
        <pt x="352" y="356" on="0"/>
        <pt x="352" y="262" on="1"/>
        <pt x="115" y="262" on="1"/>
        <pt x="115" y="438" on="0"/>
        <pt x="229" y="610" on="0"/>
        <pt x="346" y="610" on="1"/>
      </contour>
    </TTGlyph>
    <TTGlyph name="aring" xMin="55" yMin="-16" xMax="1118" yMax="1667">
      <component glyphName="a" x="0" y="0" flags="0x1000"/>
      <component glyphName="ring" x="254" y="0" flags="0x1000"/>
    </TTGlyph>
    <TTGlyph name="asciicircum" xMin="77" yMin="282" xMax="1120" yMax="1074">
      <component glyphName="less" x="-66" y="1133" scalex="0.0" scale01="-0.870788574219" scale10="1.0" scaley="0.0" flags="0x1000"/>
    </TTGlyph>
    <TTGlyph name="asciitilde" xMin="115" yMin="485" xMax="930" yMax="844">
      <contour>
        <pt x="399" y="844" on="0"/>
        <pt x="481" y="811" on="0"/>
        <pt x="537" y="778" on="1"/>
        <pt x="562" y="764" on="0"/>
        <pt x="608" y="739" on="0"/>
        <pt x="627" y="739" on="1"/>
        <pt x="695" y="739" on="0"/>
        <pt x="694" y="834" on="1"/>
        <pt x="930" y="834" on="1"/>
        <pt x="930" y="486" on="0"/>
        <pt x="698" y="485" on="1"/>
        <pt x="645" y="485" on="0"/>
        <pt x="563" y="518" on="0"/>
        <pt x="508" y="551" on="1"/>
        <pt x="475" y="571" on="0"/>
        <pt x="436" y="590" on="0"/>
        <pt x="418" y="590" on="1"/>
        <pt x="352" y="590" on="0"/>
        <pt x="352" y="496" on="1"/>
        <pt x="115" y="496" on="1"/>
        <pt x="115" y="672" on="0"/>
        <pt x="229" y="844" on="0"/>
        <pt x="346" y="844" on="1"/>
      </contour>
    </TTGlyph>
    <TTGlyph name="asterisk" xMin="47" yMin="786" xMax="729" yMax="1473">
      <contour>
        <pt x="475" y="786" on="1"/>
        <pt x="299" y="786" on="1"/>
        <pt x="303" y="983" on="1"/>
        <pt x="135" y="883" on="1"/>
        <pt x="47" y="1034" on="1"/>
        <pt x="217" y="1130" on="1"/>
        <pt x="47" y="1223" on="1"/>
        <pt x="135" y="1380" on="1"/>
        <pt x="301" y="1278" on="1"/>
        <pt x="299" y="1473" on="1"/>
        <pt x="475" y="1473" on="1"/>
        <pt x="473" y="1278" on="1"/>
        <pt x="641" y="1376" on="1"/>
        <pt x="729" y="1223" on="1"/>
        <pt x="555" y="1130" on="1"/>
        <pt x="729" y="1034" on="1"/>
        <pt x="641" y="879" on="1"/>
        <pt x="471" y="983" on="1"/>
      </contour>
    </TTGlyph>
    <TTGlyph name="at" xMin="49" yMin="-305" xMax="1829" yMax="1434">
      <contour>
        <pt x="1200" y="1434" on="0"/>
        <pt x="1599" y="1208" on="0"/>
        <pt x="1829" y="809" on="0"/>
        <pt x="1829" y="561" on="1"/>
        <pt x="1829" y="411" on="0"/>
        <pt x="1729" y="182" on="0"/>
        <pt x="1550" y="57" on="0"/>
        <pt x="1436" y="57" on="1"/>
        <pt x="1340" y="57" on="0"/>
        <pt x="1214" y="137" on="0"/>
        <pt x="1196" y="217" on="1"/>
        <pt x="1192" y="244" on="1"/>
        <pt x="1135" y="160" on="0"/>
        <pt x="975" y="80" on="0"/>
        <pt x="883" y="80" on="1"/>
        <pt x="768" y="80" on="0"/>
        <pt x="561" y="199" on="0"/>
        <pt x="436" y="416" on="0"/>
        <pt x="436" y="553" on="1"/>
        <pt x="436" y="684" on="0"/>
        <pt x="541" y="905" on="0"/>
        <pt x="731" y="1034" on="0"/>
        <pt x="856" y="1034" on="1"/>
        <pt x="930" y="1034" on="0"/>
        <pt x="1053" y="983" on="0"/>
        <pt x="1126" y="920" on="0"/>
        <pt x="1135" y="903" on="1"/>
        <pt x="1135" y="1012" on="1"/>
        <pt x="1384" y="1012" on="1"/>
        <pt x="1384" y="322" on="1"/>
        <pt x="1384" y="222" on="0"/>
        <pt x="1460" y="221" on="1"/>
        <pt x="1503" y="221" on="0"/>
        <pt x="1581" y="307" on="0"/>
        <pt x="1630" y="461" on="0"/>
        <pt x="1630" y="555" on="1"/>
        <pt x="1630" y="752" on="0"/>
        <pt x="1466" y="1067" on="0"/>
        <pt x="1159" y="1249" on="0"/>
        <pt x="952" y="1249" on="1"/>
        <pt x="759" y="1249" on="0"/>
        <pt x="438" y="1061" on="0"/>
        <pt x="250" y="739" on="0"/>
        <pt x="250" y="549" on="1"/>
        <pt x="250" y="361" on="0"/>
        <pt x="428" y="55" on="0"/>
        <pt x="737" y="-119" on="0"/>
        <pt x="926" y="-119" on="1"/>
        <pt x="1022" y="-119" on="0"/>
        <pt x="1231" y="-55" on="0"/>
        <pt x="1313" y="6" on="1"/>
        <pt x="1407" y="-158" on="1"/>
        <pt x="1319" y="-224" on="0"/>
        <pt x="1047" y="-305" on="0"/>
        <pt x="926" y="-305" on="1"/>
        <pt x="680" y="-305" on="0"/>
        <pt x="279" y="-82" on="0"/>
        <pt x="49" y="307" on="0"/>
        <pt x="49" y="549" on="1"/>
        <pt x="49" y="795" on="0"/>
        <pt x="291" y="1198" on="0"/>
        <pt x="705" y="1434" on="0"/>
        <pt x="952" y="1434" on="1"/>
      </contour>
      <contour>
        <pt x="819" y="807" on="0"/>
        <pt x="709" y="666" on="0"/>
        <pt x="709" y="563" on="1"/>
        <pt x="709" y="454" on="0"/>
        <pt x="819" y="303" on="0"/>
        <pt x="909" y="303" on="1"/>
        <pt x="1005" y="303" on="0"/>
        <pt x="1118" y="451" on="0"/>
        <pt x="1118" y="561" on="1"/>
        <pt x="1118" y="665" on="0"/>
        <pt x="1004" y="807" on="0"/>
        <pt x="907" y="807" on="1"/>
      </contour>
    </TTGlyph>
    <TTGlyph name="atilde" xMin="55" yMin="-16" xMax="1118" yMax="1591">
      <component glyphName="a" x="0" y="0" flags="0x1000"/>
      <component glyphName="tilde" x="254" y="0" flags="0x1000"/>
    </TTGlyph>
    <TTGlyph name="b" xMin="152" yMin="-12" xMax="1354" yMax="1520">
      <contour>
        <pt x="989" y="1116" on="0"/>
        <pt x="1225" y="975" on="0"/>
        <pt x="1354" y="717" on="0"/>
        <pt x="1354" y="547" on="1"/>
        <pt x="1354" y="381" on="0"/>
        <pt x="1227" y="127" on="0"/>
        <pt x="997" y="-12" on="0"/>
        <pt x="844" y="-12" on="1"/>
        <pt x="738" y="-12" on="0"/>
        <pt x="565" y="70" on="0"/>
        <pt x="506" y="147" on="1"/>
        <pt x="506" y="0" on="1"/>
        <pt x="152" y="0" on="1"/>
        <pt x="152" y="1520" on="1"/>
        <pt x="506" y="1520" on="1"/>
        <pt x="506" y="958" on="1"/>
        <pt x="565" y="1034" on="0"/>
        <pt x="733" y="1116" on="0"/>
        <pt x="836" y="1116" on="1"/>
      </contour>
      <contour>
        <pt x="860" y="268" on="0"/>
        <pt x="997" y="430" on="0"/>
        <pt x="997" y="557" on="1"/>
        <pt x="997" y="684" on="0"/>
        <pt x="860" y="844" on="0"/>
        <pt x="750" y="844" on="1"/>
        <pt x="644" y="844" on="0"/>
        <pt x="506" y="684" on="0"/>
        <pt x="506" y="557" on="1"/>
        <pt x="506" y="428" on="0"/>
        <pt x="641" y="268" on="0"/>
        <pt x="750" y="268" on="1"/>
      </contour>
    </TTGlyph>
    <TTGlyph name="backslash" xMin="26" yMin="-227" xMax="985" yMax="1661">
      <component glyphName="slash" x="911" y="0" scalex="-1.0" scaley="1.0" flags="0x1000"/>
    </TTGlyph>
    <TTGlyph name="bar" xMin="174" yMin="-225" xMax="438" yMax="1645">
      <contour>
        <pt x="174" y="-225" on="1"/>
        <pt x="174" y="1645" on="1"/>
        <pt x="438" y="1645" on="1"/>
        <pt x="438" y="-225" on="1"/>
      </contour>
    </TTGlyph>
    <TTGlyph name="braceleft" xMin="49" yMin="-258" xMax="700" yMax="1522">
      <contour>
        <pt x="520" y="766" on="0"/>
        <pt x="442" y="653" on="0"/>
        <pt x="348" y="633" on="1"/>
        <pt x="442" y="610" on="0"/>
        <pt x="520" y="496" on="0"/>
        <pt x="520" y="385" on="1"/>
        <pt x="520" y="137" on="1"/>
        <pt x="520" y="63" on="0"/>
        <pt x="596" y="4" on="0"/>
        <pt x="700" y="4" on="1"/>
        <pt x="700" y="-258" on="1"/>
        <pt x="563" y="-258" on="1"/>
        <pt x="428" y="-258" on="0"/>
        <pt x="274" y="-203" on="0"/>
        <pt x="205" y="-78" on="0"/>
        <pt x="205" y="29" on="1"/>
        <pt x="205" y="408" on="1"/>
        <pt x="205" y="457" on="0"/>
        <pt x="170" y="498" on="0"/>
        <pt x="129" y="498" on="1"/>
        <pt x="49" y="498" on="1"/>
        <pt x="49" y="768" on="1"/>
        <pt x="129" y="768" on="1"/>
        <pt x="170" y="768" on="0"/>
        <pt x="205" y="807" on="0"/>
        <pt x="205" y="856" on="1"/>
        <pt x="205" y="1237" on="1"/>
        <pt x="205" y="1343" on="0"/>
        <pt x="272" y="1466" on="0"/>
        <pt x="428" y="1522" on="0"/>
        <pt x="563" y="1522" on="1"/>
        <pt x="700" y="1522" on="1"/>
        <pt x="700" y="1262" on="1"/>
        <pt x="596" y="1262" on="0"/>
        <pt x="520" y="1202" on="0"/>
        <pt x="520" y="1128" on="1"/>
        <pt x="520" y="879" on="1"/>
      </contour>
    </TTGlyph>
    <TTGlyph name="braceright" xMin="136" yMin="-258" xMax="787" yMax="1522">
      <component glyphName="braceleft" x="836" y="0" scalex="-1.0" scaley="1.0" flags="0x1000"/>
    </TTGlyph>
    <TTGlyph name="bracketleft" xMin="143" yMin="-254" xMax="705" yMax="1520">
      <contour>
        <pt x="459" y="1257" on="1"/>
        <pt x="459" y="8" on="1"/>
        <pt x="705" y="8" on="1"/>
        <pt x="705" y="-254" on="1"/>
        <pt x="143" y="-254" on="1"/>
        <pt x="143" y="1520" on="1"/>
        <pt x="705" y="1520" on="1"/>
        <pt x="705" y="1257" on="1"/>
      </contour>
    </TTGlyph>
    <TTGlyph name="bracketright" xMin="182" yMin="-254" xMax="744" yMax="1520">
      <component glyphName="bracketleft" x="887" y="0" scalex="-1.0" scaley="1.0" flags="0x1000"/>
    </TTGlyph>
    <TTGlyph name="breve" xMin="23" yMin="1231" xMax="694" yMax="1554">
      <contour>
        <pt x="686" y="1407" on="0"/>
        <pt x="504" y="1231" on="0"/>
        <pt x="358" y="1231" on="1"/>
        <pt x="213" y="1231" on="0"/>
        <pt x="31" y="1407" on="0"/>
        <pt x="23" y="1554" on="1"/>
        <pt x="244" y="1554" on="1"/>
        <pt x="248" y="1501" on="0"/>
        <pt x="311" y="1436" on="0"/>
        <pt x="358" y="1436" on="1"/>
        <pt x="405" y="1436" on="0"/>
        <pt x="469" y="1501" on="0"/>
        <pt x="473" y="1554" on="1"/>
        <pt x="694" y="1554" on="1"/>
      </contour>
    </TTGlyph>
    <TTGlyph name="brokenbar" xMin="174" yMin="-225" xMax="438" yMax="1645">
      <contour>
        <pt x="174" y="944" on="1"/>
        <pt x="174" y="1645" on="1"/>
        <pt x="438" y="1645" on="1"/>
        <pt x="438" y="944" on="1"/>
      </contour>
      <contour>
        <pt x="174" y="-225" on="1"/>
        <pt x="174" y="477" on="1"/>
        <pt x="438" y="477" on="1"/>
        <pt x="438" y="-225" on="1"/>
      </contour>
    </TTGlyph>
    <TTGlyph name="bullet" xMin="78" yMin="305" xMax="592" yMax="821">
      <contour>
        <pt x="446" y="821" on="0"/>
        <pt x="592" y="678" on="0"/>
        <pt x="592" y="565" on="1"/>
        <pt x="592" y="450" on="0"/>
        <pt x="446" y="305" on="0"/>
        <pt x="334" y="305" on="1"/>
        <pt x="221" y="305" on="0"/>
        <pt x="78" y="451" on="0"/>
        <pt x="78" y="565" on="1"/>
        <pt x="78" y="678" on="0"/>
        <pt x="221" y="821" on="0"/>
        <pt x="334" y="821" on="1"/>
      </contour>
    </TTGlyph>
    <TTGlyph name="bulletoperator" xMin="78" yMin="305" xMax="592" yMax="821">
      <contour>
        <pt x="446" y="821" on="0"/>
        <pt x="592" y="678" on="0"/>
        <pt x="592" y="565" on="1"/>
        <pt x="592" y="450" on="0"/>
        <pt x="446" y="305" on="0"/>
        <pt x="334" y="305" on="1"/>
        <pt x="221" y="305" on="0"/>
        <pt x="78" y="451" on="0"/>
        <pt x="78" y="565" on="1"/>
        <pt x="78" y="678" on="0"/>
        <pt x="221" y="821" on="0"/>
        <pt x="334" y="821" on="1"/>
      </contour>
    </TTGlyph>
    <TTGlyph name="c" xMin="49" yMin="-12" xMax="1120" yMax="1116">
      <contour>
        <pt x="786" y="1116" on="0"/>
        <pt x="1042" y="987" on="0"/>
        <pt x="1114" y="868" on="1"/>
        <pt x="860" y="715" on="1"/>
        <pt x="778" y="830" on="0"/>
        <pt x="637" y="829" on="1"/>
        <pt x="535" y="829" on="0"/>
        <pt x="406" y="676" on="0"/>
        <pt x="406" y="551" on="1"/>
        <pt x="406" y="424" on="0"/>
        <pt x="532" y="270" on="0"/>
        <pt x="637" y="270" on="1"/>
        <pt x="793" y="270" on="0"/>
        <pt x="862" y="395" on="1"/>
        <pt x="1120" y="244" on="1"/>
        <pt x="1052" y="121" on="0"/>
        <pt x="793" y="-12" on="0"/>
        <pt x="618" y="-12" on="1"/>
        <pt x="450" y="-12" on="0"/>
        <pt x="193" y="129" on="0"/>
        <pt x="49" y="383" on="0"/>
        <pt x="49" y="549" on="1"/>
        <pt x="49" y="717" on="0"/>
        <pt x="193" y="975" on="0"/>
        <pt x="453" y="1116" on="0"/>
        <pt x="623" y="1116" on="1"/>
      </contour>
    </TTGlyph>
    <TTGlyph name="cacute" xMin="49" yMin="-12" xMax="1120" yMax="1573">
      <component glyphName="c" x="0" y="0" flags="0x1000"/>
      <component glyphName="acute" x="332" y="0" flags="0x1000"/>
    </TTGlyph>
    <TTGlyph name="caron" xMin="-43" yMin="1225" xMax="760" yMax="1561">
      <contour>
        <pt x="233" y="1561" on="1"/>
        <pt x="358" y="1372" on="1"/>
        <pt x="483" y="1561" on="1"/>
        <pt x="760" y="1561" on="1"/>
        <pt x="512" y="1225" on="1"/>
        <pt x="205" y="1225" on="1"/>
        <pt x="-43" y="1561" on="1"/>
      </contour>
    </TTGlyph>
    <TTGlyph name="ccaron" xMin="49" yMin="-12" xMax="1120" yMax="1557">
      <component glyphName="c" x="0" y="0" flags="0x1000"/>
      <component glyphName="caron" x="233" y="-4" flags="0x1000"/>
    </TTGlyph>
    <TTGlyph name="ccedilla" xMin="49" yMin="-481" xMax="1120" yMax="1116">
      <contour>
        <pt x="1063" y="141" on="0"/>
        <pt x="864" y="14" on="0"/>
        <pt x="731" y="-4" on="1"/>
        <pt x="680" y="-104" on="1"/>
        <pt x="743" y="-120" on="0"/>
        <pt x="819" y="-209" on="0"/>
        <pt x="819" y="-270" on="1"/>
        <pt x="819" y="-366" on="0"/>
        <pt x="676" y="-481" on="0"/>
        <pt x="563" y="-481" on="1"/>
        <pt x="516" y="-481" on="0"/>
        <pt x="412" y="-446" on="0"/>
        <pt x="369" y="-418" on="1"/>
        <pt x="434" y="-272" on="1"/>
        <pt x="454" y="-290" on="0"/>
        <pt x="508" y="-313" on="0"/>
        <pt x="535" y="-313" on="1"/>
        <pt x="574" y="-313" on="0"/>
        <pt x="621" y="-270" on="0"/>
        <pt x="621" y="-238" on="1"/>
        <pt x="621" y="-205" on="0"/>
        <pt x="571" y="-164" on="0"/>
        <pt x="526" y="-164" on="1"/>
        <pt x="501" y="-164" on="0"/>
        <pt x="453" y="-172" on="1"/>
        <pt x="532" y="-6" on="1"/>
        <pt x="311" y="21" on="0"/>
        <pt x="49" y="319" on="0"/>
        <pt x="49" y="549" on="1"/>
        <pt x="49" y="717" on="0"/>
        <pt x="193" y="975" on="0"/>
        <pt x="453" y="1116" on="0"/>
        <pt x="623" y="1116" on="1"/>
        <pt x="787" y="1116" on="0"/>
        <pt x="1042" y="987" on="0"/>
        <pt x="1114" y="868" on="1"/>
        <pt x="860" y="715" on="1"/>
        <pt x="778" y="830" on="0"/>
        <pt x="637" y="829" on="1"/>
        <pt x="535" y="829" on="0"/>
        <pt x="406" y="676" on="0"/>
        <pt x="406" y="551" on="1"/>
        <pt x="406" y="424" on="0"/>
        <pt x="532" y="270" on="0"/>
        <pt x="637" y="270" on="1"/>
        <pt x="793" y="270" on="0"/>
        <pt x="862" y="395" on="1"/>
        <pt x="1120" y="244" on="1"/>
      </contour>
    </TTGlyph>
    <TTGlyph name="cedilla" xMin="133" yMin="-481" xMax="584" yMax="29">
      <contour>
        <pt x="508" y="-121" on="0"/>
        <pt x="584" y="-209" on="0"/>
        <pt x="584" y="-270" on="1"/>
        <pt x="584" y="-366" on="0"/>
        <pt x="440" y="-481" on="0"/>
        <pt x="328" y="-481" on="1"/>
        <pt x="281" y="-481" on="0"/>
        <pt x="176" y="-446" on="0"/>
        <pt x="133" y="-418" on="1"/>
        <pt x="199" y="-272" on="1"/>
        <pt x="219" y="-290" on="0"/>
        <pt x="272" y="-313" on="0"/>
        <pt x="299" y="-313" on="1"/>
        <pt x="338" y="-313" on="0"/>
        <pt x="385" y="-270" on="0"/>
        <pt x="385" y="-238" on="1"/>
        <pt x="385" y="-205" on="0"/>
        <pt x="336" y="-164" on="0"/>
        <pt x="291" y="-164" on="1"/>
        <pt x="266" y="-164" on="0"/>
        <pt x="217" y="-172" on="1"/>
        <pt x="313" y="29" on="1"/>
        <pt x="512" y="29" on="1"/>
        <pt x="444" y="-104" on="1"/>
      </contour>
    </TTGlyph>
    <TTGlyph name="cent" xMin="49" yMin="-315" xMax="1120" yMax="1432">
      <contour>
        <pt x="1067" y="150" on="0"/>
        <pt x="891" y="27" on="0"/>
        <pt x="772" y="2" on="1"/>
        <pt x="772" y="-315" on="1"/>
        <pt x="498" y="-315" on="1"/>
        <pt x="498" y="-2" on="1"/>
        <pt x="293" y="33" on="0"/>
        <pt x="49" y="330" on="0"/>
        <pt x="49" y="549" on="1"/>
        <pt x="49" y="770" on="0"/>
        <pt x="293" y="1069" on="0"/>
        <pt x="498" y="1106" on="1"/>
        <pt x="498" y="1432" on="1"/>
        <pt x="772" y="1432" on="1"/>
        <pt x="772" y="1102" on="1"/>
        <pt x="885" y="1077" on="0"/>
        <pt x="1059" y="958" on="0"/>
        <pt x="1114" y="868" on="1"/>
        <pt x="860" y="715" on="1"/>
        <pt x="778" y="830" on="0"/>
        <pt x="637" y="829" on="1"/>
        <pt x="535" y="829" on="0"/>
        <pt x="406" y="676" on="0"/>
        <pt x="406" y="551" on="1"/>
        <pt x="406" y="424" on="0"/>
        <pt x="532" y="270" on="0"/>
        <pt x="637" y="270" on="1"/>
        <pt x="793" y="270" on="0"/>
        <pt x="862" y="395" on="1"/>
        <pt x="1120" y="244" on="1"/>
      </contour>
    </TTGlyph>
    <TTGlyph name="circumflex" xMin="-14" yMin="1251" xMax="731" yMax="1561">
      <contour>
        <pt x="477" y="1251" on="1"/>
        <pt x="358" y="1425" on="1"/>
        <pt x="240" y="1251" on="1"/>
        <pt x="-14" y="1251" on="1"/>
        <pt x="217" y="1561" on="1"/>
        <pt x="500" y="1561" on="1"/>
        <pt x="731" y="1251" on="1"/>
      </contour>
    </TTGlyph>
    <TTGlyph name="colon" xMin="78" yMin="-16" xMax="420" yMax="934">
      <component glyphName="period" x="0" y="608" flags="0x1000"/>
      <component glyphName="period" x="0" y="0" flags="0x1000"/>
    </TTGlyph>
    <TTGlyph name="comma" xMin="55" yMin="-197" xMax="418" yMax="324">
      <contour>
        <pt x="322" y="324" on="0"/>
        <pt x="418" y="233" on="0"/>
        <pt x="418" y="156" on="1"/>
        <pt x="418" y="90" on="0"/>
        <pt x="373" y="20" on="1"/>
        <pt x="223" y="-197" on="1"/>
        <pt x="55" y="-197" on="1"/>
        <pt x="147" y="23" on="1"/>
        <pt x="79" y="68" on="0"/>
        <pt x="80" y="156" on="1"/>
        <pt x="80" y="230" on="0"/>
        <pt x="176" y="324" on="0"/>
        <pt x="250" y="324" on="1"/>
      </contour>
    </TTGlyph>
    <TTGlyph name="copyright" xMin="49" yMin="18" xMax="1436" yMax="1411">
      <contour>
        <pt x="934" y="1411" on="0"/>
        <pt x="1251" y="1225" on="0"/>
        <pt x="1436" y="905" on="0"/>
        <pt x="1436" y="717" on="1"/>
        <pt x="1436" y="531" on="0"/>
        <pt x="1251" y="209" on="0"/>
        <pt x="932" y="18" on="0"/>
        <pt x="739" y="18" on="1"/>
        <pt x="549" y="18" on="0"/>
        <pt x="231" y="207" on="0"/>
        <pt x="49" y="526" on="0"/>
        <pt x="49" y="713" on="1"/>
        <pt x="49" y="899" on="0"/>
        <pt x="233" y="1221" on="0"/>
        <pt x="551" y="1411" on="0"/>
        <pt x="743" y="1411" on="1"/>
      </contour>
      <contour>
        <pt x="596" y="1247" on="0"/>
        <pt x="352" y="1102" on="0"/>
        <pt x="213" y="856" on="0"/>
        <pt x="213" y="713" on="1"/>
        <pt x="213" y="570" on="0"/>
        <pt x="352" y="326" on="0"/>
        <pt x="592" y="182" on="0"/>
        <pt x="739" y="182" on="1"/>
        <pt x="886" y="182" on="0"/>
        <pt x="1133" y="328" on="0"/>
        <pt x="1274" y="573" on="0"/>
        <pt x="1274" y="717" on="1"/>
        <pt x="1274" y="860" on="0"/>
        <pt x="1133" y="1104" on="0"/>
        <pt x="891" y="1247" on="0"/>
        <pt x="743" y="1247" on="1"/>
      </contour>
      <contour>
        <pt x="829" y="1055" on="0"/>
        <pt x="975" y="993" on="0"/>
        <pt x="1026" y="942" on="1"/>
        <pt x="928" y="825" on="1"/>
        <pt x="893" y="866" on="0"/>
        <pt x="805" y="911" on="0"/>
        <pt x="760" y="911" on="1"/>
        <pt x="678" y="911" on="0"/>
        <pt x="569" y="801" on="0"/>
        <pt x="569" y="719" on="1"/>
        <pt x="569" y="635" on="0"/>
        <pt x="678" y="520" on="0"/>
        <pt x="760" y="520" on="1"/>
        <pt x="801" y="520" on="0"/>
        <pt x="893" y="563" on="0"/>
        <pt x="928" y="598" on="1"/>
        <pt x="1026" y="494" on="1"/>
        <pt x="973" y="437" on="0"/>
        <pt x="825" y="371" on="0"/>
        <pt x="750" y="371" on="1"/>
        <pt x="652" y="371" on="0"/>
        <pt x="489" y="461" on="0"/>
        <pt x="397" y="618" on="0"/>
        <pt x="397" y="715" on="1"/>
        <pt x="397" y="811" on="0"/>
        <pt x="492" y="967" on="0"/>
        <pt x="655" y="1055" on="0"/>
        <pt x="756" y="1055" on="1"/>
      </contour>
    </TTGlyph>
    <TTGlyph name="currency" xMin="49" yMin="-18" xMax="1386" yMax="1319">
      <contour>
        <pt x="1254" y="510" on="0"/>
        <pt x="1178" y="389" on="1"/>
        <pt x="1386" y="180" on="1"/>
        <pt x="1188" y="-18" on="1"/>
        <pt x="977" y="195" on="1"/>
        <pt x="852" y="129" on="0"/>
        <pt x="717" y="129" on="1"/>
        <pt x="582" y="129" on="0"/>
        <pt x="461" y="195" on="1"/>
        <pt x="248" y="-18" on="1"/>
        <pt x="49" y="180" on="1"/>
        <pt x="258" y="389" on="1"/>
        <pt x="184" y="510" on="0"/>
        <pt x="184" y="657" on="1"/>
        <pt x="184" y="800" on="0"/>
        <pt x="254" y="918" on="1"/>
        <pt x="49" y="1120" on="1"/>
        <pt x="248" y="1319" on="1"/>
        <pt x="451" y="1116" on="1"/>
        <pt x="574" y="1188" on="0"/>
        <pt x="717" y="1188" on="1"/>
        <pt x="860" y="1188" on="0"/>
        <pt x="987" y="1116" on="1"/>
        <pt x="1188" y="1319" on="1"/>
        <pt x="1386" y="1120" on="1"/>
        <pt x="1184" y="918" on="1"/>
        <pt x="1254" y="801" on="0"/>
        <pt x="1253" y="657" on="1"/>
      </contour>
      <contour>
        <pt x="786" y="406" on="0"/>
        <pt x="907" y="473" on="0"/>
        <pt x="977" y="590" on="0"/>
        <pt x="977" y="657" on="1"/>
        <pt x="977" y="727" on="0"/>
        <pt x="907" y="844" on="0"/>
        <pt x="786" y="913" on="0"/>
        <pt x="717" y="913" on="1"/>
        <pt x="611" y="913" on="0"/>
        <pt x="461" y="764" on="0"/>
        <pt x="461" y="657" on="1"/>
        <pt x="461" y="553" on="0"/>
        <pt x="610" y="406" on="0"/>
        <pt x="717" y="406" on="1"/>
      </contour>
    </TTGlyph>
    <TTGlyph name="d" xMin="51" yMin="-15" xMax="1253" yMax="1520">
      <contour>
        <pt x="1253" y="0" on="1"/>
        <pt x="899" y="0" on="1"/>
        <pt x="899" y="145" on="1"/>
        <pt x="778" y="-15" on="0"/>
        <pt x="567" y="-14" on="1"/>
        <pt x="413" y="-14" on="0"/>
        <pt x="180" y="129" on="0"/>
        <pt x="51" y="387" on="0"/>
        <pt x="51" y="557" on="1"/>
        <pt x="51" y="725" on="0"/>
        <pt x="178" y="979" on="0"/>
        <pt x="408" y="1118" on="0"/>
        <pt x="559" y="1118" on="1"/>
        <pt x="668" y="1118" on="0"/>
        <pt x="840" y="1036" on="0"/>
        <pt x="899" y="958" on="1"/>
        <pt x="899" y="1520" on="1"/>
        <pt x="1253" y="1520" on="1"/>
      </contour>
      <contour>
        <pt x="764" y="260" on="0"/>
        <pt x="899" y="420" on="0"/>
        <pt x="899" y="549" on="1"/>
        <pt x="899" y="676" on="0"/>
        <pt x="764" y="836" on="0"/>
        <pt x="653" y="836" on="1"/>
        <pt x="542" y="836" on="0"/>
        <pt x="408" y="678" on="0"/>
        <pt x="406" y="549" on="1"/>
        <pt x="408" y="420" on="0"/>
        <pt x="543" y="260" on="0"/>
        <pt x="653" y="260" on="1"/>
      </contour>
    </TTGlyph>
    <TTGlyph name="dagger" xMin="37" yMin="-383" xMax="1139" yMax="1432">
      <contour>
        <pt x="1139" y="1012" on="1"/>
        <pt x="1139" y="725" on="1"/>
        <pt x="756" y="725" on="1"/>
        <pt x="756" y="-383" on="1"/>
        <pt x="408" y="-383" on="1"/>
        <pt x="408" y="725" on="1"/>
        <pt x="37" y="725" on="1"/>
        <pt x="37" y="1012" on="1"/>
        <pt x="408" y="1012" on="1"/>
        <pt x="408" y="1432" on="1"/>
        <pt x="756" y="1432" on="1"/>
        <pt x="756" y="1012" on="1"/>
      </contour>
    </TTGlyph>
    <TTGlyph name="daggerdbl" xMin="37" yMin="-383" xMax="1139" yMax="1432">
      <contour>
        <pt x="756" y="350" on="1"/>
        <pt x="1139" y="350" on="1"/>
        <pt x="1139" y="63" on="1"/>
        <pt x="756" y="63" on="1"/>
        <pt x="756" y="-383" on="1"/>
        <pt x="408" y="-383" on="1"/>
        <pt x="408" y="63" on="1"/>
        <pt x="37" y="63" on="1"/>
        <pt x="37" y="350" on="1"/>
        <pt x="408" y="350" on="1"/>
        <pt x="408" y="725" on="1"/>
        <pt x="37" y="725" on="1"/>
        <pt x="37" y="1012" on="1"/>
        <pt x="408" y="1012" on="1"/>
        <pt x="408" y="1432" on="1"/>
        <pt x="756" y="1432" on="1"/>
        <pt x="756" y="1012" on="1"/>
        <pt x="1139" y="1012" on="1"/>
        <pt x="1139" y="725" on="1"/>
        <pt x="756" y="725" on="1"/>
      </contour>
    </TTGlyph>
    <TTGlyph name="dcaron" xMin="51" yMin="-15" xMax="1694" yMax="1520">
      <contour>
        <pt x="1253" y="1520" on="1"/>
        <pt x="1253" y="0" on="1"/>
        <pt x="899" y="0" on="1"/>
        <pt x="899" y="145" on="1"/>
        <pt x="778" y="-15" on="0"/>
        <pt x="567" y="-14" on="1"/>
        <pt x="413" y="-14" on="0"/>
        <pt x="180" y="129" on="0"/>
        <pt x="51" y="387" on="0"/>
        <pt x="51" y="557" on="1"/>
        <pt x="51" y="725" on="0"/>
        <pt x="178" y="979" on="0"/>
        <pt x="408" y="1118" on="0"/>
        <pt x="559" y="1118" on="1"/>
        <pt x="668" y="1118" on="0"/>
        <pt x="840" y="1036" on="0"/>
        <pt x="899" y="958" on="1"/>
        <pt x="899" y="1520" on="1"/>
      </contour>
      <contour>
        <pt x="1597" y="1386" on="0"/>
        <pt x="1694" y="1296" on="0"/>
        <pt x="1694" y="1219" on="1"/>
        <pt x="1694" y="1149" on="0"/>
        <pt x="1649" y="1083" on="1"/>
        <pt x="1499" y="866" on="1"/>
        <pt x="1331" y="866" on="1"/>
        <pt x="1421" y="1085" on="1"/>
        <pt x="1388" y="1108" on="0"/>
        <pt x="1356" y="1176" on="0"/>
        <pt x="1356" y="1217" on="1"/>
        <pt x="1356" y="1293" on="0"/>
        <pt x="1452" y="1386" on="0"/>
        <pt x="1526" y="1386" on="1"/>
      </contour>
      <contour>
        <pt x="764" y="260" on="0"/>
        <pt x="899" y="420" on="0"/>
        <pt x="899" y="549" on="1"/>
        <pt x="899" y="676" on="0"/>
        <pt x="764" y="836" on="0"/>
        <pt x="653" y="836" on="1"/>
        <pt x="542" y="836" on="0"/>
        <pt x="408" y="678" on="0"/>
        <pt x="406" y="549" on="1"/>
        <pt x="408" y="420" on="0"/>
        <pt x="543" y="260" on="0"/>
        <pt x="653" y="260" on="1"/>
      </contour>
    </TTGlyph>
    <TTGlyph name="dcroat" xMin="51" yMin="-15" xMax="1386" yMax="1520">
      <contour>
        <pt x="1253" y="1219" on="1"/>
        <pt x="1253" y="0" on="1"/>
        <pt x="899" y="0" on="1"/>
        <pt x="899" y="145" on="1"/>
        <pt x="778" y="-15" on="0"/>
        <pt x="567" y="-14" on="1"/>
        <pt x="413" y="-14" on="0"/>
        <pt x="180" y="129" on="0"/>
        <pt x="51" y="387" on="0"/>
        <pt x="51" y="557" on="1"/>
        <pt x="51" y="725" on="0"/>
        <pt x="178" y="979" on="0"/>
        <pt x="408" y="1118" on="0"/>
        <pt x="559" y="1118" on="1"/>
        <pt x="668" y="1118" on="0"/>
        <pt x="840" y="1036" on="0"/>
        <pt x="899" y="958" on="1"/>
        <pt x="899" y="1219" on="1"/>
        <pt x="725" y="1219" on="1"/>
        <pt x="725" y="1401" on="1"/>
        <pt x="899" y="1401" on="1"/>
        <pt x="899" y="1520" on="1"/>
        <pt x="1253" y="1520" on="1"/>
        <pt x="1253" y="1401" on="1"/>
        <pt x="1386" y="1401" on="1"/>
        <pt x="1386" y="1219" on="1"/>
      </contour>
      <contour>
        <pt x="764" y="260" on="0"/>
        <pt x="899" y="420" on="0"/>
        <pt x="899" y="549" on="1"/>
        <pt x="899" y="676" on="0"/>
        <pt x="764" y="836" on="0"/>
        <pt x="653" y="836" on="1"/>
        <pt x="542" y="836" on="0"/>
        <pt x="408" y="678" on="0"/>
        <pt x="406" y="549" on="1"/>
        <pt x="408" y="420" on="0"/>
        <pt x="543" y="260" on="0"/>
        <pt x="653" y="260" on="1"/>
      </contour>
    </TTGlyph>
    <TTGlyph name="degree" xMin="170" yMin="1190" xMax="657" yMax="1673">
      <contour>
        <pt x="514" y="1673" on="0"/>
        <pt x="657" y="1532" on="0"/>
        <pt x="657" y="1432" on="1"/>
        <pt x="657" y="1332" on="0"/>
        <pt x="514" y="1190" on="0"/>
        <pt x="414" y="1190" on="1"/>
        <pt x="314" y="1190" on="0"/>
        <pt x="170" y="1331" on="0"/>
        <pt x="170" y="1432" on="1"/>
        <pt x="170" y="1532" on="0"/>
        <pt x="313" y="1673" on="0"/>
        <pt x="414" y="1673" on="1"/>
      </contour>
      <contour>
        <pt x="371" y="1536" on="0"/>
        <pt x="307" y="1475" on="0"/>
        <pt x="307" y="1432" on="1"/>
        <pt x="307" y="1389" on="0"/>
        <pt x="371" y="1327" on="0"/>
        <pt x="414" y="1327" on="1"/>
        <pt x="459" y="1327" on="0"/>
        <pt x="520" y="1389" on="0"/>
        <pt x="520" y="1432" on="1"/>
        <pt x="520" y="1475" on="0"/>
        <pt x="459" y="1536" on="0"/>
        <pt x="414" y="1536" on="1"/>
      </contour>
    </TTGlyph>
    <TTGlyph name="dieresis" xMin="24" yMin="1225" xMax="679" yMax="1546">
      <component glyphName="dotaccent" x="214" y="176" scale="0.851379394531" flags="0x1000"/>
      <component glyphName="dotaccent" x="-122" y="176" scale="0.851379394531" flags="0x1000"/>
    </TTGlyph>
    <TTGlyph name="divide" xMin="68" yMin="145" xMax="977" yMax="1196">
      <contour>
        <pt x="578" y="1196" on="0"/>
        <pt x="666" y="1108" on="0"/>
        <pt x="666" y="1036" on="1"/>
        <pt x="666" y="966" on="0"/>
        <pt x="575" y="879" on="0"/>
        <pt x="506" y="879" on="1"/>
        <pt x="436" y="879" on="0"/>
        <pt x="346" y="967" on="0"/>
        <pt x="346" y="1036" on="1"/>
        <pt x="346" y="1106" on="0"/>
        <pt x="436" y="1196" on="0"/>
        <pt x="506" y="1196" on="1"/>
      </contour>
      <contour>
        <pt x="68" y="557" on="1"/>
        <pt x="68" y="780" on="1"/>
        <pt x="977" y="780" on="1"/>
        <pt x="977" y="557" on="1"/>
      </contour>
      <contour>
        <pt x="575" y="465" on="0"/>
        <pt x="666" y="375" on="0"/>
        <pt x="666" y="305" on="1"/>
        <pt x="666" y="235" on="0"/>
        <pt x="575" y="145" on="0"/>
        <pt x="506" y="145" on="1"/>
        <pt x="436" y="145" on="0"/>
        <pt x="346" y="236" on="0"/>
        <pt x="346" y="305" on="1"/>
        <pt x="346" y="375" on="0"/>
        <pt x="436" y="465" on="0"/>
        <pt x="506" y="465" on="1"/>
      </contour>
    </TTGlyph>
    <TTGlyph name="divisionslash" xMin="-74" yMin="-227" xMax="885" yMax="1661">
      <component glyphName="slash" x="0" y="0" flags="0x1000"/>
    </TTGlyph>
    <TTGlyph name="dollar" xMin="35" yMin="-315" xMax="1264" yMax="1739">
      <contour>
        <pt x="1264" y="242" on="0"/>
        <pt x="1006" y="18" on="0"/>
        <pt x="797" y="-6" on="1"/>
        <pt x="797" y="-315" on="1"/>
        <pt x="526" y="-315" on="1"/>
        <pt x="526" y="2" on="1"/>
        <pt x="389" y="22" on="0"/>
        <pt x="133" y="135" on="0"/>
        <pt x="35" y="217" on="1"/>
        <pt x="176" y="498" on="1"/>
        <pt x="285" y="404" on="0"/>
        <pt x="580" y="283" on="0"/>
        <pt x="694" y="283" on="1"/>
        <pt x="782" y="283" on="0"/>
        <pt x="881" y="346" on="0"/>
        <pt x="881" y="408" on="1"/>
        <pt x="881" y="478" on="0"/>
        <pt x="743" y="551" on="0"/>
        <pt x="598" y="590" on="1"/>
        <pt x="451" y="631" on="0"/>
        <pt x="260" y="713" on="0"/>
        <pt x="123" y="881" on="0"/>
        <pt x="123" y="1018" on="1"/>
        <pt x="123" y="1180" on="0"/>
        <pt x="338" y="1401" on="0"/>
        <pt x="526" y="1436" on="1"/>
        <pt x="526" y="1739" on="1"/>
        <pt x="797" y="1739" on="1"/>
        <pt x="797" y="1446" on="1"/>
        <pt x="926" y="1432" on="0"/>
        <pt x="1167" y="1350" on="0"/>
        <pt x="1260" y="1290" on="1"/>
        <pt x="1122" y="1006" on="1"/>
        <pt x="1009" y="1072" on="0"/>
        <pt x="752" y="1155" on="0"/>
        <pt x="664" y="1155" on="1"/>
        <pt x="592" y="1155" on="0"/>
        <pt x="506" y="1102" on="0"/>
        <pt x="506" y="1051" on="1"/>
        <pt x="506" y="983" on="0"/>
        <pt x="639" y="911" on="0"/>
        <pt x="782" y="870" on="1"/>
        <pt x="932" y="827" on="0"/>
        <pt x="1124" y="741" on="0"/>
        <pt x="1264" y="569" on="0"/>
        <pt x="1264" y="426" on="1"/>
      </contour>
    </TTGlyph>
    <TTGlyph name="dotaccent" xMin="172" yMin="1233" xMax="545" yMax="1608">
      <contour>
        <pt x="440" y="1608" on="0"/>
        <pt x="545" y="1503" on="0"/>
        <pt x="545" y="1421" on="1"/>
        <pt x="545" y="1339" on="0"/>
        <pt x="440" y="1233" on="0"/>
        <pt x="358" y="1233" on="1"/>
        <pt x="276" y="1233" on="0"/>
        <pt x="172" y="1339" on="0"/>
        <pt x="172" y="1421" on="1"/>
        <pt x="172" y="1503" on="0"/>
        <pt x="276" y="1608" on="0"/>
        <pt x="358" y="1608" on="1"/>
      </contour>
    </TTGlyph>
    <TTGlyph name="dotlessi" xMin="141" yMin="0" xMax="494" yMax="1104">
      <contour>
        <pt x="141" y="0" on="1"/>
        <pt x="141" y="1104" on="1"/>
        <pt x="494" y="1104" on="1"/>
        <pt x="494" y="0" on="1"/>
      </contour>
    </TTGlyph>
    <TTGlyph name="dotlessj" xMin="-184" yMin="-412" xMax="500" yMax="1104">
      <contour>
        <pt x="500" y="-213" on="0"/>
        <pt x="293" y="-412" on="0"/>
        <pt x="115" y="-412" on="1"/>
        <pt x="-51" y="-412" on="0"/>
        <pt x="-184" y="-340" on="1"/>
        <pt x="-102" y="-96" on="1"/>
        <pt x="-30" y="-135" on="0"/>
        <pt x="33" y="-135" on="1"/>
        <pt x="146" y="-135" on="0"/>
        <pt x="145" y="10" on="1"/>
        <pt x="145" y="1104" on="1"/>
        <pt x="500" y="1104" on="1"/>
        <pt x="500" y="-41" on="1"/>
      </contour>
    </TTGlyph>
    <TTGlyph name="e" xMin="49" yMin="-12" xMax="1184" yMax="1116">
      <contour>
        <pt x="895" y="1116" on="0"/>
        <pt x="1184" y="803" on="0"/>
        <pt x="1184" y="524" on="1"/>
        <pt x="1184" y="479" on="0"/>
        <pt x="1182" y="457" on="1"/>
        <pt x="406" y="457" on="1"/>
        <pt x="433" y="359" on="0"/>
        <pt x="567" y="252" on="0"/>
        <pt x="666" y="252" on="1"/>
        <pt x="740" y="252" on="0"/>
        <pt x="874" y="309" on="0"/>
        <pt x="930" y="365" on="1"/>
        <pt x="1116" y="182" on="1"/>
        <pt x="1030" y="88" on="0"/>
        <pt x="784" y="-12" on="0"/>
        <pt x="635" y="-12" on="1"/>
        <pt x="457" y="-12" on="0"/>
        <pt x="193" y="127" on="0"/>
        <pt x="49" y="381" on="0"/>
        <pt x="49" y="549" on="1"/>
        <pt x="49" y="717" on="0"/>
        <pt x="195" y="975" on="0"/>
        <pt x="455" y="1116" on="0"/>
        <pt x="625" y="1116" on="1"/>
      </contour>
      <contour>
        <pt x="842" y="748" on="0"/>
        <pt x="725" y="870" on="0"/>
        <pt x="629" y="870" on="1"/>
        <pt x="539" y="870" on="0"/>
        <pt x="416" y="750" on="0"/>
        <pt x="399" y="647" on="1"/>
        <pt x="842" y="647" on="1"/>
      </contour>
    </TTGlyph>
    <TTGlyph name="eacute" xMin="49" yMin="-12" xMax="1184" yMax="1573">
      <component glyphName="e" x="0" y="0" flags="0x1000"/>
      <component glyphName="acute" x="348" y="0" flags="0x1000"/>
    </TTGlyph>
    <TTGlyph name="ecaron" xMin="49" yMin="-12" xMax="1184" yMax="1557">
      <component glyphName="e" x="0" y="0" flags="0x1000"/>
      <component glyphName="caron" x="248" y="-4" flags="0x1000"/>
    </TTGlyph>
    <TTGlyph name="ecircumflex" xMin="49" yMin="-12" xMax="1184" yMax="1557">
      <component glyphName="e" x="0" y="0" flags="0x1000"/>
      <component glyphName="circumflex" x="258" y="-4" flags="0x1000"/>
    </TTGlyph>
    <TTGlyph name="edieresis" xMin="49" yMin="-12" xMax="1184" yMax="1575">
      <contour>
        <pt x="350" y="1257" on="0"/>
        <pt x="260" y="1346" on="0"/>
        <pt x="260" y="1415" on="1"/>
        <pt x="260" y="1485" on="0"/>
        <pt x="350" y="1575" on="0"/>
        <pt x="420" y="1575" on="1"/>
        <pt x="490" y="1575" on="0"/>
        <pt x="580" y="1485" on="0"/>
        <pt x="580" y="1415" on="1"/>
        <pt x="580" y="1345" on="0"/>
        <pt x="489" y="1257" on="0"/>
        <pt x="420" y="1257" on="1"/>
      </contour>
      <contour>
        <pt x="745" y="1257" on="0"/>
        <pt x="655" y="1346" on="0"/>
        <pt x="655" y="1415" on="1"/>
        <pt x="655" y="1485" on="0"/>
        <pt x="745" y="1575" on="0"/>
        <pt x="815" y="1575" on="1"/>
        <pt x="885" y="1575" on="0"/>
        <pt x="975" y="1485" on="0"/>
        <pt x="975" y="1415" on="1"/>
        <pt x="975" y="1345" on="0"/>
        <pt x="885" y="1257" on="0"/>
        <pt x="815" y="1257" on="1"/>
      </contour>
      <contour>
        <pt x="895" y="1116" on="0"/>
        <pt x="1184" y="803" on="0"/>
        <pt x="1184" y="524" on="1"/>
        <pt x="1184" y="479" on="0"/>
        <pt x="1182" y="457" on="1"/>
        <pt x="406" y="457" on="1"/>
        <pt x="433" y="359" on="0"/>
        <pt x="567" y="252" on="0"/>
        <pt x="666" y="252" on="1"/>
        <pt x="740" y="252" on="0"/>
        <pt x="874" y="309" on="0"/>
        <pt x="930" y="365" on="1"/>
        <pt x="1116" y="182" on="1"/>
        <pt x="1030" y="88" on="0"/>
        <pt x="784" y="-12" on="0"/>
        <pt x="635" y="-12" on="1"/>
        <pt x="457" y="-12" on="0"/>
        <pt x="193" y="127" on="0"/>
        <pt x="49" y="381" on="0"/>
        <pt x="49" y="549" on="1"/>
        <pt x="49" y="717" on="0"/>
        <pt x="195" y="975" on="0"/>
        <pt x="455" y="1116" on="0"/>
        <pt x="625" y="1116" on="1"/>
      </contour>
      <contour>
        <pt x="842" y="748" on="0"/>
        <pt x="725" y="870" on="0"/>
        <pt x="629" y="870" on="1"/>
        <pt x="539" y="870" on="0"/>
        <pt x="416" y="750" on="0"/>
        <pt x="399" y="647" on="1"/>
        <pt x="842" y="647" on="1"/>
      </contour>
    </TTGlyph>
    <TTGlyph name="edotaccent" xMin="49" yMin="-12" xMax="1184" yMax="1608">
      <component glyphName="e" x="0" y="0" flags="0x1000"/>
      <component glyphName="dotaccent" x="258" y="0" flags="0x1000"/>
    </TTGlyph>
    <TTGlyph name="egrave" xMin="49" yMin="-12" xMax="1184" yMax="1573">
      <component glyphName="e" x="0" y="0" flags="0x1000"/>
      <component glyphName="grave" x="176" y="0" flags="0x1000"/>
    </TTGlyph>
    <TTGlyph name="eight" xMin="70" yMin="-16" xMax="1245" yMax="1450">
      <contour>
        <pt x="891" y="1450" on="0"/>
        <pt x="1169" y="1241" on="0"/>
        <pt x="1169" y="1065" on="1"/>
        <pt x="1169" y="971" on="0"/>
        <pt x="1073" y="815" on="0"/>
        <pt x="989" y="768" on="1"/>
        <pt x="1108" y="719" on="0"/>
        <pt x="1245" y="524" on="0"/>
        <pt x="1245" y="406" on="1"/>
        <pt x="1245" y="279" on="0"/>
        <pt x="1102" y="86" on="0"/>
        <pt x="836" y="-16" on="0"/>
        <pt x="657" y="-16" on="1"/>
        <pt x="479" y="-16" on="0"/>
        <pt x="213" y="86" on="0"/>
        <pt x="70" y="274" on="0"/>
        <pt x="70" y="399" on="1"/>
        <pt x="70" y="522" on="0"/>
        <pt x="217" y="719" on="0"/>
        <pt x="342" y="768" on="1"/>
        <pt x="250" y="819" on="0"/>
        <pt x="143" y="983" on="0"/>
        <pt x="143" y="1075" on="1"/>
        <pt x="143" y="1188" on="0"/>
        <pt x="270" y="1358" on="0"/>
        <pt x="502" y="1450" on="0"/>
        <pt x="655" y="1450" on="1"/>
      </contour>
      <contour>
        <pt x="557" y="1210" on="0"/>
        <pt x="451" y="1124" on="0"/>
        <pt x="451" y="1044" on="1"/>
        <pt x="451" y="966" on="0"/>
        <pt x="557" y="885" on="0"/>
        <pt x="657" y="885" on="1"/>
        <pt x="757" y="885" on="0"/>
        <pt x="864" y="967" on="0"/>
        <pt x="864" y="1044" on="1"/>
        <pt x="864" y="1124" on="0"/>
        <pt x="758" y="1210" on="0"/>
        <pt x="657" y="1210" on="1"/>
      </contour>
      <contour>
        <pt x="539" y="623" on="0"/>
        <pt x="414" y="526" on="0"/>
        <pt x="414" y="436" on="1"/>
        <pt x="414" y="346" on="0"/>
        <pt x="539" y="248" on="0"/>
        <pt x="657" y="248" on="1"/>
        <pt x="776" y="248" on="0"/>
        <pt x="903" y="344" on="0"/>
        <pt x="903" y="436" on="1"/>
        <pt x="903" y="526" on="0"/>
        <pt x="776" y="623" on="0"/>
        <pt x="657" y="623" on="1"/>
      </contour>
    </TTGlyph>
    <TTGlyph name="eight.dnom" xMin="53" yMin="-10" xMax="799" yMax="864">
      <contour>
        <pt x="573" y="864" on="0"/>
        <pt x="752" y="737" on="0"/>
        <pt x="752" y="631" on="1"/>
        <pt x="752" y="580" on="0"/>
        <pt x="694" y="485" on="0"/>
        <pt x="645" y="457" on="1"/>
        <pt x="715" y="428" on="0"/>
        <pt x="799" y="311" on="0"/>
        <pt x="799" y="242" on="1"/>
        <pt x="799" y="125" on="0"/>
        <pt x="598" y="-10" on="0"/>
        <pt x="426" y="-10" on="1"/>
        <pt x="256" y="-10" on="0"/>
        <pt x="53" y="125" on="0"/>
        <pt x="53" y="238" on="1"/>
        <pt x="53" y="310" on="0"/>
        <pt x="143" y="428" on="0"/>
        <pt x="219" y="457" on="1"/>
        <pt x="166" y="488" on="0"/>
        <pt x="100" y="586" on="0"/>
        <pt x="100" y="639" on="1"/>
        <pt x="100" y="741" on="0"/>
        <pt x="276" y="864" on="0"/>
        <pt x="424" y="864" on="1"/>
      </contour>
      <contour>
        <pt x="369" y="707" on="0"/>
        <pt x="309" y="662" on="0"/>
        <pt x="309" y="618" on="1"/>
        <pt x="309" y="577" on="0"/>
        <pt x="369" y="532" on="0"/>
        <pt x="426" y="532" on="1"/>
        <pt x="483" y="532" on="0"/>
        <pt x="543" y="578" on="0"/>
        <pt x="543" y="618" on="1"/>
        <pt x="543" y="661" on="0"/>
        <pt x="483" y="707" on="0"/>
        <pt x="426" y="707" on="1"/>
      </contour>
      <contour>
        <pt x="360" y="360" on="0"/>
        <pt x="289" y="309" on="0"/>
        <pt x="289" y="262" on="1"/>
        <pt x="289" y="164" on="0"/>
        <pt x="426" y="164" on="1"/>
        <pt x="563" y="164" on="0"/>
        <pt x="563" y="262" on="1"/>
        <pt x="563" y="309" on="0"/>
        <pt x="492" y="360" on="0"/>
        <pt x="426" y="360" on="1"/>
      </contour>
    </TTGlyph>
    <TTGlyph name="eight.numr" xMin="53" yMin="569" xMax="799" yMax="1444">
      <contour>
        <pt x="575" y="1444" on="0"/>
        <pt x="752" y="1317" on="0"/>
        <pt x="752" y="1210" on="1"/>
        <pt x="752" y="1159" on="0"/>
        <pt x="694" y="1065" on="0"/>
        <pt x="645" y="1036" on="1"/>
        <pt x="717" y="1007" on="0"/>
        <pt x="799" y="893" on="0"/>
        <pt x="799" y="823" on="1"/>
        <pt x="799" y="706" on="0"/>
        <pt x="596" y="569" on="0"/>
        <pt x="426" y="569" on="1"/>
        <pt x="256" y="569" on="0"/>
        <pt x="53" y="705" on="0"/>
        <pt x="53" y="817" on="1"/>
        <pt x="53" y="889" on="0"/>
        <pt x="143" y="1008" on="0"/>
        <pt x="219" y="1036" on="1"/>
        <pt x="166" y="1067" on="0"/>
        <pt x="100" y="1165" on="0"/>
        <pt x="100" y="1219" on="1"/>
        <pt x="100" y="1321" on="0"/>
        <pt x="276" y="1444" on="0"/>
        <pt x="424" y="1444" on="1"/>
      </contour>
      <contour>
        <pt x="369" y="1286" on="0"/>
        <pt x="309" y="1241" on="0"/>
        <pt x="309" y="1198" on="1"/>
        <pt x="309" y="1114" on="0"/>
        <pt x="426" y="1114" on="1"/>
        <pt x="543" y="1114" on="0"/>
        <pt x="543" y="1198" on="1"/>
        <pt x="543" y="1241" on="0"/>
        <pt x="483" y="1286" on="0"/>
        <pt x="426" y="1286" on="1"/>
      </contour>
      <contour>
        <pt x="360" y="942" on="0"/>
        <pt x="289" y="891" on="0"/>
        <pt x="289" y="844" on="1"/>
        <pt x="289" y="795" on="0"/>
        <pt x="360" y="743" on="0"/>
        <pt x="426" y="743" on="1"/>
        <pt x="563" y="743" on="0"/>
        <pt x="563" y="842" on="1"/>
        <pt x="563" y="889" on="0"/>
        <pt x="492" y="942" on="0"/>
        <pt x="426" y="942" on="1"/>
      </contour>
    </TTGlyph>
    <TTGlyph name="ellipsis" xMin="78" yMin="-16" xMax="1294" yMax="319">
      <component glyphName="period" x="2" y="0" scale="0.978088378906" flags="0x1000"/>
      <component glyphName="period" x="443" y="0" scale="0.978088378906" flags="0x1000"/>
      <component glyphName="period" x="883" y="0" scale="0.978088378906" flags="0x1000"/>
    </TTGlyph>
    <TTGlyph name="emacron" xMin="49" yMin="-12" xMax="1184" yMax="1532">
      <component glyphName="e" x="0" y="0" flags="0x1000"/>
      <component glyphName="macron" x="258" y="0" flags="0x1000"/>
    </TTGlyph>
    <TTGlyph name="emdash" xMin="0" yMin="444" xMax="1327" yMax="668">
      <contour>
        <pt x="0" y="444" on="1"/>
        <pt x="0" y="668" on="1"/>
        <pt x="1327" y="668" on="1"/>
        <pt x="1327" y="444" on="1"/>
      </contour>
    </TTGlyph>
    <TTGlyph name="endash" xMin="0" yMin="444" xMax="834" yMax="668">
      <contour>
        <pt x="0" y="444" on="1"/>
        <pt x="0" y="668" on="1"/>
        <pt x="834" y="668" on="1"/>
        <pt x="834" y="444" on="1"/>
      </contour>
    </TTGlyph>
    <TTGlyph name="eogonek" xMin="51" yMin="-416" xMax="1184" yMax="1116">
      <contour>
        <pt x="657" y="1116" on="0"/>
        <pt x="782" y="1116" on="0"/>
        <pt x="635" y="1116" on="1"/>
        <pt x="895" y="1116" on="0"/>
        <pt x="1184" y="801" on="0"/>
        <pt x="1184" y="526" on="1"/>
        <pt x="1184" y="481" on="0"/>
        <pt x="1182" y="457" on="1"/>
        <pt x="408" y="457" on="1"/>
        <pt x="435" y="359" on="0"/>
        <pt x="567" y="250" on="0"/>
        <pt x="666" y="250" on="1"/>
        <pt x="738" y="250" on="0"/>
        <pt x="874" y="309" on="0"/>
        <pt x="930" y="365" on="1"/>
        <pt x="1116" y="182" on="1"/>
        <pt x="893" y="-74" on="0"/>
        <pt x="893" y="-186" on="1"/>
        <pt x="893" y="-237" on="0"/>
        <pt x="936" y="-238" on="1"/>
        <pt x="979" y="-238" on="0"/>
        <pt x="1022" y="-174" on="1"/>
        <pt x="1112" y="-279" on="1"/>
        <pt x="1073" y="-345" on="0"/>
        <pt x="963" y="-416" on="0"/>
        <pt x="893" y="-416" on="1"/>
        <pt x="821" y="-416" on="0"/>
        <pt x="713" y="-332" on="0"/>
        <pt x="713" y="-244" on="1"/>
        <pt x="713" y="-123" on="0"/>
        <pt x="827" y="35" on="1"/>
        <pt x="735" y="-12" on="0"/>
        <pt x="631" y="-12" on="1"/>
        <pt x="455" y="-12" on="0"/>
        <pt x="193" y="127" on="0"/>
        <pt x="51" y="383" on="0"/>
        <pt x="51" y="551" on="1"/>
        <pt x="51" y="653" on="0"/>
        <pt x="168" y="829" on="0"/>
        <pt x="272" y="942" on="1"/>
        <pt x="317" y="989" on="0"/>
        <pt x="362" y="1047" on="0"/>
        <pt x="362" y="1063" on="1"/>
        <pt x="362" y="1092" on="0"/>
        <pt x="291" y="1092" on="1"/>
        <pt x="264" y="1092" on="0"/>
        <pt x="573" y="1114" on="1"/>
      </contour>
      <contour>
        <pt x="539" y="870" on="0"/>
        <pt x="414" y="748" on="0"/>
        <pt x="399" y="647" on="1"/>
        <pt x="842" y="647" on="1"/>
        <pt x="842" y="745" on="0"/>
        <pt x="725" y="870" on="0"/>
        <pt x="631" y="870" on="1"/>
      </contour>
    </TTGlyph>
    <TTGlyph name="equal" xMin="68" yMin="338" xMax="977" yMax="1001">
      <contour>
        <pt x="68" y="778" on="1"/>
        <pt x="68" y="1001" on="1"/>
        <pt x="977" y="1001" on="1"/>
        <pt x="977" y="778" on="1"/>
      </contour>
      <contour>
        <pt x="68" y="338" on="1"/>
        <pt x="68" y="561" on="1"/>
        <pt x="977" y="561" on="1"/>
        <pt x="977" y="338" on="1"/>
      </contour>
    </TTGlyph>
    <TTGlyph name="estimated" xMin="143" yMin="37" xMax="1516" yMax="1272">
      <contour>
        <pt x="393" y="639" on="0"/>
        <pt x="393" y="631" on="1"/>
        <pt x="393" y="295" on="1"/>
        <pt x="393" y="277" on="0"/>
        <pt x="410" y="256" on="1"/>
        <pt x="490" y="170" on="0"/>
        <pt x="709" y="74" on="0"/>
        <pt x="831" y="74" on="1"/>
        <pt x="960" y="74" on="0"/>
        <pt x="1192" y="182" on="0"/>
        <pt x="1272" y="276" on="1"/>
        <pt x="1372" y="276" on="1"/>
        <pt x="1278" y="165" on="0"/>
        <pt x="991" y="37" on="0"/>
        <pt x="829" y="37" on="1"/>
        <pt x="643" y="37" on="0"/>
        <pt x="328" y="203" on="0"/>
        <pt x="143" y="485" on="0"/>
        <pt x="143" y="653" on="1"/>
        <pt x="143" y="821" on="0"/>
        <pt x="328" y="1106" on="0"/>
        <pt x="643" y="1272" on="0"/>
        <pt x="829" y="1272" on="1"/>
        <pt x="1015" y="1272" on="0"/>
        <pt x="1331" y="1106" on="0"/>
        <pt x="1516" y="821" on="0"/>
        <pt x="1516" y="653" on="1"/>
        <pt x="1516" y="639" on="1"/>
        <pt x="403" y="639" on="1"/>
      </contour>
      <contour>
        <pt x="1265" y="1043" on="0"/>
        <pt x="1247" y="1061" on="1"/>
        <pt x="1165" y="1143" on="0"/>
        <pt x="950" y="1235" on="0"/>
        <pt x="831" y="1235" on="1"/>
        <pt x="710" y="1235" on="0"/>
        <pt x="494" y="1139" on="0"/>
        <pt x="412" y="1055" on="1"/>
        <pt x="394" y="1037" on="0"/>
        <pt x="393" y="1014" on="1"/>
        <pt x="393" y="682" on="1"/>
        <pt x="393" y="672" on="0"/>
        <pt x="403" y="672" on="1"/>
        <pt x="1255" y="672" on="1"/>
        <pt x="1265" y="672" on="0"/>
        <pt x="1266" y="682" on="1"/>
        <pt x="1266" y="1020" on="1"/>
      </contour>
    </TTGlyph>
    <TTGlyph name="eth" xMin="45" yMin="-16" xMax="1188" yMax="1534">
      <contour>
        <pt x="1051" y="1075" on="0"/>
        <pt x="1188" y="752" on="0"/>
        <pt x="1188" y="582" on="1"/>
        <pt x="1188" y="402" on="0"/>
        <pt x="1038" y="131" on="0"/>
        <pt x="762" y="-16" on="0"/>
        <pt x="580" y="-16" on="1"/>
        <pt x="420" y="-16" on="0"/>
        <pt x="178" y="102" on="0"/>
        <pt x="45" y="319" on="0"/>
        <pt x="45" y="463" on="1"/>
        <pt x="45" y="598" on="0"/>
        <pt x="160" y="801" on="0"/>
        <pt x="371" y="911" on="0"/>
        <pt x="510" y="911" on="1"/>
        <pt x="612" y="911" on="0"/>
        <pt x="791" y="846" on="0"/>
        <pt x="840" y="788" on="1"/>
        <pt x="785" y="952" on="0"/>
        <pt x="621" y="1110" on="1"/>
        <pt x="287" y="999" on="1"/>
        <pt x="233" y="1163" on="1"/>
        <pt x="465" y="1241" on="1"/>
        <pt x="342" y="1329" on="0"/>
        <pt x="209" y="1391" on="1"/>
        <pt x="446" y="1534" on="1"/>
        <pt x="634" y="1458" on="0"/>
        <pt x="778" y="1346" on="1"/>
        <pt x="1071" y="1444" on="1"/>
        <pt x="1126" y="1280" on="1"/>
        <pt x="926" y="1212" on="1"/>
      </contour>
      <contour>
        <pt x="694" y="276" on="0"/>
        <pt x="811" y="385" on="0"/>
        <pt x="811" y="475" on="1"/>
        <pt x="811" y="565" on="0"/>
        <pt x="694" y="676" on="0"/>
        <pt x="594" y="676" on="1"/>
        <pt x="498" y="676" on="0"/>
        <pt x="383" y="569" on="0"/>
        <pt x="383" y="479" on="1"/>
        <pt x="383" y="387" on="0"/>
        <pt x="498" y="276" on="0"/>
        <pt x="594" y="276" on="1"/>
      </contour>
    </TTGlyph>
    <TTGlyph name="exclam" xMin="98" yMin="-16" xMax="442" yMax="1425">
      <contour>
        <pt x="381" y="492" on="1"/>
        <pt x="168" y="492" on="1"/>
        <pt x="106" y="1061" on="1"/>
        <pt x="106" y="1425" on="1"/>
        <pt x="442" y="1425" on="1"/>
        <pt x="442" y="1061" on="1"/>
      </contour>
      <contour>
        <pt x="344" y="326" on="0"/>
        <pt x="440" y="231" on="0"/>
        <pt x="440" y="156" on="1"/>
        <pt x="440" y="80" on="0"/>
        <pt x="344" y="-16" on="0"/>
        <pt x="268" y="-16" on="1"/>
        <pt x="194" y="-16" on="0"/>
        <pt x="98" y="80" on="0"/>
        <pt x="98" y="156" on="1"/>
        <pt x="98" y="232" on="0"/>
        <pt x="195" y="326" on="0"/>
        <pt x="268" y="326" on="1"/>
      </contour>
    </TTGlyph>
    <TTGlyph name="exclamdown" xMin="105" yMin="-323" xMax="449" yMax="1118">
      <component glyphName="exclam" x="547" y="1102" scale="-1.0" flags="0x1000"/>
    </TTGlyph>
    <TTGlyph name="f" xMin="57" yMin="0" xMax="938" yMax="1536">
      <contour>
        <pt x="625" y="1255" on="0"/>
        <pt x="557" y="1192" on="0"/>
        <pt x="557" y="1135" on="1"/>
        <pt x="557" y="1055" on="1"/>
        <pt x="807" y="1055" on="1"/>
        <pt x="807" y="821" on="1"/>
        <pt x="557" y="821" on="1"/>
        <pt x="557" y="0" on="1"/>
        <pt x="207" y="0" on="1"/>
        <pt x="207" y="821" on="1"/>
        <pt x="57" y="821" on="1"/>
        <pt x="57" y="1055" on="1"/>
        <pt x="207" y="1055" on="1"/>
        <pt x="207" y="1157" on="1"/>
        <pt x="207" y="1335" on="0"/>
        <pt x="444" y="1536" on="0"/>
        <pt x="629" y="1536" on="1"/>
        <pt x="711" y="1536" on="0"/>
        <pt x="874" y="1495" on="0"/>
        <pt x="938" y="1458" on="1"/>
        <pt x="813" y="1210" on="1"/>
        <pt x="784" y="1233" on="0"/>
        <pt x="713" y="1255" on="0"/>
        <pt x="680" y="1255" on="1"/>
      </contour>
    </TTGlyph>
    <TTGlyph name="fi" xMin="57" yMin="0" xMax="1296" yMax="1608">
      <contour>
        <pt x="1028" y="1233" on="0"/>
        <pt x="924" y="1339" on="0"/>
        <pt x="924" y="1421" on="1"/>
        <pt x="924" y="1503" on="0"/>
        <pt x="1028" y="1608" on="0"/>
        <pt x="1110" y="1608" on="1"/>
        <pt x="1192" y="1608" on="0"/>
        <pt x="1296" y="1503" on="0"/>
        <pt x="1296" y="1421" on="1"/>
        <pt x="1296" y="1339" on="0"/>
        <pt x="1192" y="1233" on="0"/>
        <pt x="1110" y="1233" on="1"/>
      </contour>
      <contour>
        <pt x="207" y="1337" on="0"/>
        <pt x="444" y="1536" on="0"/>
        <pt x="629" y="1536" on="1"/>
        <pt x="686" y="1536" on="0"/>
        <pt x="801" y="1513" on="0"/>
        <pt x="844" y="1493" on="1"/>
        <pt x="831" y="1212" on="1"/>
        <pt x="755" y="1255" on="0"/>
        <pt x="684" y="1255" on="1"/>
        <pt x="627" y="1255" on="0"/>
        <pt x="557" y="1196" on="0"/>
        <pt x="557" y="1135" on="1"/>
        <pt x="557" y="1065" on="1"/>
        <pt x="807" y="1065" on="1"/>
        <pt x="807" y="831" on="1"/>
        <pt x="557" y="831" on="1"/>
        <pt x="557" y="0" on="1"/>
        <pt x="207" y="0" on="1"/>
        <pt x="207" y="831" on="1"/>
        <pt x="57" y="831" on="1"/>
        <pt x="57" y="1065" on="1"/>
        <pt x="207" y="1065" on="1"/>
        <pt x="207" y="1157" on="1"/>
      </contour>
      <contour>
        <pt x="1284" y="1104" on="1"/>
        <pt x="1284" y="0" on="1"/>
        <pt x="932" y="0" on="1"/>
        <pt x="932" y="1104" on="1"/>
      </contour>
    </TTGlyph>
    <TTGlyph name="firsttonechinese" xMin="74" yMin="1294" xMax="643" yMax="1532">
      <component glyphName="macron" x="0" y="0" flags="0x1000"/>
    </TTGlyph>
    <TTGlyph name="five" xMin="29" yMin="-14" xMax="1153" yMax="1434">
      <contour>
        <pt x="481" y="1145" on="1"/>
        <pt x="481" y="913" on="1"/>
        <pt x="610" y="913" on="1"/>
        <pt x="772" y="913" on="0"/>
        <pt x="1018" y="805" on="0"/>
        <pt x="1153" y="608" on="0"/>
        <pt x="1153" y="481" on="1"/>
        <pt x="1153" y="331" on="0"/>
        <pt x="1012" y="109" on="0"/>
        <pt x="754" y="-14" on="0"/>
        <pt x="582" y="-14" on="1"/>
        <pt x="443" y="-14" on="0"/>
        <pt x="141" y="84" on="0"/>
        <pt x="29" y="164" on="1"/>
        <pt x="174" y="440" on="1"/>
        <pt x="254" y="354" on="0"/>
        <pt x="442" y="264" on="0"/>
        <pt x="539" y="264" on="1"/>
        <pt x="645" y="264" on="0"/>
        <pt x="762" y="365" on="0"/>
        <pt x="762" y="457" on="1"/>
        <pt x="762" y="541" on="0"/>
        <pt x="645" y="635" on="0"/>
        <pt x="539" y="635" on="1"/>
        <pt x="459" y="635" on="0"/>
        <pt x="209" y="629" on="0"/>
        <pt x="150" y="625" on="1"/>
        <pt x="150" y="1434" on="1"/>
        <pt x="1090" y="1434" on="1"/>
        <pt x="1090" y="1145" on="1"/>
      </contour>
    </TTGlyph>
    <TTGlyph name="five.dnom" xMin="27" yMin="-10" xMax="741" yMax="854">
      <contour>
        <pt x="332" y="535" on="1"/>
        <pt x="357" y="541" on="0"/>
        <pt x="399" y="541" on="1"/>
        <pt x="555" y="541" on="0"/>
        <pt x="741" y="403" on="0"/>
        <pt x="741" y="289" on="1"/>
        <pt x="741" y="154" on="0"/>
        <pt x="545" y="-10" on="0"/>
        <pt x="379" y="-10" on="1"/>
        <pt x="291" y="-10" on="0"/>
        <pt x="98" y="49" on="0"/>
        <pt x="27" y="98" on="1"/>
        <pt x="127" y="283" on="1"/>
        <pt x="225" y="168" on="0"/>
        <pt x="350" y="168" on="1"/>
        <pt x="409" y="168" on="0"/>
        <pt x="473" y="221" on="0"/>
        <pt x="473" y="272" on="1"/>
        <pt x="473" y="317" on="0"/>
        <pt x="410" y="365" on="0"/>
        <pt x="350" y="365" on="1"/>
        <pt x="184" y="365" on="0"/>
        <pt x="104" y="358" on="1"/>
        <pt x="104" y="854" on="1"/>
        <pt x="702" y="854" on="1"/>
        <pt x="702" y="670" on="1"/>
        <pt x="332" y="670" on="1"/>
      </contour>
    </TTGlyph>
    <TTGlyph name="five.numr" xMin="27" yMin="569" xMax="741" yMax="1434">
      <contour>
        <pt x="332" y="1116" on="1"/>
        <pt x="365" y="1120" on="0"/>
        <pt x="399" y="1120" on="1"/>
        <pt x="555" y="1120" on="0"/>
        <pt x="741" y="983" on="0"/>
        <pt x="741" y="868" on="1"/>
        <pt x="741" y="733" on="0"/>
        <pt x="545" y="569" on="0"/>
        <pt x="379" y="569" on="1"/>
        <pt x="291" y="569" on="0"/>
        <pt x="98" y="629" on="0"/>
        <pt x="27" y="678" on="1"/>
        <pt x="127" y="862" on="1"/>
        <pt x="225" y="749" on="0"/>
        <pt x="350" y="750" on="1"/>
        <pt x="473" y="750" on="0"/>
        <pt x="473" y="852" on="1"/>
        <pt x="473" y="897" on="0"/>
        <pt x="410" y="944" on="0"/>
        <pt x="350" y="944" on="1"/>
        <pt x="184" y="944" on="0"/>
        <pt x="104" y="938" on="1"/>
        <pt x="104" y="1434" on="1"/>
        <pt x="702" y="1434" on="1"/>
        <pt x="702" y="1249" on="1"/>
        <pt x="332" y="1249" on="1"/>
      </contour>
    </TTGlyph>
    <TTGlyph name="fiveeighths" xMin="27" yMin="-10" xMax="1932" yMax="1436">
      <component glyphName="five.numr" x="0" y="0" flags="0x1000"/>
      <component glyphName="fraction" x="854" y="0" flags="0x1000"/>
      <component glyphName="eight.dnom" x="1133" y="0" flags="0x1000"/>
    </TTGlyph>
    <TTGlyph name="fl" xMin="57" yMin="0" xMax="1311" yMax="1540">
      <contour>
        <pt x="207" y="1280" on="0"/>
        <pt x="311" y="1448" on="0"/>
        <pt x="502" y="1540" on="0"/>
        <pt x="625" y="1540" on="1"/>
        <pt x="682" y="1540" on="0"/>
        <pt x="803" y="1520" on="0"/>
        <pt x="846" y="1501" on="1"/>
        <pt x="834" y="1219" on="1"/>
        <pt x="803" y="1242" on="0"/>
        <pt x="731" y="1266" on="0"/>
        <pt x="698" y="1266" on="1"/>
        <pt x="635" y="1266" on="0"/>
        <pt x="557" y="1186" on="0"/>
        <pt x="557" y="1120" on="1"/>
        <pt x="557" y="1065" on="1"/>
        <pt x="809" y="1065" on="1"/>
        <pt x="807" y="834" on="1"/>
        <pt x="557" y="834" on="1"/>
        <pt x="557" y="0" on="1"/>
        <pt x="207" y="0" on="1"/>
        <pt x="207" y="834" on="1"/>
        <pt x="57" y="834" on="1"/>
        <pt x="59" y="1065" on="1"/>
        <pt x="207" y="1065" on="1"/>
        <pt x="207" y="1171" on="1"/>
      </contour>
      <contour>
        <pt x="1311" y="0" on="1"/>
        <pt x="956" y="0" on="1"/>
        <pt x="956" y="1520" on="1"/>
        <pt x="1311" y="1520" on="1"/>
      </contour>
    </TTGlyph>
    <TTGlyph name="florin" xMin="-231" yMin="-414" xMax="991" yMax="1540">
      <contour>
        <pt x="682" y="1266" on="0"/>
        <pt x="602" y="1190" on="0"/>
        <pt x="594" y="1126" on="1"/>
        <pt x="573" y="954" on="1"/>
        <pt x="823" y="954" on="1"/>
        <pt x="795" y="727" on="1"/>
        <pt x="545" y="727" on="1"/>
        <pt x="451" y="-49" on="1"/>
        <pt x="428" y="-217" on="0"/>
        <pt x="201" y="-414" on="0"/>
        <pt x="23" y="-414" on="1"/>
        <pt x="-43" y="-414" on="0"/>
        <pt x="-186" y="-369" on="0"/>
        <pt x="-231" y="-334" on="1"/>
        <pt x="-141" y="-90" on="1"/>
        <pt x="-116" y="-113" on="0"/>
        <pt x="-47" y="-137" on="0"/>
        <pt x="-18" y="-137" on="1"/>
        <pt x="35" y="-137" on="0"/>
        <pt x="96" y="-63" on="0"/>
        <pt x="104" y="2" on="1"/>
        <pt x="195" y="727" on="1"/>
        <pt x="45" y="727" on="1"/>
        <pt x="74" y="954" on="1"/>
        <pt x="223" y="954" on="1"/>
        <pt x="250" y="1178" on="1"/>
        <pt x="270" y="1342" on="0"/>
        <pt x="508" y="1540" on="0"/>
        <pt x="686" y="1540" on="1"/>
        <pt x="768" y="1540" on="0"/>
        <pt x="934" y="1497" on="0"/>
        <pt x="991" y="1460" on="1"/>
        <pt x="872" y="1219" on="1"/>
        <pt x="843" y="1242" on="0"/>
        <pt x="774" y="1266" on="0"/>
        <pt x="741" y="1266" on="1"/>
      </contour>
    </TTGlyph>
    <TTGlyph name="four" xMin="55" yMin="0" xMax="1268" yMax="1434">
      <contour>
        <pt x="735" y="592" on="1"/>
        <pt x="735" y="899" on="1"/>
        <pt x="1073" y="899" on="1"/>
        <pt x="1073" y="592" on="1"/>
        <pt x="1268" y="592" on="1"/>
        <pt x="1268" y="315" on="1"/>
        <pt x="1073" y="315" on="1"/>
        <pt x="1073" y="0" on="1"/>
        <pt x="735" y="0" on="1"/>
        <pt x="735" y="315" on="1"/>
        <pt x="55" y="315" on="1"/>
        <pt x="55" y="559" on="1"/>
        <pt x="508" y="1434" on="1"/>
        <pt x="858" y="1434" on="1"/>
        <pt x="432" y="592" on="1"/>
      </contour>
    </TTGlyph>
    <TTGlyph name="four.dnom" xMin="47" yMin="0" xMax="821" yMax="854">
      <contour>
        <pt x="471" y="532" on="1"/>
        <pt x="702" y="532" on="1"/>
        <pt x="702" y="350" on="1"/>
        <pt x="821" y="350" on="1"/>
        <pt x="821" y="178" on="1"/>
        <pt x="702" y="178" on="1"/>
        <pt x="702" y="0" on="1"/>
        <pt x="471" y="0" on="1"/>
        <pt x="471" y="178" on="1"/>
        <pt x="47" y="178" on="1"/>
        <pt x="47" y="340" on="1"/>
        <pt x="322" y="854" on="1"/>
        <pt x="561" y="854" on="1"/>
        <pt x="301" y="350" on="1"/>
        <pt x="471" y="350" on="1"/>
      </contour>
    </TTGlyph>
    <TTGlyph name="four.numr" xMin="47" yMin="580" xMax="821" yMax="1434">
      <contour>
        <pt x="471" y="1114" on="1"/>
        <pt x="702" y="1114" on="1"/>
        <pt x="702" y="932" on="1"/>
        <pt x="821" y="932" on="1"/>
        <pt x="821" y="760" on="1"/>
        <pt x="702" y="760" on="1"/>
        <pt x="702" y="580" on="1"/>
        <pt x="471" y="580" on="1"/>
        <pt x="471" y="760" on="1"/>
        <pt x="47" y="760" on="1"/>
        <pt x="47" y="920" on="1"/>
        <pt x="322" y="1434" on="1"/>
        <pt x="561" y="1434" on="1"/>
        <pt x="301" y="932" on="1"/>
        <pt x="471" y="932" on="1"/>
      </contour>
    </TTGlyph>
    <TTGlyph name="fraction" xMin="-563" yMin="0" xMax="793" yMax="1436">
      <contour>
        <pt x="461" y="1436" on="1"/>
        <pt x="793" y="1436" on="1"/>
        <pt x="-231" y="0" on="1"/>
        <pt x="-563" y="0" on="1"/>
      </contour>
    </TTGlyph>
    <TTGlyph name="g" xMin="51" yMin="-412" xMax="1196" yMax="1116">
      <contour>
        <pt x="1196" y="100" on="1"/>
        <pt x="1196" y="-54" on="0"/>
        <pt x="1047" y="-287" on="0"/>
        <pt x="776" y="-412" on="0"/>
        <pt x="598" y="-412" on="1"/>
        <pt x="459" y="-412" on="0"/>
        <pt x="205" y="-332" on="0"/>
        <pt x="106" y="-266" on="1"/>
        <pt x="229" y="-27" on="1"/>
        <pt x="305" y="-80" on="0"/>
        <pt x="483" y="-137" on="0"/>
        <pt x="571" y="-137" on="1"/>
        <pt x="698" y="-137" on="0"/>
        <pt x="844" y="-14" on="0"/>
        <pt x="844" y="90" on="1"/>
        <pt x="844" y="207" on="1"/>
        <pt x="789" y="135" on="0"/>
        <pt x="629" y="59" on="0"/>
        <pt x="526" y="59" on="1"/>
        <pt x="387" y="59" on="0"/>
        <pt x="172" y="193" on="0"/>
        <pt x="51" y="436" on="0"/>
        <pt x="51" y="594" on="1"/>
        <pt x="51" y="750" on="0"/>
        <pt x="170" y="987" on="0"/>
        <pt x="387" y="1116" on="0"/>
        <pt x="526" y="1116" on="1"/>
        <pt x="628" y="1116" on="0"/>
        <pt x="788" y="1040" on="0"/>
        <pt x="844" y="969" on="1"/>
        <pt x="844" y="1104" on="1"/>
        <pt x="1196" y="1104" on="1"/>
      </contour>
      <contour>
        <pt x="717" y="315" on="0"/>
        <pt x="844" y="465" on="0"/>
        <pt x="844" y="584" on="1"/>
        <pt x="844" y="705" on="0"/>
        <pt x="717" y="854" on="0"/>
        <pt x="614" y="854" on="1"/>
        <pt x="510" y="854" on="0"/>
        <pt x="381" y="705" on="0"/>
        <pt x="381" y="584" on="1"/>
        <pt x="381" y="465" on="0"/>
        <pt x="510" y="315" on="0"/>
        <pt x="614" y="315" on="1"/>
      </contour>
    </TTGlyph>
    <TTGlyph name="gbreve" xMin="51" yMin="-412" xMax="1196" yMax="1554">
      <component glyphName="g" x="0" y="0" flags="0x1000"/>
      <component glyphName="breve" x="305" y="0" flags="0x1000"/>
    </TTGlyph>
    <TTGlyph name="gcommaaccent" xMin="51" yMin="-412" xMax="1196" yMax="1708">
      <component glyphName="g" x="0" y="0" flags="0x1000"/>
      <component glyphName="uni0326" x="899" y="1104" scale="-1.0" flags="0x1000"/>
    </TTGlyph>
    <TTGlyph name="germandbls" xMin="119" yMin="0" xMax="1288" yMax="1536">
      <contour>
        <pt x="831" y="1536" on="0"/>
        <pt x="1071" y="1434" on="0"/>
        <pt x="1202" y="1249" on="0"/>
        <pt x="1202" y="1126" on="1"/>
        <pt x="1202" y="1020" on="0"/>
        <pt x="1096" y="834" on="0"/>
        <pt x="1006" y="784" on="1"/>
        <pt x="1133" y="749" on="0"/>
        <pt x="1288" y="567" on="0"/>
        <pt x="1288" y="438" on="1"/>
        <pt x="1288" y="307" on="0"/>
        <pt x="1147" y="109" on="0"/>
        <pt x="889" y="0" on="0"/>
        <pt x="719" y="0" on="1"/>
        <pt x="618" y="0" on="1"/>
        <pt x="618" y="252" on="1"/>
        <pt x="702" y="252" on="1"/>
        <pt x="819" y="252" on="0"/>
        <pt x="946" y="352" on="0"/>
        <pt x="946" y="440" on="1"/>
        <pt x="946" y="530" on="0"/>
        <pt x="807" y="625" on="0"/>
        <pt x="678" y="625" on="1"/>
        <pt x="641" y="625" on="1"/>
        <pt x="641" y="874" on="1"/>
        <pt x="747" y="874" on="0"/>
        <pt x="860" y="979" on="0"/>
        <pt x="860" y="1075" on="1"/>
        <pt x="860" y="1169" on="0"/>
        <pt x="764" y="1270" on="0"/>
        <pt x="676" y="1270" on="1"/>
        <pt x="578" y="1270" on="0"/>
        <pt x="471" y="1147" on="0"/>
        <pt x="471" y="1032" on="1"/>
        <pt x="471" y="0" on="1"/>
        <pt x="119" y="0" on="1"/>
        <pt x="119" y="1008" on="1"/>
        <pt x="119" y="1168" on="0"/>
        <pt x="254" y="1407" on="0"/>
        <pt x="504" y="1536" on="0"/>
        <pt x="674" y="1536" on="1"/>
      </contour>
    </TTGlyph>
    <TTGlyph name="grave" xMin="84" yMin="1229" xMax="621" yMax="1573">
      <contour>
        <pt x="350" y="1229" on="1"/>
        <pt x="84" y="1460" on="1"/>
        <pt x="403" y="1573" on="1"/>
        <pt x="621" y="1229" on="1"/>
      </contour>
    </TTGlyph>
    <TTGlyph name="greater" xMin="66" yMin="158" xMax="977" yMax="1200">
      <contour>
        <pt x="748" y="680" on="1"/>
        <pt x="66" y="952" on="1"/>
        <pt x="66" y="1200" on="1"/>
        <pt x="977" y="821" on="1"/>
        <pt x="977" y="537" on="1"/>
        <pt x="66" y="158" on="1"/>
        <pt x="66" y="408" on="1"/>
      </contour>
    </TTGlyph>
    <TTGlyph name="greaterequal" xMin="66" yMin="4" xMax="977" yMax="1326">
      <component glyphName="greater" x="0" y="170" scalex="1.0" scaley="0.962829589844" flags="0x1000"/>
      <component glyphName="minus" x="0" y="-553" flags="0x1000"/>
    </TTGlyph>
    <TTGlyph name="guillemotleft" xMin="4" yMin="168" xMax="990" yMax="922">
      <component glyphName="guilsinglleft" x="0" y="0" flags="0x1000"/>
      <component glyphName="guilsinglleft" x="453" y="0" flags="0x1000"/>
    </TTGlyph>
    <TTGlyph name="guillemotright" xMin="72" yMin="168" xMax="1057" yMax="922">
      <component glyphName="guilsinglright" x="0" y="0" flags="0x1000"/>
      <component glyphName="guilsinglright" x="453" y="0" flags="0x1000"/>
    </TTGlyph>
    <TTGlyph name="guilsinglleft" xMin="4" yMin="168" xMax="537" yMax="922">
      <contour>
        <pt x="537" y="168" on="1"/>
        <pt x="250" y="168" on="1"/>
        <pt x="4" y="545" on="1"/>
        <pt x="250" y="922" on="1"/>
        <pt x="537" y="922" on="1"/>
        <pt x="319" y="545" on="1"/>
      </contour>
    </TTGlyph>
    <TTGlyph name="guilsinglright" xMin="72" yMin="168" xMax="604" yMax="922">
      <contour>
        <pt x="72" y="922" on="1"/>
        <pt x="358" y="922" on="1"/>
        <pt x="604" y="545" on="1"/>
        <pt x="358" y="168" on="1"/>
        <pt x="72" y="168" on="1"/>
        <pt x="291" y="545" on="1"/>
      </contour>
    </TTGlyph>
    <TTGlyph name="h" xMin="152" yMin="0" xMax="1280" yMax="1520">
      <contour>
        <pt x="1059" y="1120" on="0"/>
        <pt x="1280" y="889" on="0"/>
        <pt x="1280" y="696" on="1"/>
        <pt x="1280" y="0" on="1"/>
        <pt x="926" y="0" on="1"/>
        <pt x="926" y="598" on="1"/>
        <pt x="926" y="694" on="0"/>
        <pt x="821" y="807" on="0"/>
        <pt x="731" y="807" on="1"/>
        <pt x="629" y="807" on="0"/>
        <pt x="506" y="659" on="0"/>
        <pt x="506" y="545" on="1"/>
        <pt x="506" y="0" on="1"/>
        <pt x="152" y="0" on="1"/>
        <pt x="152" y="1520" on="1"/>
        <pt x="506" y="1520" on="1"/>
        <pt x="506" y="922" on="1"/>
        <pt x="563" y="1020" on="0"/>
        <pt x="752" y="1118" on="0"/>
        <pt x="877" y="1120" on="1"/>
      </contour>
    </TTGlyph>
    <TTGlyph name="hbar" xMin="-10" yMin="0" xMax="1280" yMax="1520">
      <contour>
        <pt x="1059" y="1120" on="0"/>
        <pt x="1280" y="889" on="0"/>
        <pt x="1280" y="696" on="1"/>
        <pt x="1280" y="0" on="1"/>
        <pt x="926" y="0" on="1"/>
        <pt x="926" y="598" on="1"/>
        <pt x="926" y="694" on="0"/>
        <pt x="821" y="807" on="0"/>
        <pt x="731" y="807" on="1"/>
        <pt x="629" y="807" on="0"/>
        <pt x="506" y="659" on="0"/>
        <pt x="506" y="545" on="1"/>
        <pt x="506" y="0" on="1"/>
        <pt x="152" y="0" on="1"/>
        <pt x="152" y="1180" on="1"/>
        <pt x="-10" y="1180" on="1"/>
        <pt x="-10" y="1372" on="1"/>
        <pt x="152" y="1372" on="1"/>
        <pt x="152" y="1520" on="1"/>
        <pt x="506" y="1520" on="1"/>
        <pt x="506" y="1372" on="1"/>
        <pt x="748" y="1372" on="1"/>
        <pt x="748" y="1180" on="1"/>
        <pt x="506" y="1180" on="1"/>
        <pt x="506" y="922" on="1"/>
        <pt x="563" y="1020" on="0"/>
        <pt x="752" y="1118" on="0"/>
        <pt x="877" y="1120" on="1"/>
      </contour>
    </TTGlyph>
    <TTGlyph name="hungarumlaut" xMin="-61" yMin="1229" xMax="778" yMax="1579">
      <contour>
        <pt x="197" y="1229" on="1"/>
        <pt x="-61" y="1229" on="1"/>
        <pt x="113" y="1579" on="1"/>
        <pt x="381" y="1481" on="1"/>
      </contour>
      <contour>
        <pt x="594" y="1229" on="1"/>
        <pt x="336" y="1229" on="1"/>
        <pt x="510" y="1579" on="1"/>
        <pt x="778" y="1481" on="1"/>
      </contour>
    </TTGlyph>
    <TTGlyph name="hyphen" xMin="113" yMin="516" xMax="653" yMax="739">
      <contour>
        <pt x="113" y="516" on="1"/>
        <pt x="113" y="739" on="1"/>
        <pt x="653" y="739" on="1"/>
        <pt x="653" y="516" on="1"/>
      </contour>
    </TTGlyph>
    <TTGlyph name="i" xMin="133" yMin="0" xMax="506" yMax="1608">
      <component glyphName="dotlessi" x="0" y="0" flags="0x1000"/>
      <component glyphName="dotaccent" x="-39" y="0" flags="0x1000"/>
    </TTGlyph>
    <TTGlyph name="iacute" xMin="141" yMin="0" xMax="678" yMax="1573">
      <component glyphName="dotlessi" x="0" y="0" flags="0x1000"/>
      <component glyphName="acute" x="51" y="0" flags="0x1000"/>
    </TTGlyph>
    <TTGlyph name="icircumflex" xMin="-53" yMin="0" xMax="692" yMax="1559">
      <component glyphName="dotlessi" x="0" y="0" flags="0x1000"/>
      <component glyphName="circumflex" x="-39" y="-2" flags="0x1000"/>
    </TTGlyph>
    <TTGlyph name="idieresis" xMin="-37" yMin="0" xMax="678" yMax="1575">
      <contour>
        <pt x="193" y="1575" on="0"/>
        <pt x="283" y="1485" on="0"/>
        <pt x="283" y="1415" on="1"/>
        <pt x="283" y="1345" on="0"/>
        <pt x="193" y="1257" on="0"/>
        <pt x="123" y="1257" on="1"/>
        <pt x="53" y="1257" on="0"/>
        <pt x="-37" y="1346" on="0"/>
        <pt x="-37" y="1415" on="1"/>
        <pt x="-37" y="1485" on="0"/>
        <pt x="53" y="1575" on="0"/>
        <pt x="123" y="1575" on="1"/>
      </contour>
      <contour>
        <pt x="588" y="1575" on="0"/>
        <pt x="678" y="1485" on="0"/>
        <pt x="678" y="1415" on="1"/>
        <pt x="678" y="1345" on="0"/>
        <pt x="588" y="1257" on="0"/>
        <pt x="518" y="1257" on="1"/>
        <pt x="448" y="1257" on="0"/>
        <pt x="358" y="1346" on="0"/>
        <pt x="358" y="1415" on="1"/>
        <pt x="358" y="1485" on="0"/>
        <pt x="449" y="1575" on="0"/>
        <pt x="518" y="1575" on="1"/>
      </contour>
      <contour>
        <pt x="141" y="0" on="1"/>
        <pt x="141" y="1104" on="1"/>
        <pt x="494" y="1104" on="1"/>
        <pt x="494" y="0" on="1"/>
      </contour>
    </TTGlyph>
    <TTGlyph name="igrave" xMin="-37" yMin="0" xMax="500" yMax="1573">
      <component glyphName="dotlessi" x="0" y="0" flags="0x1000"/>
      <component glyphName="grave" x="-121" y="0" flags="0x1000"/>
    </TTGlyph>
    <TTGlyph name="ij" xMin="133" yMin="-412" xMax="1159" yMax="1608">
      <contour>
        <pt x="401" y="1608" on="0"/>
        <pt x="506" y="1503" on="0"/>
        <pt x="506" y="1421" on="1"/>
        <pt x="506" y="1339" on="0"/>
        <pt x="401" y="1233" on="0"/>
        <pt x="319" y="1233" on="1"/>
        <pt x="237" y="1233" on="0"/>
        <pt x="133" y="1339" on="0"/>
        <pt x="133" y="1421" on="1"/>
        <pt x="133" y="1503" on="0"/>
        <pt x="238" y="1608" on="0"/>
        <pt x="319" y="1608" on="1"/>
      </contour>
      <contour>
        <pt x="1047" y="1608" on="0"/>
        <pt x="1159" y="1503" on="0"/>
        <pt x="1159" y="1419" on="1"/>
        <pt x="1159" y="1337" on="0"/>
        <pt x="1047" y="1233" on="0"/>
        <pt x="958" y="1233" on="1"/>
        <pt x="870" y="1233" on="0"/>
        <pt x="758" y="1337" on="0"/>
        <pt x="758" y="1419" on="1"/>
        <pt x="758" y="1501" on="0"/>
        <pt x="870" y="1608" on="0"/>
        <pt x="958" y="1608" on="1"/>
      </contour>
      <contour>
        <pt x="141" y="0" on="1"/>
        <pt x="141" y="1104" on="1"/>
        <pt x="494" y="1104" on="1"/>
        <pt x="494" y="0" on="1"/>
      </contour>
      <contour>
        <pt x="1137" y="-211" on="0"/>
        <pt x="913" y="-412" on="0"/>
        <pt x="739" y="-412" on="1"/>
        <pt x="577" y="-412" on="0"/>
        <pt x="459" y="-340" on="1"/>
        <pt x="549" y="-92" on="1"/>
        <pt x="617" y="-131" on="0"/>
        <pt x="678" y="-131" on="1"/>
        <pt x="727" y="-131" on="0"/>
        <pt x="782" y="-70" on="0"/>
        <pt x="782" y="-10" on="1"/>
        <pt x="782" y="1104" on="1"/>
        <pt x="1137" y="1104" on="1"/>
        <pt x="1137" y="-33" on="1"/>
      </contour>
    </TTGlyph>
    <TTGlyph name="imacron" xMin="33" yMin="0" xMax="602" yMax="1532">
      <component glyphName="dotlessi" x="0" y="0" flags="0x1000"/>
      <component glyphName="macron" x="-41" y="0" flags="0x1000"/>
    </TTGlyph>
    <TTGlyph name="infinity" xMin="49" yMin="174" xMax="1700" yMax="1051">
      <contour>
        <pt x="1399" y="1051" on="0"/>
        <pt x="1591" y="938" on="0"/>
        <pt x="1700" y="739" on="0"/>
        <pt x="1700" y="614" on="1"/>
        <pt x="1700" y="489" on="0"/>
        <pt x="1591" y="289" on="0"/>
        <pt x="1399" y="174" on="0"/>
        <pt x="1280" y="174" on="1"/>
        <pt x="1139" y="174" on="0"/>
        <pt x="954" y="307" on="0"/>
        <pt x="877" y="426" on="1"/>
        <pt x="801" y="307" on="0"/>
        <pt x="612" y="174" on="0"/>
        <pt x="467" y="174" on="1"/>
        <pt x="348" y="174" on="0"/>
        <pt x="158" y="289" on="0"/>
        <pt x="49" y="487" on="0"/>
        <pt x="49" y="612" on="1"/>
        <pt x="49" y="737" on="0"/>
        <pt x="158" y="936" on="0"/>
        <pt x="348" y="1051" on="0"/>
        <pt x="467" y="1051" on="1"/>
        <pt x="608" y="1051" on="0"/>
        <pt x="793" y="918" on="0"/>
        <pt x="870" y="799" on="1"/>
        <pt x="948" y="918" on="0"/>
        <pt x="1135" y="1051" on="0"/>
        <pt x="1280" y="1051" on="1"/>
      </contour>
      <contour>
        <pt x="565" y="412" on="0"/>
        <pt x="698" y="516" on="0"/>
        <pt x="760" y="616" on="1"/>
        <pt x="699" y="710" on="0"/>
        <pt x="563" y="813" on="0"/>
        <pt x="467" y="813" on="1"/>
        <pt x="391" y="813" on="0"/>
        <pt x="289" y="698" on="0"/>
        <pt x="289" y="612" on="1"/>
        <pt x="289" y="524" on="0"/>
        <pt x="389" y="412" on="0"/>
        <pt x="467" y="412" on="1"/>
      </contour>
      <contour>
        <pt x="1358" y="414" on="0"/>
        <pt x="1460" y="526" on="0"/>
        <pt x="1460" y="614" on="1"/>
        <pt x="1460" y="700" on="0"/>
        <pt x="1358" y="813" on="0"/>
        <pt x="1280" y="813" on="1"/>
        <pt x="1184" y="813" on="0"/>
        <pt x="1051" y="709" on="0"/>
        <pt x="989" y="610" on="1"/>
        <pt x="1050" y="516" on="0"/>
        <pt x="1186" y="414" on="0"/>
        <pt x="1280" y="414" on="1"/>
      </contour>
    </TTGlyph>
    <TTGlyph name="integral" xMin="-41" yMin="-283" xMax="825" yMax="1743">
      <contour>
        <pt x="729" y="1495" on="0"/>
        <pt x="676" y="1495" on="1"/>
        <pt x="586" y="1495" on="0"/>
        <pt x="512" y="1395" on="0"/>
        <pt x="512" y="1274" on="1"/>
        <pt x="512" y="1186" on="0"/>
        <pt x="537" y="772" on="1"/>
        <pt x="541" y="717" on="0"/>
        <pt x="563" y="311" on="0"/>
        <pt x="563" y="219" on="1"/>
        <pt x="563" y="37" on="0"/>
        <pt x="487" y="-182" on="0"/>
        <pt x="319" y="-283" on="0"/>
        <pt x="178" y="-283" on="1"/>
        <pt x="106" y="-283" on="0"/>
        <pt x="6" y="-258" on="0"/>
        <pt x="-41" y="-229" on="1"/>
        <pt x="2" y="-4" on="1"/>
        <pt x="45" y="-24" on="0"/>
        <pt x="104" y="-41" on="0"/>
        <pt x="135" y="-41" on="1"/>
        <pt x="225" y="-41" on="0"/>
        <pt x="305" y="68" on="0"/>
        <pt x="305" y="195" on="1"/>
        <pt x="305" y="308" on="0"/>
        <pt x="276" y="737" on="1"/>
        <pt x="249" y="1122" on="0"/>
        <pt x="250" y="1243" on="1"/>
        <pt x="250" y="1425" on="0"/>
        <pt x="326" y="1642" on="0"/>
        <pt x="494" y="1743" on="0"/>
        <pt x="633" y="1743" on="1"/>
        <pt x="680" y="1743" on="0"/>
        <pt x="768" y="1722" on="0"/>
        <pt x="825" y="1698" on="1"/>
        <pt x="788" y="1473" on="1"/>
      </contour>
    </TTGlyph>
    <TTGlyph name="iogonek" xMin="111" yMin="-416" xMax="526" yMax="1608">
      <contour>
        <pt x="383" y="1608" on="0"/>
        <pt x="487" y="1503" on="0"/>
        <pt x="487" y="1419" on="1"/>
        <pt x="487" y="1337" on="0"/>
        <pt x="381" y="1233" on="0"/>
        <pt x="299" y="1233" on="1"/>
        <pt x="217" y="1233" on="0"/>
        <pt x="111" y="1337" on="0"/>
        <pt x="111" y="1419" on="1"/>
        <pt x="111" y="1501" on="0"/>
        <pt x="217" y="1608" on="0"/>
        <pt x="299" y="1608" on="1"/>
      </contour>
      <contour>
        <pt x="393" y="0" on="1"/>
        <pt x="303" y="-131" on="0"/>
        <pt x="303" y="-188" on="1"/>
        <pt x="303" y="-213" on="0"/>
        <pt x="328" y="-238" on="0"/>
        <pt x="348" y="-238" on="1"/>
        <pt x="393" y="-238" on="0"/>
        <pt x="436" y="-174" on="1"/>
        <pt x="526" y="-279" on="1"/>
        <pt x="487" y="-345" on="0"/>
        <pt x="371" y="-416" on="0"/>
        <pt x="305" y="-416" on="1"/>
        <pt x="231" y="-416" on="0"/>
        <pt x="125" y="-334" on="0"/>
        <pt x="125" y="-246" on="1"/>
        <pt x="125" y="-189" on="0"/>
        <pt x="174" y="-70" on="0"/>
        <pt x="221" y="0" on="1"/>
        <pt x="123" y="0" on="1"/>
        <pt x="123" y="1104" on="1"/>
        <pt x="475" y="1104" on="1"/>
        <pt x="475" y="0" on="1"/>
      </contour>
    </TTGlyph>
    <TTGlyph name="itilde" xMin="-47" yMin="0" xMax="682" yMax="1591">
      <component glyphName="dotlessi" x="0" y="0" flags="0x1000"/>
      <component glyphName="tilde" x="-41" y="0" flags="0x1000"/>
    </TTGlyph>
    <TTGlyph name="j" xMin="-178" yMin="-412" xMax="522" yMax="1608">
      <contour>
        <pt x="410" y="1608" on="0"/>
        <pt x="522" y="1503" on="0"/>
        <pt x="522" y="1419" on="1"/>
        <pt x="522" y="1337" on="0"/>
        <pt x="410" y="1233" on="0"/>
        <pt x="322" y="1233" on="1"/>
        <pt x="234" y="1233" on="0"/>
        <pt x="121" y="1337" on="0"/>
        <pt x="121" y="1419" on="1"/>
        <pt x="121" y="1501" on="0"/>
        <pt x="233" y="1608" on="0"/>
        <pt x="322" y="1608" on="1"/>
      </contour>
      <contour>
        <pt x="500" y="-211" on="0"/>
        <pt x="276" y="-412" on="0"/>
        <pt x="102" y="-412" on="1"/>
        <pt x="-60" y="-412" on="0"/>
        <pt x="-178" y="-340" on="1"/>
        <pt x="-88" y="-92" on="1"/>
        <pt x="-20" y="-131" on="0"/>
        <pt x="41" y="-131" on="1"/>
        <pt x="90" y="-131" on="0"/>
        <pt x="145" y="-70" on="0"/>
        <pt x="145" y="-10" on="1"/>
        <pt x="145" y="1104" on="1"/>
        <pt x="500" y="1104" on="1"/>
        <pt x="500" y="-33" on="1"/>
      </contour>
    </TTGlyph>
    <TTGlyph name="jcircumflex" xMin="-184" yMin="-412" xMax="682" yMax="1559">
      <component glyphName="dotlessj" x="0" y="0" flags="0x1000"/>
      <component glyphName="circumflex" x="-49" y="-2" flags="0x1000"/>
    </TTGlyph>
    <TTGlyph name="k" xMin="152" yMin="0" xMax="1284" yMax="1520">
      <contour>
        <pt x="506" y="301" on="1"/>
        <pt x="506" y="0" on="1"/>
        <pt x="152" y="0" on="1"/>
        <pt x="152" y="1520" on="1"/>
        <pt x="506" y="1520" on="1"/>
        <pt x="506" y="717" on="1"/>
        <pt x="870" y="1104" on="1"/>
        <pt x="1272" y="1104" on="1"/>
        <pt x="866" y="680" on="1"/>
        <pt x="1284" y="0" on="1"/>
        <pt x="864" y="0" on="1"/>
        <pt x="625" y="426" on="1"/>
      </contour>
    </TTGlyph>
    <TTGlyph name="kcedilla" xMin="49" yMin="-479" xMax="1284" yMax="1520">
      <contour>
        <pt x="506" y="301" on="1"/>
        <pt x="506" y="0" on="1"/>
        <pt x="412" y="0" on="1"/>
        <pt x="358" y="-100" on="1"/>
        <pt x="419" y="-116" on="0"/>
        <pt x="498" y="-205" on="0"/>
        <pt x="498" y="-262" on="1"/>
        <pt x="498" y="-360" on="0"/>
        <pt x="358" y="-479" on="0"/>
        <pt x="240" y="-479" on="1"/>
        <pt x="195" y="-479" on="0"/>
        <pt x="90" y="-444" on="0"/>
        <pt x="49" y="-416" on="1"/>
        <pt x="113" y="-270" on="1"/>
        <pt x="131" y="-286" on="0"/>
        <pt x="184" y="-309" on="0"/>
        <pt x="209" y="-309" on="1"/>
        <pt x="250" y="-309" on="0"/>
        <pt x="301" y="-264" on="0"/>
        <pt x="299" y="-227" on="1"/>
        <pt x="299" y="-192" on="0"/>
        <pt x="248" y="-150" on="0"/>
        <pt x="207" y="-150" on="1"/>
        <pt x="170" y="-150" on="0"/>
        <pt x="135" y="-156" on="1"/>
        <pt x="213" y="0" on="1"/>
        <pt x="152" y="0" on="1"/>
        <pt x="152" y="1520" on="1"/>
        <pt x="506" y="1520" on="1"/>
        <pt x="506" y="717" on="1"/>
        <pt x="870" y="1104" on="1"/>
        <pt x="1272" y="1104" on="1"/>
        <pt x="866" y="680" on="1"/>
        <pt x="1284" y="0" on="1"/>
        <pt x="864" y="0" on="1"/>
        <pt x="625" y="426" on="1"/>
      </contour>
    </TTGlyph>
    <TTGlyph name="kgreenlandic" xMin="141" yMin="0" xMax="1272" yMax="1104">
      <contour>
        <pt x="494" y="301" on="1"/>
        <pt x="494" y="0" on="1"/>
        <pt x="141" y="0" on="1"/>
        <pt x="141" y="1104" on="1"/>
        <pt x="494" y="1104" on="1"/>
        <pt x="494" y="717" on="1"/>
        <pt x="858" y="1104" on="1"/>
        <pt x="1260" y="1104" on="1"/>
        <pt x="854" y="680" on="1"/>
        <pt x="1272" y="0" on="1"/>
        <pt x="852" y="0" on="1"/>
        <pt x="612" y="426" on="1"/>
      </contour>
    </TTGlyph>
    <TTGlyph name="l" xMin="152" yMin="0" xMax="506" yMax="1520">
      <contour>
        <pt x="152" y="0" on="1"/>
        <pt x="152" y="1520" on="1"/>
        <pt x="506" y="1520" on="1"/>
        <pt x="506" y="0" on="1"/>
      </contour>
    </TTGlyph>
    <TTGlyph name="lacute" xMin="151" yMin="0" xMax="688" yMax="1989">
      <component glyphName="l" x="0" y="0" flags="0x1000"/>
      <component glyphName="acute" x="61" y="416" flags="0x1000"/>
    </TTGlyph>
    <TTGlyph name="lcaron" xMin="152" yMin="0" xMax="918" yMax="1520">
      <contour>
        <pt x="506" y="1520" on="1"/>
        <pt x="506" y="0" on="1"/>
        <pt x="152" y="0" on="1"/>
        <pt x="152" y="1520" on="1"/>
      </contour>
      <contour>
        <pt x="819" y="1386" on="0"/>
        <pt x="918" y="1296" on="0"/>
        <pt x="918" y="1219" on="1"/>
        <pt x="918" y="1147" on="0"/>
        <pt x="870" y="1083" on="1"/>
        <pt x="723" y="866" on="1"/>
        <pt x="553" y="866" on="1"/>
        <pt x="645" y="1083" on="1"/>
        <pt x="577" y="1130" on="0"/>
        <pt x="578" y="1217" on="1"/>
        <pt x="578" y="1293" on="0"/>
        <pt x="674" y="1386" on="0"/>
        <pt x="748" y="1386" on="1"/>
      </contour>
    </TTGlyph>
    <TTGlyph name="lcommaaccent" xMin="149" yMin="-604" xMax="512" yMax="1520">
      <component glyphName="l" x="0" y="0" flags="0x1000"/>
      <component glyphName="uni0326" x="94" y="0" flags="0x1000"/>
    </TTGlyph>
    <TTGlyph name="ldot" xMin="152" yMin="0" xMax="879" yMax="1520">
      <contour>
        <pt x="152" y="0" on="1"/>
        <pt x="152" y="1520" on="1"/>
        <pt x="506" y="1520" on="1"/>
        <pt x="506" y="0" on="1"/>
      </contour>
      <contour>
        <pt x="784" y="809" on="0"/>
        <pt x="879" y="715" on="0"/>
        <pt x="879" y="639" on="1"/>
        <pt x="879" y="563" on="0"/>
        <pt x="784" y="469" on="0"/>
        <pt x="711" y="469" on="1"/>
        <pt x="635" y="469" on="0"/>
        <pt x="541" y="563" on="0"/>
        <pt x="541" y="639" on="1"/>
        <pt x="541" y="715" on="0"/>
        <pt x="635" y="809" on="0"/>
        <pt x="711" y="809" on="1"/>
      </contour>
    </TTGlyph>
    <TTGlyph name="less" xMin="68" yMin="143" xMax="977" yMax="1186">
      <contour>
        <pt x="297" y="664" on="1"/>
        <pt x="977" y="391" on="1"/>
        <pt x="977" y="143" on="1"/>
        <pt x="68" y="522" on="1"/>
        <pt x="68" y="807" on="1"/>
        <pt x="977" y="1186" on="1"/>
        <pt x="977" y="936" on="1"/>
      </contour>
    </TTGlyph>
    <TTGlyph name="lessequal" xMin="68" yMin="4" xMax="977" yMax="1312">
      <component glyphName="less" x="0" y="170" scalex="1.0" scaley="0.962829589844" flags="0x1000"/>
      <component glyphName="minus" x="0" y="-553" flags="0x1000"/>
    </TTGlyph>
    <TTGlyph name="logicalnot" xMin="68" yMin="281" xMax="1053" yMax="872">
      <contour>
        <pt x="1053" y="281" on="1"/>
        <pt x="799" y="281" on="1"/>
        <pt x="799" y="649" on="1"/>
        <pt x="68" y="649" on="1"/>
        <pt x="68" y="872" on="1"/>
        <pt x="1053" y="872" on="1"/>
      </contour>
    </TTGlyph>
    <TTGlyph name="lozenge" xMin="51" yMin="-29" xMax="989" yMax="1374">
      <contour>
        <pt x="518" y="-29" on="1"/>
        <pt x="51" y="676" on="1"/>
        <pt x="520" y="1374" on="1"/>
        <pt x="989" y="676" on="1"/>
      </contour>
      <contour>
        <pt x="518" y="358" on="1"/>
        <pt x="733" y="676" on="1"/>
        <pt x="520" y="991" on="1"/>
        <pt x="307" y="676" on="1"/>
      </contour>
    </TTGlyph>
    <TTGlyph name="lslash" xMin="-70" yMin="0" xMax="776" yMax="1520">
      <contour>
        <pt x="549" y="0" on="1"/>
        <pt x="195" y="0" on="1"/>
        <pt x="195" y="721" on="1"/>
        <pt x="-8" y="664" on="1"/>
        <pt x="-70" y="877" on="1"/>
        <pt x="195" y="952" on="1"/>
        <pt x="195" y="1520" on="1"/>
        <pt x="549" y="1520" on="1"/>
        <pt x="549" y="1055" on="1"/>
        <pt x="717" y="1104" on="1"/>
        <pt x="776" y="889" on="1"/>
        <pt x="549" y="823" on="1"/>
      </contour>
    </TTGlyph>
    <TTGlyph name="m" xMin="141" yMin="0" xMax="2013" yMax="1120">
      <contour>
        <pt x="1798" y="1120" on="0"/>
        <pt x="2013" y="889" on="0"/>
        <pt x="2013" y="696" on="1"/>
        <pt x="2013" y="0" on="1"/>
        <pt x="1661" y="0" on="1"/>
        <pt x="1661" y="598" on="1"/>
        <pt x="1661" y="696" on="0"/>
        <pt x="1559" y="809" on="0"/>
        <pt x="1470" y="809" on="1"/>
        <pt x="1372" y="807" on="0"/>
        <pt x="1255" y="662" on="0"/>
        <pt x="1255" y="547" on="1"/>
        <pt x="1255" y="0" on="1"/>
        <pt x="901" y="0" on="1"/>
        <pt x="901" y="598" on="1"/>
        <pt x="901" y="696" on="0"/>
        <pt x="801" y="809" on="0"/>
        <pt x="713" y="809" on="1"/>
        <pt x="613" y="807" on="0"/>
        <pt x="494" y="659" on="0"/>
        <pt x="494" y="547" on="1"/>
        <pt x="494" y="0" on="1"/>
        <pt x="141" y="0" on="1"/>
        <pt x="141" y="1104" on="1"/>
        <pt x="494" y="1104" on="1"/>
        <pt x="494" y="922" on="1"/>
        <pt x="549" y="1020" on="0"/>
        <pt x="735" y="1118" on="0"/>
        <pt x="858" y="1120" on="1"/>
        <pt x="991" y="1120" on="0"/>
        <pt x="1186" y="987" on="0"/>
        <pt x="1227" y="870" on="1"/>
        <pt x="1280" y="993" on="0"/>
        <pt x="1479" y="1118" on="0"/>
        <pt x="1616" y="1120" on="1"/>
      </contour>
    </TTGlyph>
    <TTGlyph name="macron" xMin="74" yMin="1294" xMax="643" yMax="1532">
      <contour>
        <pt x="74" y="1294" on="1"/>
        <pt x="74" y="1532" on="1"/>
        <pt x="643" y="1532" on="1"/>
        <pt x="643" y="1294" on="1"/>
      </contour>
    </TTGlyph>
    <TTGlyph name="minus" xMin="68" yMin="557" xMax="977" yMax="780">
      <contour>
        <pt x="68" y="557" on="1"/>
        <pt x="68" y="780" on="1"/>
        <pt x="977" y="780" on="1"/>
        <pt x="977" y="557" on="1"/>
      </contour>
    </TTGlyph>
    <TTGlyph name="mu" xMin="152" yMin="-397" xMax="1260" yMax="1104">
      <contour>
        <pt x="1260" y="0" on="1"/>
        <pt x="905" y="0" on="1"/>
        <pt x="905" y="182" on="1"/>
        <pt x="792" y="-15" on="0"/>
        <pt x="547" y="-14" on="1"/>
        <pt x="506" y="-12" on="1"/>
        <pt x="506" y="-397" on="1"/>
        <pt x="152" y="-397" on="1"/>
        <pt x="152" y="1104" on="1"/>
        <pt x="506" y="1104" on="1"/>
        <pt x="506" y="508" on="1"/>
        <pt x="506" y="410" on="0"/>
        <pt x="606" y="297" on="0"/>
        <pt x="690" y="297" on="1"/>
        <pt x="790" y="299" on="0"/>
        <pt x="905" y="444" on="0"/>
        <pt x="905" y="559" on="1"/>
        <pt x="905" y="1104" on="1"/>
        <pt x="1260" y="1104" on="1"/>
      </contour>
    </TTGlyph>
    <TTGlyph name="multiply" xMin="121" yMin="268" xMax="922" yMax="1069">
      <contour>
        <pt x="922" y="426" on="1"/>
        <pt x="764" y="268" on="1"/>
        <pt x="522" y="512" on="1"/>
        <pt x="279" y="268" on="1"/>
        <pt x="121" y="426" on="1"/>
        <pt x="365" y="670" on="1"/>
        <pt x="121" y="911" on="1"/>
        <pt x="279" y="1069" on="1"/>
        <pt x="522" y="827" on="1"/>
        <pt x="764" y="1069" on="1"/>
        <pt x="922" y="911" on="1"/>
        <pt x="680" y="670" on="1"/>
      </contour>
    </TTGlyph>
    <TTGlyph name="n" xMin="141" yMin="0" xMax="1268" yMax="1120">
      <contour>
        <pt x="1047" y="1120" on="0"/>
        <pt x="1268" y="889" on="0"/>
        <pt x="1268" y="696" on="1"/>
        <pt x="1268" y="0" on="1"/>
        <pt x="915" y="0" on="1"/>
        <pt x="915" y="598" on="1"/>
        <pt x="915" y="694" on="0"/>
        <pt x="811" y="807" on="0"/>
        <pt x="721" y="807" on="1"/>
        <pt x="627" y="807" on="0"/>
        <pt x="506" y="684" on="0"/>
        <pt x="496" y="584" on="1"/>
        <pt x="496" y="0" on="1"/>
        <pt x="141" y="0" on="1"/>
        <pt x="141" y="1104" on="1"/>
        <pt x="496" y="1104" on="1"/>
        <pt x="496" y="924" on="1"/>
        <pt x="613" y="1117" on="0"/>
        <pt x="864" y="1120" on="1"/>
      </contour>
    </TTGlyph>
    <TTGlyph name="nacute" xMin="141" yMin="0" xMax="1268" yMax="1573">
      <component glyphName="n" x="0" y="0" flags="0x1000"/>
      <component glyphName="acute" x="457" y="0" flags="0x1000"/>
    </TTGlyph>
    <TTGlyph name="ncaron" xMin="141" yMin="0" xMax="1268" yMax="1559">
      <component glyphName="n" x="0" y="0" flags="0x1000"/>
      <component glyphName="caron" x="356" y="-2" flags="0x1000"/>
    </TTGlyph>
    <TTGlyph name="ncommaaccent" xMin="141" yMin="-604" xMax="1268" yMax="1120">
      <component glyphName="n" x="0" y="0" flags="0x1000"/>
      <component glyphName="uni0326" x="463" y="0" flags="0x1000"/>
    </TTGlyph>
    <TTGlyph name="nine" xMin="61" yMin="-14" xMax="1216" yMax="1452">
      <component glyphName="six" x="1300" y="1436" scale="-1.0" flags="0x1000"/>
    </TTGlyph>
    <TTGlyph name="nine.dnom" xMin="49" yMin="-10" xMax="778" yMax="864">
      <contour>
        <pt x="281" y="-10" on="0"/>
        <pt x="121" y="29" on="0"/>
        <pt x="63" y="61" on="1"/>
        <pt x="158" y="229" on="1"/>
        <pt x="236" y="176" on="0"/>
        <pt x="344" y="176" on="1"/>
        <pt x="442" y="176" on="0"/>
        <pt x="543" y="281" on="0"/>
        <pt x="541" y="381" on="1"/>
        <pt x="512" y="338" on="0"/>
        <pt x="408" y="289" on="0"/>
        <pt x="336" y="289" on="1"/>
        <pt x="207" y="289" on="0"/>
        <pt x="49" y="442" on="0"/>
        <pt x="49" y="567" on="1"/>
        <pt x="49" y="704" on="0"/>
        <pt x="233" y="864" on="0"/>
        <pt x="387" y="864" on="1"/>
        <pt x="569" y="864" on="0"/>
        <pt x="778" y="635" on="0"/>
        <pt x="778" y="438" on="1"/>
        <pt x="778" y="233" on="0"/>
        <pt x="551" y="-10" on="0"/>
        <pt x="358" y="-10" on="1"/>
      </contour>
      <contour>
        <pt x="453" y="465" on="0"/>
        <pt x="514" y="520" on="0"/>
        <pt x="514" y="569" on="1"/>
        <pt x="514" y="616" on="0"/>
        <pt x="455" y="672" on="0"/>
        <pt x="397" y="672" on="1"/>
        <pt x="280" y="672" on="0"/>
        <pt x="281" y="565" on="1"/>
        <pt x="281" y="518" on="0"/>
        <pt x="338" y="465" on="0"/>
        <pt x="393" y="465" on="1"/>
      </contour>
    </TTGlyph>
    <TTGlyph name="nine.numr" xMin="49" yMin="569" xMax="778" yMax="1444">
      <contour>
        <pt x="281" y="569" on="0"/>
        <pt x="121" y="608" on="0"/>
        <pt x="63" y="643" on="1"/>
        <pt x="158" y="809" on="1"/>
        <pt x="236" y="756" on="0"/>
        <pt x="344" y="756" on="1"/>
        <pt x="442" y="756" on="0"/>
        <pt x="543" y="860" on="0"/>
        <pt x="541" y="961" on="1"/>
        <pt x="512" y="920" on="0"/>
        <pt x="406" y="868" on="0"/>
        <pt x="336" y="868" on="1"/>
        <pt x="205" y="868" on="0"/>
        <pt x="49" y="1022" on="0"/>
        <pt x="49" y="1149" on="1"/>
        <pt x="49" y="1284" on="0"/>
        <pt x="233" y="1444" on="0"/>
        <pt x="387" y="1444" on="1"/>
        <pt x="569" y="1444" on="0"/>
        <pt x="778" y="1214" on="0"/>
        <pt x="778" y="1018" on="1"/>
        <pt x="778" y="815" on="0"/>
        <pt x="549" y="569" on="0"/>
        <pt x="358" y="569" on="1"/>
      </contour>
      <contour>
        <pt x="453" y="1044" on="0"/>
        <pt x="514" y="1100" on="0"/>
        <pt x="514" y="1149" on="1"/>
        <pt x="514" y="1196" on="0"/>
        <pt x="455" y="1253" on="0"/>
        <pt x="397" y="1253" on="1"/>
        <pt x="340" y="1253" on="0"/>
        <pt x="281" y="1198" on="0"/>
        <pt x="281" y="1147" on="1"/>
        <pt x="281" y="1098" on="0"/>
        <pt x="338" y="1044" on="0"/>
        <pt x="393" y="1044" on="1"/>
      </contour>
    </TTGlyph>
    <TTGlyph name="notequal" xMin="68" yMin="45" xMax="977" yMax="1282">
      <contour>
        <pt x="612" y="561" on="1"/>
        <pt x="977" y="561" on="1"/>
        <pt x="977" y="338" on="1"/>
        <pt x="541" y="338" on="1"/>
        <pt x="449" y="45" on="1"/>
        <pt x="182" y="45" on="1"/>
        <pt x="274" y="338" on="1"/>
        <pt x="68" y="338" on="1"/>
        <pt x="68" y="561" on="1"/>
        <pt x="346" y="561" on="1"/>
        <pt x="414" y="778" on="1"/>
        <pt x="68" y="778" on="1"/>
        <pt x="68" y="1001" on="1"/>
        <pt x="485" y="1001" on="1"/>
        <pt x="573" y="1282" on="1"/>
        <pt x="840" y="1282" on="1"/>
        <pt x="752" y="1001" on="1"/>
        <pt x="977" y="1001" on="1"/>
        <pt x="977" y="778" on="1"/>
        <pt x="680" y="778" on="1"/>
      </contour>
    </TTGlyph>
    <TTGlyph name="ntilde" xMin="141" yMin="0" xMax="1268" yMax="1591">
      <component glyphName="n" x="0" y="0" flags="0x1000"/>
      <component glyphName="tilde" x="365" y="0" flags="0x1000"/>
    </TTGlyph>
    <TTGlyph name="numbersign" xMin="31" yMin="0" xMax="1475" yMax="1434">
      <contour>
        <pt x="1130" y="563" on="1"/>
        <pt x="1407" y="563" on="1"/>
        <pt x="1378" y="319" on="1"/>
        <pt x="1100" y="319" on="1"/>
        <pt x="1061" y="0" on="1"/>
        <pt x="807" y="0" on="1"/>
        <pt x="846" y="319" on="1"/>
        <pt x="561" y="319" on="1"/>
        <pt x="522" y="0" on="1"/>
        <pt x="268" y="0" on="1"/>
        <pt x="307" y="319" on="1"/>
        <pt x="31" y="319" on="1"/>
        <pt x="59" y="563" on="1"/>
        <pt x="338" y="563" on="1"/>
        <pt x="373" y="856" on="1"/>
        <pt x="100" y="856" on="1"/>
        <pt x="127" y="1100" on="1"/>
        <pt x="403" y="1100" on="1"/>
        <pt x="444" y="1434" on="1"/>
        <pt x="698" y="1434" on="1"/>
        <pt x="657" y="1100" on="1"/>
        <pt x="944" y="1100" on="1"/>
        <pt x="985" y="1434" on="1"/>
        <pt x="1239" y="1434" on="1"/>
        <pt x="1198" y="1100" on="1"/>
        <pt x="1475" y="1100" on="1"/>
        <pt x="1448" y="856" on="1"/>
        <pt x="1167" y="856" on="1"/>
      </contour>
      <contour>
        <pt x="629" y="856" on="1"/>
        <pt x="592" y="563" on="1"/>
        <pt x="877" y="563" on="1"/>
        <pt x="913" y="856" on="1"/>
      </contour>
    </TTGlyph>
    <TTGlyph name="o" xMin="49" yMin="-12" xMax="1255" yMax="1116">
      <contour>
        <pt x="831" y="1116" on="0"/>
        <pt x="1106" y="977" on="0"/>
        <pt x="1255" y="721" on="0"/>
        <pt x="1255" y="553" on="1"/>
        <pt x="1255" y="385" on="0"/>
        <pt x="1106" y="129" on="0"/>
        <pt x="831" y="-12" on="0"/>
        <pt x="653" y="-12" on="1"/>
        <pt x="473" y="-12" on="0"/>
        <pt x="201" y="129" on="0"/>
        <pt x="49" y="385" on="0"/>
        <pt x="49" y="553" on="1"/>
        <pt x="49" y="721" on="0"/>
        <pt x="201" y="977" on="0"/>
        <pt x="473" y="1116" on="0"/>
        <pt x="653" y="1116" on="1"/>
      </contour>
      <contour>
        <pt x="543" y="836" on="0"/>
        <pt x="406" y="676" on="0"/>
        <pt x="406" y="549" on="1"/>
        <pt x="406" y="420" on="0"/>
        <pt x="543" y="262" on="0"/>
        <pt x="653" y="262" on="1"/>
        <pt x="762" y="262" on="0"/>
        <pt x="899" y="420" on="0"/>
        <pt x="899" y="549" on="1"/>
        <pt x="899" y="676" on="0"/>
        <pt x="762" y="836" on="0"/>
        <pt x="653" y="836" on="1"/>
      </contour>
    </TTGlyph>
    <TTGlyph name="oacute" xMin="49" yMin="-12" xMax="1255" yMax="1573">
      <component glyphName="o" x="0" y="0" flags="0x1000"/>
      <component glyphName="acute" x="385" y="0" flags="0x1000"/>
    </TTGlyph>
    <TTGlyph name="ocircumflex" xMin="49" yMin="-12" xMax="1255" yMax="1557">
      <component glyphName="o" x="0" y="0" flags="0x1000"/>
      <component glyphName="circumflex" x="295" y="-4" flags="0x1000"/>
    </TTGlyph>
    <TTGlyph name="odieresis" xMin="49" yMin="-12" xMax="1255" yMax="1575">
      <contour>
        <pt x="526" y="1575" on="0"/>
        <pt x="616" y="1485" on="0"/>
        <pt x="616" y="1415" on="1"/>
        <pt x="616" y="1345" on="0"/>
        <pt x="526" y="1257" on="0"/>
        <pt x="457" y="1257" on="1"/>
        <pt x="387" y="1257" on="0"/>
        <pt x="297" y="1346" on="0"/>
        <pt x="297" y="1415" on="1"/>
        <pt x="297" y="1485" on="0"/>
        <pt x="387" y="1575" on="0"/>
        <pt x="457" y="1575" on="1"/>
      </contour>
      <contour>
        <pt x="922" y="1575" on="0"/>
        <pt x="1012" y="1485" on="0"/>
        <pt x="1012" y="1415" on="1"/>
        <pt x="1012" y="1345" on="0"/>
        <pt x="922" y="1257" on="0"/>
        <pt x="852" y="1257" on="1"/>
        <pt x="782" y="1257" on="0"/>
        <pt x="692" y="1346" on="0"/>
        <pt x="692" y="1415" on="1"/>
        <pt x="692" y="1485" on="0"/>
        <pt x="782" y="1575" on="0"/>
        <pt x="852" y="1575" on="1"/>
      </contour>
      <contour>
        <pt x="831" y="1116" on="0"/>
        <pt x="1106" y="977" on="0"/>
        <pt x="1255" y="721" on="0"/>
        <pt x="1255" y="553" on="1"/>
        <pt x="1255" y="385" on="0"/>
        <pt x="1106" y="129" on="0"/>
        <pt x="831" y="-12" on="0"/>
        <pt x="653" y="-12" on="1"/>
        <pt x="473" y="-12" on="0"/>
        <pt x="201" y="129" on="0"/>
        <pt x="49" y="385" on="0"/>
        <pt x="49" y="553" on="1"/>
        <pt x="49" y="721" on="0"/>
        <pt x="201" y="977" on="0"/>
        <pt x="473" y="1116" on="0"/>
        <pt x="653" y="1116" on="1"/>
      </contour>
      <contour>
        <pt x="543" y="836" on="0"/>
        <pt x="406" y="676" on="0"/>
        <pt x="406" y="549" on="1"/>
        <pt x="406" y="420" on="0"/>
        <pt x="543" y="262" on="0"/>
        <pt x="653" y="262" on="1"/>
        <pt x="762" y="262" on="0"/>
        <pt x="899" y="420" on="0"/>
        <pt x="899" y="549" on="1"/>
        <pt x="899" y="676" on="0"/>
        <pt x="762" y="836" on="0"/>
        <pt x="653" y="836" on="1"/>
      </contour>
    </TTGlyph>
    <TTGlyph name="oe" xMin="49" yMin="-12" xMax="2044" yMax="1116">
      <contour>
        <pt x="1647" y="1116" on="0"/>
        <pt x="1911" y="956" on="0"/>
        <pt x="2044" y="668" on="0"/>
        <pt x="2036" y="475" on="1"/>
        <pt x="1235" y="475" on="1"/>
        <pt x="1258" y="369" on="0"/>
        <pt x="1399" y="252" on="0"/>
        <pt x="1503" y="252" on="1"/>
        <pt x="1577" y="252" on="0"/>
        <pt x="1714" y="309" on="0"/>
        <pt x="1772" y="365" on="1"/>
        <pt x="1958" y="182" on="1"/>
        <pt x="1870" y="88" on="0"/>
        <pt x="1624" y="-12" on="0"/>
        <pt x="1473" y="-12" on="1"/>
        <pt x="1203" y="-12" on="0"/>
        <pt x="1067" y="172" on="1"/>
        <pt x="999" y="84" on="0"/>
        <pt x="788" y="-12" on="0"/>
        <pt x="653" y="-12" on="1"/>
        <pt x="473" y="-12" on="0"/>
        <pt x="201" y="129" on="0"/>
        <pt x="49" y="385" on="0"/>
        <pt x="49" y="553" on="1"/>
        <pt x="49" y="721" on="0"/>
        <pt x="201" y="977" on="0"/>
        <pt x="473" y="1116" on="0"/>
        <pt x="653" y="1116" on="1"/>
        <pt x="790" y="1116" on="0"/>
        <pt x="1001" y="1020" on="0"/>
        <pt x="1069" y="930" on="1"/>
        <pt x="1132" y="1020" on="0"/>
        <pt x="1333" y="1116" on="0"/>
        <pt x="1464" y="1116" on="1"/>
      </contour>
      <contour>
        <pt x="1683" y="748" on="0"/>
        <pt x="1563" y="879" on="0"/>
        <pt x="1466" y="879" on="1"/>
        <pt x="1374" y="879" on="0"/>
        <pt x="1249" y="750" on="0"/>
        <pt x="1233" y="645" on="1"/>
        <pt x="1683" y="645" on="1"/>
      </contour>
      <contour>
        <pt x="762" y="262" on="0"/>
        <pt x="899" y="420" on="0"/>
        <pt x="899" y="549" on="1"/>
        <pt x="899" y="676" on="0"/>
        <pt x="762" y="836" on="0"/>
        <pt x="653" y="836" on="1"/>
        <pt x="542" y="836" on="0"/>
        <pt x="406" y="676" on="0"/>
        <pt x="406" y="549" on="1"/>
        <pt x="406" y="420" on="0"/>
        <pt x="543" y="262" on="0"/>
        <pt x="653" y="262" on="1"/>
      </contour>
    </TTGlyph>
    <TTGlyph name="ogonek" xMin="160" yMin="-416" xMax="561" yMax="37">
      <contour>
        <pt x="338" y="-122" on="0"/>
        <pt x="338" y="-188" on="1"/>
        <pt x="338" y="-213" on="0"/>
        <pt x="365" y="-238" on="0"/>
        <pt x="383" y="-238" on="1"/>
        <pt x="428" y="-238" on="0"/>
        <pt x="471" y="-174" on="1"/>
        <pt x="561" y="-279" on="1"/>
        <pt x="522" y="-345" on="0"/>
        <pt x="408" y="-416" on="0"/>
        <pt x="340" y="-416" on="1"/>
        <pt x="268" y="-416" on="0"/>
        <pt x="160" y="-334" on="0"/>
        <pt x="160" y="-246" on="1"/>
        <pt x="160" y="-129" on="0"/>
        <pt x="283" y="37" on="1"/>
        <pt x="455" y="37" on="1"/>
      </contour>
    </TTGlyph>
    <TTGlyph name="ograve" xMin="49" yMin="-12" xMax="1255" yMax="1573">
      <component glyphName="o" x="0" y="0" flags="0x1000"/>
      <component glyphName="grave" x="213" y="0" flags="0x1000"/>
    </TTGlyph>
    <TTGlyph name="ohungarumlaut" xMin="49" yMin="-12" xMax="1255" yMax="1575">
      <component glyphName="o" x="0" y="0" flags="0x1000"/>
      <component glyphName="hungarumlaut" x="358" y="-4" flags="0x1000"/>
    </TTGlyph>
    <TTGlyph name="omacron" xMin="49" yMin="-12" xMax="1255" yMax="1532">
      <component glyphName="o" x="0" y="0" flags="0x1000"/>
      <component glyphName="macron" x="293" y="0" flags="0x1000"/>
    </TTGlyph>
    <TTGlyph name="one" xMin="14" yMin="0" xMax="643" yMax="1436">
      <contour>
        <pt x="279" y="0" on="1"/>
        <pt x="279" y="1143" on="1"/>
        <pt x="14" y="1143" on="1"/>
        <pt x="14" y="1436" on="1"/>
        <pt x="643" y="1436" on="1"/>
        <pt x="643" y="0" on="1"/>
      </contour>
    </TTGlyph>
    <TTGlyph name="one.dnom" xMin="20" yMin="0" xMax="432" yMax="854">
      <contour>
        <pt x="182" y="664" on="1"/>
        <pt x="20" y="664" on="1"/>
        <pt x="20" y="854" on="1"/>
        <pt x="432" y="854" on="1"/>
        <pt x="432" y="0" on="1"/>
        <pt x="182" y="0" on="1"/>
      </contour>
    </TTGlyph>
    <TTGlyph name="one.numr" xMin="20" yMin="580" xMax="432" yMax="1434">
      <contour>
        <pt x="182" y="1243" on="1"/>
        <pt x="20" y="1243" on="1"/>
        <pt x="20" y="1434" on="1"/>
        <pt x="432" y="1434" on="1"/>
        <pt x="432" y="580" on="1"/>
        <pt x="182" y="580" on="1"/>
      </contour>
    </TTGlyph>
    <TTGlyph name="oneeighth" xMin="20" yMin="-10" xMax="1780" yMax="1436">
      <component glyphName="one.numr" x="0" y="0" flags="0x1000"/>
      <component glyphName="fraction" x="700" y="0" flags="0x1000"/>
      <component glyphName="eight.dnom" x="981" y="0" flags="0x1000"/>
    </TTGlyph>
    <TTGlyph name="onehalf" xMin="20" yMin="0" xMax="1794" yMax="1436">
      <component glyphName="one.numr" x="0" y="0" flags="0x1000"/>
      <component glyphName="fraction" x="700" y="0" flags="0x1000"/>
      <component glyphName="two.dnom" x="1051" y="0" flags="0x1000"/>
    </TTGlyph>
    <TTGlyph name="onequarter" xMin="20" yMin="0" xMax="1777" yMax="1436">
      <component glyphName="one.numr" x="0" y="0" flags="0x1000"/>
      <component glyphName="fraction" x="700" y="0" flags="0x1000"/>
      <component glyphName="four.dnom" x="956" y="0" flags="0x1000"/>
    </TTGlyph>
    <TTGlyph name="onesuperior" xMin="20" yMin="580" xMax="432" yMax="1434">
      <contour>
        <pt x="182" y="1243" on="1"/>
        <pt x="20" y="1243" on="1"/>
        <pt x="20" y="1434" on="1"/>
        <pt x="432" y="1434" on="1"/>
        <pt x="432" y="580" on="1"/>
        <pt x="182" y="580" on="1"/>
      </contour>
    </TTGlyph>
    <TTGlyph name="ordfeminine" xMin="43" yMin="928" xMax="729" yMax="1608">
      <contour>
        <pt x="565" y="1608" on="0"/>
        <pt x="729" y="1481" on="0"/>
        <pt x="727" y="1368" on="1"/>
        <pt x="727" y="938" on="1"/>
        <pt x="489" y="938" on="1"/>
        <pt x="489" y="1022" on="1"/>
        <pt x="419" y="928" on="0"/>
        <pt x="274" y="928" on="1"/>
        <pt x="168" y="928" on="0"/>
        <pt x="43" y="1040" on="0"/>
        <pt x="43" y="1133" on="1"/>
        <pt x="43" y="1227" on="0"/>
        <pt x="182" y="1329" on="0"/>
        <pt x="311" y="1329" on="1"/>
        <pt x="489" y="1329" on="1"/>
        <pt x="489" y="1339" on="1"/>
        <pt x="489" y="1384" on="0"/>
        <pt x="424" y="1434" on="0"/>
        <pt x="360" y="1434" on="1"/>
        <pt x="270" y="1434" on="0"/>
        <pt x="143" y="1384" on="1"/>
        <pt x="86" y="1540" on="1"/>
        <pt x="262" y="1608" on="0"/>
        <pt x="418" y="1608" on="1"/>
      </contour>
      <contour>
        <pt x="448" y="1077" on="0"/>
        <pt x="489" y="1149" on="1"/>
        <pt x="489" y="1219" on="1"/>
        <pt x="362" y="1219" on="1"/>
        <pt x="272" y="1219" on="0"/>
        <pt x="272" y="1151" on="1"/>
        <pt x="272" y="1116" on="0"/>
        <pt x="317" y="1077" on="0"/>
        <pt x="358" y="1077" on="1"/>
      </contour>
    </TTGlyph>
    <TTGlyph name="ordmasculine" xMin="41" yMin="930" xMax="805" yMax="1608">
      <contour>
        <pt x="596" y="1608" on="0"/>
        <pt x="805" y="1421" on="0"/>
        <pt x="805" y="1268" on="1"/>
        <pt x="805" y="1116" on="0"/>
        <pt x="596" y="930" on="0"/>
        <pt x="422" y="930" on="1"/>
        <pt x="250" y="930" on="0"/>
        <pt x="41" y="1116" on="0"/>
        <pt x="41" y="1268" on="1"/>
        <pt x="41" y="1422" on="0"/>
        <pt x="250" y="1608" on="0"/>
        <pt x="422" y="1608" on="1"/>
      </contour>
      <contour>
        <pt x="360" y="1421" on="0"/>
        <pt x="285" y="1335" on="0"/>
        <pt x="285" y="1266" on="1"/>
        <pt x="285" y="1196" on="0"/>
        <pt x="360" y="1110" on="0"/>
        <pt x="422" y="1110" on="1"/>
        <pt x="483" y="1110" on="0"/>
        <pt x="559" y="1196" on="0"/>
        <pt x="559" y="1266" on="1"/>
        <pt x="559" y="1336" on="0"/>
        <pt x="483" y="1421" on="0"/>
        <pt x="422" y="1421" on="1"/>
      </contour>
    </TTGlyph>
    <TTGlyph name="oslash" xMin="49" yMin="-291" xMax="1255" yMax="1374">
      <contour>
        <pt x="1065" y="1018" on="0"/>
        <pt x="1255" y="743" on="0"/>
        <pt x="1255" y="553" on="1"/>
        <pt x="1255" y="385" on="0"/>
        <pt x="1106" y="129" on="0"/>
        <pt x="831" y="-12" on="0"/>
        <pt x="653" y="-12" on="1"/>
        <pt x="598" y="-12" on="0"/>
        <pt x="545" y="-6" on="1"/>
        <pt x="453" y="-291" on="1"/>
        <pt x="307" y="-291" on="1"/>
        <pt x="410" y="27" on="1"/>
        <pt x="242" y="86" on="0"/>
        <pt x="49" y="362" on="0"/>
        <pt x="49" y="553" on="1"/>
        <pt x="49" y="721" on="0"/>
        <pt x="201" y="977" on="0"/>
        <pt x="473" y="1116" on="0"/>
        <pt x="653" y="1116" on="1"/>
        <pt x="708" y="1116" on="0"/>
        <pt x="762" y="1110" on="1"/>
        <pt x="848" y="1374" on="1"/>
        <pt x="993" y="1374" on="1"/>
        <pt x="897" y="1077" on="1"/>
      </contour>
      <contour>
        <pt x="383" y="463" on="0"/>
        <pt x="440" y="326" on="0"/>
        <pt x="494" y="285" on="1"/>
        <pt x="682" y="862" on="1"/>
        <pt x="653" y="864" on="1"/>
        <pt x="532" y="864" on="0"/>
        <pt x="383" y="690" on="0"/>
        <pt x="383" y="549" on="1"/>
      </contour>
      <contour>
        <pt x="774" y="233" on="0"/>
        <pt x="922" y="406" on="0"/>
        <pt x="922" y="549" on="1"/>
        <pt x="922" y="635" on="0"/>
        <pt x="862" y="770" on="0"/>
        <pt x="811" y="813" on="1"/>
        <pt x="623" y="236" on="1"/>
        <pt x="653" y="233" on="1"/>
      </contour>
    </TTGlyph>
    <TTGlyph name="otilde" xMin="49" yMin="-12" xMax="1255" yMax="1591">
      <component glyphName="o" x="0" y="0" flags="0x1000"/>
      <component glyphName="tilde" x="293" y="0" flags="0x1000"/>
    </TTGlyph>
</ttFont>
